<?xml version="1.0" encoding="UTF-8"?>
<svg id="Layer_1" xmlns="http://www.w3.org/2000/svg" version="1.1" viewBox="0 0 220 220">
  <!-- Generator: Adobe Illustrator 30.0.0, SVG Export Plug-In . SVG Version: 2.1.1 Build 123)  -->
  <defs>
    <style>
      .st0, .st1 {
        isolation: isolate;
      }

      .st2 {
        fill: #ef7224;
      }

      .st1 {
        font-family: EurostileExt-Reg, 'Eurostile Extd';
        font-size: 12.7px;
      }

      .st1, .st3 {
        fill: #e96324;
      }
    </style>
  </defs>
  <g class="st0">
    <g id="Layer_11" data-name="Layer_1">
      <g>
        <path class="st3" d="M71.1,170.2h6l8,12.7,7.9-12.7h6v16.9h-3.8l.2-13.9-8.7,13.9h-3.1l-8.7-13.9v13.9c0,0-3.7,0-3.7,0v-16.9h-.1Z"/>
        <path class="st3" d="M103.5,170.2h14.6c4.2,0,5.7,1.2,5.7,4.5s-.7,3.2-2.3,3.6c2.1.3,2.9,1.4,2.9,4s-1.6,4.9-5.6,4.9h-15.3v-16.9h0ZM116.6,177.1c1.6,0,2.2,0,2.6-.3.5-.3.7-.8.7-1.6s-.3-1.5-.8-1.7c-.4-.2-1-.3-2.1-.3h-9.6v4h9.2ZM117.4,184.2c2.4,0,3.1-.5,3.1-2.2s-.3-1.5-.8-1.9c-.4-.2-1.1-.3-2.5-.3h-9.8v4.4h10.1,0Z"/>
        <path class="st3" d="M128.4,170.2h18v3h-14.1v4h13.4v2.7h-13.4v4.3h14.3v3h-18.1v-16.9h0Z"/>
        <path class="st3" d="M150.4,170.2h14.3c3,0,4.3.4,5.2,1.3.7.8,1.1,2.1,1.1,4.1s-.2,2.9-.7,3.5-1.1.9-2.1,1.1c2.1.2,2.6.8,2.6,3.5v3.3h-3.9v-2.5c0-2.3-.6-2.8-3.1-2.7h-9.4v5.3h-3.9v-16.9h-.1ZM163.5,178.7c2.8,0,3.5-.5,3.5-2.5s-.6-2.8-3.5-2.8h-9.4v5.3h9.4Z"/>
        <g>
          <rect class="st3" x="55.6" y="177.2" width="10.9" height="2.7"/>
          <polygon class="st3" points="53 184.1 53 179.8 53 179.8 53 177.2 53 177.2 53 173.2 67.1 173.2 67.1 170.2 49.2 170.2 49.2 187.1 67.3 187.1 67.3 184.1 53 184.1"/>
        </g>
      </g>
      <g class="st0">
        <text class="st1" transform="translate(56.5 203.9)"><tspan x="0" y="0">COLLECTIVE</tspan></text>
      </g>
      <g>
        <path class="st2" d="M147.7,105.2v-3.8l-.8-5.8c-1-5.6-3.1-11-5.7-16-1.9-3.7-4.2-7.4-7.2-10.3.2,1.8.8,3.6,1,5.4.4,3.5.2,8.2-.5,11.6-1.3,6.7-5.2,14.3-9.5,19.5-3.3,4.1-7.6,7.3-11.5,10.8-11.3,10.2-13.4,30.5,0,39.8.2.2.6.7,1,.5.2-.1,2.4-4,2.9-4.7,2.5-3.4,5.5-6.4,7.8-9.8.7-.5,1.8-1.5,2.4-2.1,2.4-2.5,4.6-5.3,7.1-7.8l.2-1.1c.5,0,.9-.3,1.2-.6,1.7-1.6,4-5.3,5.2-7.4,2.9-4.8,5.7-10.6,6.2-16.3v-2h.2Z"/>
        <path class="st2" d="M106,94.9c2.3-2.3,4.7-5,6.7-7.5,2.1-2.7,3.8-5.5,5.5-8.5,9.2-17,9.9-34.7,0-51.6-1.8-3-3.2-5.1-5.5-7.8-.3-.4-3.3-4.2-3.7-3.8s1.4,3.5,1.6,4.3c.5,1.7.7,3.3,1.1,5,0,2,.2,4.3,0,6.3-.4,4.9-3.6,12.1-6.2,16.3-3.5,5.6-8.8,11.3-13,16.5-3.7,4.5-7.5,8.6-10.7,13.5-12.4,18.6-12.6,35.7,0,54.3,4.5,6.7,9.8,12.4,16.5,17,0-.4,0-.7-.3-1.1-.8-1.5-2.3-3.1-3.3-4.7-5.5-10-6-22.3-1.5-32.7,3.3-7.5,7.3-10.1,12.7-15.5h.1Z"/>
      </g>
    </g>
  </g>
</svg>