<?xml version="1.0" encoding="UTF-8"?>
<svg xmlns="http://www.w3.org/2000/svg" version="1.1" xmlns:xlink="http://www.w3.org/1999/xlink" viewBox="0 0 220 220">
  <!-- Generator: Adobe Illustrator 30.0.0, SVG Export Plug-In . SVG Version: 2.1.1 Build 123)  -->
  <defs>
    <style>
      .st0 {
        isolation: isolate;
      }

      .st1 {
        font-family: EurostileExt-Reg, 'Eurostile Extd';
        font-size: 12.4px;
        letter-spacing: 0em;
      }

      .st1, .st2 {
        fill: #e96324;
      }

      .st3 {
        fill: #ef7224;
      }

      .st4 {
        mix-blend-mode: screen;
      }
    </style>
  </defs>
  <g class="st0">
    <g id="Layer_1">
      <g>
        <path class="st2" d="M72,168.9h5.9l7.8,12.4,7.7-12.4h5.8v16.5h-3.7v-13.6c.1,0-8.4,13.6-8.4,13.6h-3l-8.5-13.6v13.6c0,0-3.6,0-3.6,0v-16.5Z"/>
        <path class="st2" d="M103.7,168.9h14.2c4.1,0,5.6,1.1,5.6,4.4s-.6,3.1-2.2,3.5c2,.3,2.8,1.4,2.8,3.9s-1.5,4.8-5.5,4.8h-15v-16.5ZM116.4,175.7c1.5,0,2.1,0,2.5-.3.5-.3.7-.8.7-1.6s-.3-1.4-.8-1.7c-.4-.2-1-.3-2.1-.3h-9.4v3.9h9ZM117.2,182.6c2.3,0,3-.5,3-2.2s-.3-1.5-.8-1.8c-.4-.2-1.1-.3-2.5-.3h-9.6v4.3h9.8Z"/>
        <path class="st2" d="M128,168.9h17.5v2.9h-13.8v3.9h13.1v2.6h-13.1v4.2h13.9v2.9h-17.7v-16.5Z"/>
        <path class="st2" d="M149.4,168.9h14c2.9,0,4.2.3,5.1,1.3.7.8,1.1,2.1,1.1,4s-.2,2.8-.7,3.4c-.5.6-1.1.9-2.1,1.1,2.1.2,2.5.8,2.5,3.4v3.3h-3.8v-2.5c0-2.3-.6-2.7-3.1-2.7h-9.2v5.1h-3.8v-16.5ZM162.3,177.3c2.8,0,3.5-.5,3.5-2.5s-.6-2.7-3.4-2.7h-9.1v5.2h9.1Z"/>
        <g>
          <rect class="st2" x="56.9" y="175.7" width="10.6" height="2.6"/>
          <polygon class="st2" points="54.4 182.6 54.4 178.3 54.4 178.3 54.4 175.7 54.4 175.7 54.4 171.8 68.1 171.8 68.1 168.9 50.6 168.9 50.6 185.4 68.3 185.4 68.3 182.6 54.4 182.6"/>
        </g>
      </g>
      <g class="st4">
        <image width="797" height="370" transform="translate(14.4 132.9) scale(.2)" xlink:href="ember-logo-1.png"/>
      </g>
      <g class="st4">
        <image width="797" height="370" transform="translate(14.4 132.9) scale(.2)" xlink:href="ember-logo-2.png"/>
      </g>
      <text class="st1" transform="translate(57.8 201.8)"><tspan x="0" y="0">COLLECTIVE</tspan></text>
      <g>
        <path class="st3" d="M146.8,105.5v-3.7l-.8-5.7c-1-5.5-3-10.7-5.5-15.6-1.9-3.6-4.1-7.2-7.1-10,.2,1.8.7,3.5.9,5.3.4,3.4.2,8-.5,11.3-1.3,6.5-5.1,13.9-9.3,19.1-3.2,4-7.5,7.1-11.2,10.5-11.1,9.9-13.1,29.7,0,38.9.2.2.6.7,1,.5.2-.1,2.3-3.9,2.9-4.6,2.4-3.3,5.4-6.2,7.7-9.6.7-.5,1.7-1.4,2.4-2,2.4-2.5,4.5-5.2,6.9-7.6l.2-1.1c.5,0,.9-.3,1.2-.6,1.6-1.6,3.9-5.2,5.1-7.2,2.8-4.7,5.5-10.3,6.1-15.9,0-.6,0-1.3,0-2Z"/>
        <path class="st3" d="M106.1,95.4c2.2-2.2,4.6-4.9,6.6-7.3,2.1-2.6,3.8-5.4,5.4-8.3,9-16.6,9.6-33.9,0-50.3-1.7-3-3.1-5-5.4-7.6-.3-.4-3.2-4.1-3.7-3.7-.2.2,1.4,3.5,1.6,4.2.5,1.6.7,3.3,1.1,4.9-.1,2,.2,4.2,0,6.1-.4,4.8-3.5,11.8-6.1,15.9-3.4,5.5-8.6,11.1-12.7,16.1-3.6,4.4-7.3,8.4-10.5,13.2-12.1,18.2-12.3,34.9,0,53,4.4,6.5,9.6,12.1,16.1,16.6,0-.4,0-.7-.3-1.1-.8-1.4-2.3-3-3.2-4.6-5.3-9.7-5.9-21.7-1.4-31.9,3.2-7.3,7.2-9.9,12.4-15.2Z"/>
      </g>
      <g class="st4">
        <image width="607" height="875" transform="translate(37.2 -17.8) scale(.2)" xlink:href="ember-logo-3.png"/>
      </g>
    </g>
  </g>
</svg>