<?xml version="1.0" encoding="UTF-8"?>
<svg id="Layer_1" xmlns="http://www.w3.org/2000/svg" version="1.1" viewBox="0 0 220 220">
  <!-- Generator: Adobe Illustrator 30.0.0, SVG Export Plug-In . SVG Version: 2.1.1 Build 123)  -->
  <defs>
    <style>
      .st0 {
        fill: #ef7224;
      }

      .st1 {
        fill: #e96324;
      }
    </style>
  </defs>
  <g>
    <path class="st1" d="M68.7,172.3h6.4l8.4,13.5,8.4-13.5h6.3v17.9h-4.1l.2-14.7-9.3,14.7h-3.2l-9.2-14.7v14.7c.1,0-3.9,0-3.9,0v-17.9Z"/>
    <path class="st1" d="M103,172.3h15.4c4.5,0,6,1.2,6,4.8s-.7,3.4-2.4,3.8c2.2.3,3.1,1.5,3.1,4.2s-1.7,5.2-5.9,5.2h-16.2v-17.9ZM116.9,179.6c1.7,0,2.3,0,2.7-.3.5-.3.8-.9.8-1.7s-.3-1.6-.9-1.9c-.4-.2-1-.3-2.3-.3h-10.2v4.2h9.8ZM117.7,187.1c2.5,0,3.2-.5,3.2-2.3s-.3-1.6-.8-2c-.4-.2-1.2-.3-2.7-.3h-10.4v4.6h10.7Z"/>
    <path class="st1" d="M129.4,172.3h19v3.1h-14.9v4.2h14.2v2.8h-14.2v4.6h15.1v3.1h-19.2v-17.9Z"/>
    <path class="st1" d="M152.6,172.3h15.2c3.1,0,4.6.4,5.5,1.4.8.9,1.2,2.3,1.2,4.3s-.2,3.1-.8,3.7c-.5.7-1.2,1-2.3,1.2,2.3.2,2.8.9,2.7,3.7v3.5h-4.2v-2.7c0-2.4-.6-2.9-3.3-2.9h-10v5.6h-4.1v-17.9ZM166.6,181.3c3,0,3.8-.5,3.8-2.7s-.6-3-3.7-3h-9.9v5.7h9.8Z"/>
    <g>
      <rect class="st1" x="52.3" y="179.7" width="11.5" height="2.8"/>
      <polygon class="st1" points="49.6 187.1 49.6 182.5 49.6 182.5 49.6 179.7 49.6 179.7 49.6 175.4 64.5 175.4 64.5 172.3 45.5 172.3 45.5 190.2 64.7 190.2 64.7 187.1 49.6 187.1"/>
    </g>
  </g>
  <g>
    <path class="st1" d="M64.1,204.9v.4c0,1.1-.1,1.5-.5,1.9-.3.4-.8.6-1.6.7-.5,0-2,0-3.2,0-3.2,0-4-.1-4.7-.8-.6-.6-.7-1.3-.7-3.7s.2-3.5,1.1-4.1c.7-.4,1.4-.5,5.1-.5s3,.1,3.6.5c.6.4.8,1,.8,2.4h-1v-.2c0-1.6-.4-1.7-4.1-1.7s-4.3,0-4.3,3.6,0,2.7.5,3.1c.4.4,1.1.5,3.6.5,4,0,4.4-.1,4.4-1.7v-.5h1Z"/>
    <path class="st1" d="M77.8,199.7c.6.6.7,1.3.7,3.7s-.1,3.2-.7,3.8c-.7.7-1.4.8-5,.8s-4.4-.1-5-.8c-.6-.6-.7-1.3-.7-3.7s.1-3.2.7-3.8c.7-.7,1.4-.8,5.1-.8s4.3.1,5,.8ZM68.6,200.4c-.4.4-.5,1-.5,3.1s0,2.7.5,3.1c.5.5,1,.5,4.2.5s3.7,0,4.2-.5c.4-.4.5-1,.5-3.1s0-2.7-.5-3.1c-.4-.5-1.2-.5-4.1-.5s-3.8,0-4.2.5Z"/>
    <path class="st1" d="M81.8,199h1.1v8.1h7.1v.9h-8.2v-9Z"/>
    <path class="st1" d="M92.5,199h1.1v8.1h7.1v.9h-8.2v-9Z"/>
    <path class="st1" d="M103.2,199h8.9v.9h-7.8v3h7.6v.8h-7.6v3.3h7.9v.9h-9v-9Z"/>
    <path class="st1" d="M125.5,204.9v.4c0,1.1-.1,1.5-.5,1.9-.3.4-.8.6-1.6.7-.5,0-2,0-3.2,0-3.2,0-4-.1-4.7-.8-.6-.6-.7-1.3-.7-3.7s.2-3.5,1.1-4.1c.7-.4,1.4-.5,5.1-.5s3,.1,3.6.5c.6.4.8,1,.8,2.4h-1v-.2c0-1.6-.4-1.7-4.1-1.7s-4.3,0-4.3,3.6,0,2.7.5,3.1c.4.4,1.1.5,3.6.5,4,0,4.4-.1,4.4-1.7v-.5h1Z"/>
    <path class="st1" d="M132.2,199.9h-4.5v-.9h10.2v.9h-4.5v8.1h-1.1v-8.1Z"/>
    <path class="st1" d="M140.4,199h1.1v9h-1.1v-9Z"/>
    <path class="st1" d="M145.1,199l4.5,8.2,4.5-8.2h1.2l-5,9h-1.5l-5-9h1.2Z"/>
    <path class="st1" d="M157.8,199h8.9v.9h-7.8v3h7.6v.8h-7.6v3.3h7.9v.9h-9v-9Z"/>
  </g>
  <g>
    <path class="st0" d="M149.9,103.5v-4l-.9-6.1c-1-5.9-3.3-11.6-6-16.9-2-3.9-4.4-7.8-7.7-10.9.2,1.9.8,3.8,1,5.7.4,3.7.2,8.6-.5,12.3-1.4,7.1-5.5,15.1-10,20.7-3.5,4.3-8.1,7.7-12.2,11.4-12,10.8-14.2,32.2,0,42.1.3.2.7.7,1,.5.3-.1,2.5-4.2,3.1-5,2.6-3.6,5.8-6.7,8.3-10.4.8-.5,1.9-1.5,2.6-2.2,2.6-2.7,4.9-5.6,7.5-8.2l.3-1.2c.6,0,.9-.3,1.3-.7,1.8-1.7,4.2-5.6,5.6-7.8,3.1-5.1,6-11.2,6.6-17.2,0-.7,0-1.4,0-2.1Z"/>
    <path class="st0" d="M105.7,92.6c2.4-2.4,5-5.3,7.1-7.9,2.3-2.9,4.1-5.8,5.8-9,9.8-18,10.5-36.7,0-54.6-1.9-3.2-3.4-5.4-5.8-8.2-.3-.4-3.5-4.4-4-4-.2.2,1.5,3.8,1.7,4.5.5,1.7.7,3.5,1.2,5.3-.1,2.1.2,4.5,0,6.6-.5,5.2-3.8,12.8-6.6,17.2-3.7,6-9.3,12-13.8,17.5-3.9,4.8-7.9,9.2-11.4,14.3-13.1,19.7-13.3,37.8,0,57.5,4.8,7.1,10.4,13.1,17.5,18,0-.4,0-.8-.3-1.2-.9-1.5-2.5-3.2-3.4-5-5.8-10.5-6.4-23.6-1.5-34.6,3.5-7.9,7.8-10.7,13.5-16.4Z"/>
  </g>
</svg>