<?xml version="1.0" encoding="UTF-8"?>
<svg id="Layer_1" xmlns="http://www.w3.org/2000/svg" version="1.1" viewBox="0 0 300 130">
  <!-- Generator: Adobe Illustrator 30.0.0, SVG Export Plug-In . SVG Version: 2.1.1 Build 123)  -->
  <defs>
    <style>
      .st0 {
        fill: #ec1e27;
      }

      .st1 {
        fill: #fff;
      }
    </style>
  </defs>
  <rect class="st0" x="18" y="40.6" width="262" height="48.7" rx="7.8" ry="7.8"/>
  <rect class="st1" x="24.5" y="46.1" width="248.9" height="37.8" rx="5.9" ry="5.9"/>
  <g id="Layer_11" data-name="Layer_1">
    <g>
      <path class="st0" d="M114.3,53.4v-1.9s3.9,0,3.9,0h3.9s0,11.6,0,11.6v11.6h3.9s3.9,0,3.9,0v1.9s0,1.9,0,1.9h-11.6s-11.6,0-11.6,0v-1.9s0-1.9,0-1.9h3.9s3.9,0,3.9,0v-7.7s0-7.7,0-7.7h-1.9s-1.9,0-1.9,0v-1.9s0-1.9,0-1.9h1.9s1.9,0,1.9,0v-1.9Z"/>
      <path class="st0" d="M133.6,63.1v-11.6s3.9,0,3.9,0h3.9s0,11.6,0,11.6v11.6h5.8s5.8,0,5.8,0v-11.6s0-11.6,0-11.6h3.9s3.9,0,3.9,0v11.6s0,11.6,0,11.6h-1.9s-1.9,0-1.9,0v1.9s0,1.9,0,1.9h-9.6s-9.6,0-9.6,0v-1.9s0-1.9,0-1.9h-1.9s-1.9,0-1.9,0v-11.6Z"/>
      <path class="st0" d="M164.4,65v-13.5s11.6,0,11.6,0h11.6s0,1.9,0,1.9v1.9h1.9s1.9,0,1.9,0v5.8s0,5.8,0,5.8h-1.9s-1.9,0-1.9,0v1.9s0,1.9,0,1.9h-7.7s-7.7,0-7.7,0v3.9s0,3.9,0,3.9h-3.9s-3.9,0-3.9,0v-13.5ZM183.7,61.1v-5.8h-5.8s-5.8,0-5.8,0v5.8s0,5.8,0,5.8h5.8s5.8,0,5.8,0v-5.8Z"/>
    </g>
  </g>
</svg>