<?xml version="1.0" encoding="UTF-8"?>
<svg id="Layer_1" xmlns="http://www.w3.org/2000/svg" version="1.1" viewBox="0 0 300 130">
  <!-- Generator: Adobe Illustrator 30.0.0, SVG Export Plug-In . SVG Version: 2.1.1 Build 123)  -->
  <defs>
    <style>
      .st0 {
        fill: #ec1e27;
      }
    </style>
  </defs>
  <path class="st0" d="M211.3,46.6c.9-3.6.8-7.5.1-11.1-.2-1.2-.5-2.2-.9-3.4-.2-.6-.8-.9-1.2-.6-.5.2-.7.9-.5,1.5.8,3.9.7,8.2-.6,11.9-.9,2.6,2.1,4.4,3.1,1.8Z"/>
  <path class="st0" d="M230.2,59.9c-.6-.3-1.3,0-1.6.7h0c-.9,2.4-2.4,4.5-4.3,6.1.8-1.8,1.1-3.9.8-5.9,0-.5-.3-1.3-.4-1.8-1.4-5.3-1.6-11-1.2-16.4,0-2.6-3.5-3.3-4.6-1-1,2.3-1.9,4.5-3,6.7-1.5,3.2-3.4,6.2-5.6,8.9-.7.9-1.2,1.5-1.8,2.2,0-2,.5-4.1,1.3-6,0,0,0-.2,0-.2.4-1.2-.3-2.6-1.5-3-1.2-.4-2.6.3-3,1.5-1.2,3.6-1.4,7.5-.4,11.2-.8.7-2.3,2.2-2.3,2.2-2.6,2.5-5.5,4.5-8.8,5.3-3.1.8-5.6,0-7.2-1.7,3.8-2.3,7.2-5.1,10.3-8.3,1.6-1.7,3.2-3.4,4.3-5.4,4.8-8.8-4.9-14.8-11.7-8.1-4.3,4.2-6.6,9.8-7.2,15.7-.1,1.7,0,3.3.5,4.6-1.1.7-2.3,1.3-3.5,2-3.5,1.6-6.6,2.4-7-.9-.3-2.3.9-4.8,2.1-6.9,1.5-2.6,2.9-5.3,3.9-8.1,1.2-2.9,1.7-7.7-2.6-8.2-2.8,0-4.9,1.5-6.9,3-3.1,2.7-5.8,5.7-8.3,8.9,1.4-3.1,2.8-6.1,4.2-9.2,1.2-2.6-2.6-4.5-3.9-1.9-2.1,4.3-4,8.7-5.8,13.2-.5,1.3-1,2.5-1.5,3.8-2.1,3.6-5.8,8.8-7.8,8.8-1.6,0-1.1-4.8-1-5.7.7-5.4,4.8-12.6,7-16.4h0c0,0,0-.1,0-.2,1.2-2.4-2.2-4.2-3.6-1.9-.9,1.7-1.7,3.3-2.5,5.1-.2.4-.3.8-.5,1.2-1.3,2.5-2.7,4.9-4.1,7.3-1.8,3.3-3.9,6.4-6.6,9-1.3,1.1-3.1,3.1-4.8,3-1.7,0-.8-3.6-.6-4.5,1.6-6.4,5-12.3,8.3-18,1.7-3-2.7-5.5-4.4-2.5-1.1,2.2-2.9,5.8-4.4,9.6-1.6,2.6-3.4,5.1-5.8,7.2-1.3,1.1-2.7,2-4.2,2.8.4-1.5.9-3,1.3-4.5,1.6-5.2,3.4-10.5,5.3-15.6,2.8-7.1,5.9-14.2,9.6-20.9,1-1.9,2.1-3.8,3.3-5.5.4-.5.5-1.2.2-1.8-.4-.8-1.4-1.1-2.2-.7-5,2-9.7,4.7-14.1,7.8-6.7,4.8-12.7,10.8-16.4,18.2-5.1,9.8-1.5,17.9,8.7,19.8-.4,1.2-.8,2.5-1.1,3.7-.2.8-.5,1.5-.7,2.3-6.5,2.6-13.2,4.8-19.4,8.2-8.1,4.2-15.8,9.2-22.2,15.8-3.6,3.7-5.6,9.9-1.3,14,3.8,3.5,9.6,3.4,14.3,1.9,7.7-2.6,14.9-7.1,20.2-13.3,6.2-7,9.9-15.1,12.8-23.7,1.2-.5,2.3-1.1,3.5-1.7,1.7-.9,3.6-2.2,5.1-3.5-.4,1.3-.6,3.1-.3,4.3,1.2,4.5,5.9,5.4,10,1.7,1.5-1.3,5-5.9,6.6-8.6-.4,1.1-.5,3.2-.3,4.5.6,3.1,2.8,6.1,6.2,4.6.8-.3,2.2-1.7,2.8-2.3,0,0,0,0,.1-.1,0,.2,0,.4-.1.6-.2.9.2,1.9,1.1,2.4,1,.5,2.3,0,2.8-1,.6-1.4,1.3-2.9,2.1-4.4,3.4-6.4,8.3-14.8,14.5-18.8,1.1-.6,4-2.5,3.3.3-.6,2.4-1.9,4.8-3,7-.8,1.5-1.7,3.1-2.2,4.8-1.3,3.7-1.1,9.9,3.8,10.9,4.5.9,10.4-3.5,11.4-4,2.1,2.6,5.8,3.9,10,2.9,3.8-.8,7.3-2.7,10.5-5.2,0,0,1-.9,1.5-1.3.4.7.8,1.3,1.3,1.9.9,1.1,2,2,3.3,2.7,0,0,0,0,.1,0,.2.2.5.3.8.4,0,0,0,0,.2,0,1.3.6,2.6.9,4.1.9,0,0,0,0,0,0,.8,0,1.6,0,2.4-.2,1.9-.3,3.7-1.1,5.3-2.2,3.1-2.2,5.4-5.3,6.7-8.7.2-.6,0-1.3-.7-1.6h0ZM102.7,91.2c-4.9,6.3-11.2,11.4-18.3,15-2.2,1.2-4.7,2-7.2,2-7.7-.3-8.6-6.7-3.4-11.3,1.2-1.1,2.5-2,3.8-2.9,9.3-6.6,19.3-12.5,29.9-16.6,1.1-.4,2.3-.9,3.5-1.3-2.1,5.4-4.8,10.6-8.3,15.2h0ZM115.9,60.8c-3.4-1.5-6.9-3.6-7-7.6,0-3.7,2-7.2,4-10.3,4.8-7.2,11.5-13,18.8-17.7-5.2,8.4-9.3,17.6-12.8,26.9-1.1,2.8-2.1,5.7-3,8.6h0ZM185.6,65.8c-.2-.9-.2-1.8,0-2.9.7-4.8,3.2-9.9,6.9-13.1,1.7-1.3,3.4-2.2,5.1-1.3,2.2,1.5,0,4.8-1,6.6-2.4,3.6-5.6,6.7-9.1,9.3-.6.5-1.2.9-1.9,1.4h0ZM215.9,56.8c1.3-1.7,2.5-3.6,3.5-5.5.2,1.3.4,2.6.6,3.9.3,1.6.7,3.2,1.2,4.7.4,1.2.5,2.5.3,3.8-.6,3.7-3.5,5.9-6.5,5.5-.3,0-.7-.2-1-.3-2.1-.9-3.7-2.8-4.5-5,2.1-2.1,4.8-5,6.4-7.1h0Z"/>
</svg>