<?xml version="1.0" encoding="UTF-8"?>
<svg id="Layer_1" xmlns="http://www.w3.org/2000/svg" version="1.1" viewBox="0 0 300 130">
  <!-- Generator: Adobe Illustrator 30.0.0, SVG Export Plug-In . SVG Version: 2.1.1 Build 123)  -->
  <defs>
    <style>
      .st0 {
        fill: #fff;
      }
    </style>
  </defs>
  <g id="Layer_1-2">
    <g>
      <g>
        <path class="st0" d="M95,75.9c-.9-.8-2.1-1.4-3.5-1.8-1.5-.4-3.2-.7-5.3-.7h-20.3v12.1h-3.3v5.5h3.3v8.2h7.6v-8.2h12.7c2.1,0,3.8-.2,5.3-.7,1.5-.4,2.6-1.1,3.5-1.8.9-.8,1.6-1.7,2-2.8.4-1.1.6-2.3.6-3.6s-.2-2.5-.6-3.5-1.1-2-2-2.8M89.6,83.9c-.2.4-.5.7-.9,1-.4.2-1,.4-1.7.5s-1.5.2-2.5.2h-11v-6.6h11c1,0,1.8,0,2.5.2.7,0,1.2.3,1.7.6.4.3.7.6.9,1.1.2.4.3.9.3,1.5s0,1.1-.3,1.5"/>
        <path class="st0" d="M135.3,76.3c-1.7-1.1-3.7-2-6-2.6-2.4-.6-5-.9-8-.9s-5.6.3-8,.9-4.4,1.4-6.1,2.6c-1.7,1.1-3,2.6-3.9,4.2-.9,1.7-1.3,3.7-1.3,5.9s.4,4.2,1.3,5.9c.9,1.7,2.2,3.1,3.9,4.2,1.7,1.1,3.7,2,6.1,2.6s5,.9,8,.9,5.6-.3,8-.9c2.4-.6,4.4-1.4,6-2.6,1.7-1.1,2.9-2.6,3.8-4.2.9-1.7,1.3-3.7,1.3-5.9s-.4-4.2-1.3-5.9c-.9-1.7-2.2-3.1-3.8-4.2M132.2,89.3c-.3,1-.9,1.8-1.8,2.6-.9.8-2,1.4-3.5,1.9s-3.4.7-5.7.7-2.9,0-4-.3c-1.2-.2-2.2-.5-3-.9-.9-.4-1.6-.8-2.1-1.3-.6-.5-1-1.1-1.4-1.7-.3-.6-.6-1.2-.7-1.9,0-.7-.2-1.3-.2-1.9s0-1.3.2-1.9c0-.7.4-1.3.7-1.9.3-.6.8-1.1,1.4-1.7.6-.5,1.3-1,2.1-1.4.9-.4,1.9-.7,3-.9,1.2-.2,2.5-.3,4-.3,2.3,0,4.2.2,5.7.7s2.7,1.1,3.5,1.9,1.5,1.6,1.8,2.6.5,1.9.5,2.9-.2,1.9-.5,2.9"/>
        <rect class="st0" x="147.4" y="73.4" width="7.6" height="25.8"/>
        <polygon class="st0" points="191.2 91.3 172.1 73.4 163.8 73.4 163.8 99.3 171.5 99.3 171.5 81.5 190.5 99.3 198.8 99.3 198.8 73.4 191.2 73.4 191.2 91.3"/>
        <polygon class="st0" points="203.8 79.1 215.8 79.1 215.8 99.3 223.4 99.3 223.4 79.1 235.4 79.1 235.4 73.4 203.8 73.4 203.8 79.1"/>
      </g>
      <g>
        <path class="st0" d="M57.6,44.4c-.7-.6-1.5-1.1-2.5-1.5-.9-.4-2-.8-3-1.1-1.1-.3-2.2-.6-3.3-.9s-2.2-.5-3.3-.7-2.1-.4-3-.6-1.8-.4-2.5-.6c-.7-.2-1.3-.5-1.7-.7-.4-.3-.6-.6-.6-1v-.4c0,0,.2-.3.3-.4.2,0,.4-.3.7-.4.3,0,.7-.2,1.3-.3.5,0,1.2-.2,2-.2h2.8c1.1,0,2.7,0,4,.3s2.5.4,3.6.7,2.1.6,3,.9c.9.3,1.6.6,2.1.8v-6c-.9-.3-1.9-.5-2.9-.7s-2.1-.4-3.3-.6c-1.1-.2-2.3-.3-3.4-.4-1.2-.1-2.3-.2-3.4-.2s-2.1,0-3.2.1c-1.1,0-2.2.2-3.3.4-1.1.2-2.1.5-3.1.9s-1.8.8-2.6,1.4c-.7.6-1.3,1.3-1.8,2.1-.4.8-.7,1.8-.7,3s.2,1.8.6,2.5,1,1.4,1.7,1.9c.7.5,1.5,1,2.5,1.4.9.4,2,.8,3,1.1,1.1.3,2.2.6,3.3.8s2.2.4,3.3.6c1.1.2,2.1.4,3,.6.9.2,1.8.4,2.5.6.7.2,1.3.5,1.7.8s.6.7.6,1.1,0,.5-.3.8-.6.6-1.2.8c-.6.2-1.4.4-2.4.6-1,.2-2.3.2-4,.2-2.7,0-5.3-.3-7.7-.8s-4.5-1.3-6.4-2.2v6.2c1.8.6,3.9,1.1,6.3,1.6,2.4.4,5,.6,7.7.6h3.4c1.2,0,2.4-.2,3.5-.4,1.2-.2,2.3-.5,3.3-.9,1.1-.4,2-.9,2.8-1.5s1.4-1.4,1.9-2.2c.5-.9.7-2,.7-3.2s-.2-1.8-.6-2.6c-.4-.7-1-1.4-1.7-2"/>
        <path class="st0" d="M149.9,33.5c-1.7-1.1-3.7-2-6-2.6-2.4-.6-5-.9-8-.9s-5.6.3-8,.9c-2.4.6-4.4,1.4-6.1,2.6-1.7,1.1-3,2.6-3.9,4.2-.9,1.7-1.3,3.7-1.3,5.9s.4,4.2,1.3,5.9,2.2,3.1,3.9,4.2c1.7,1.1,3.7,2,6.1,2.6,2.4.6,5,.9,8,.9s5.6-.3,8-.9c2.4-.6,4.4-1.4,6-2.6,1.7-1.1,2.9-2.6,3.8-4.2.9-1.7,1.3-3.7,1.3-5.9s-.4-4.2-1.3-5.9c-.9-1.7-2.2-3.1-3.8-4.2M146.9,46.5c-.3,1-.9,1.8-1.8,2.6-.9.8-2,1.4-3.5,1.9s-3.4.7-5.7.7-2.9,0-4-.3c-1.2-.2-2.2-.5-3-.9-.9-.4-1.6-.8-2.1-1.3-.6-.5-1-1.1-1.4-1.7-.3-.6-.6-1.2-.7-1.9s-.2-1.3-.2-1.9,0-1.3.2-1.9c0-.7.4-1.3.7-1.9.3-.6.8-1.1,1.4-1.7.6-.5,1.3-1,2.1-1.4.9-.4,1.9-.7,3-.9,1.2-.2,2.5-.3,4-.3,2.3,0,4.2.2,5.7.7s2.7,1.1,3.5,1.9,1.5,1.6,1.8,2.6.5,1.9.5,2.9-.2,1.9-.5,2.9"/>
        <polygon class="st0" points="168.8 45.8 184.8 56.6 195.9 56.6 175.7 43.1 194.7 30.7 184.5 30.7 168.8 40.6 168.8 30.7 161.2 30.7 161.2 56.6 168.8 56.6 168.8 45.8"/>
        <polygon class="st0" points="229.2 51.1 208.2 51.1 208.2 46 227.9 46 227.9 40.5 208.2 40.5 208.2 36.2 229 36.2 229 30.7 200.4 30.7 200.4 56.6 229.2 56.6 229.2 51.1"/>
        <polygon class="st0" points="259.4 30.7 250.5 41.1 241.6 30.7 233 30.7 246.7 46 246.7 56.6 254.3 56.6 254.3 46 268 30.7 259.4 30.7"/>
        <polygon class="st0" points="100.3 30.7 88.8 50.3 77.5 30.7 62.6 30.7 62.6 36.2 67.1 36.2 67.1 56.6 74.7 56.6 74.7 38.4 85.2 56.6 92.5 56.6 103 38.4 103 56.6 110.6 56.6 110.6 30.7 100.3 30.7"/>
      </g>
    </g>
  </g>
</svg>