<?xml version="1.0" encoding="UTF-8"?>
<svg id="Layer_1" xmlns="http://www.w3.org/2000/svg" version="1.1" xmlns:xlink="http://www.w3.org/1999/xlink" viewBox="0 0 300 130">
  <!-- Generator: Adobe Illustrator 30.0.0, SVG Export Plug-In . SVG Version: 2.1.1 Build 123)  -->
  <defs>
    <style>
      .st0 {
        fill: url(#linear-gradient);
        stroke: #fff;
        stroke-miterlimit: 10;
        stroke-width: 1.6px;
      }

      .st1 {
        fill: #80bf43;
      }

      .st2 {
        fill: #172339;
      }

      .st3 {
        fill: #fff;
      }

      .st4 {
        fill: #f1ece1;
      }

      .st5 {
        fill: #ee3749;
      }
    </style>
    <linearGradient id="linear-gradient" x1="151" y1="7.7" x2="151" y2="73.9" gradientUnits="userSpaceOnUse">
      <stop offset="0" stop-color="#f5bc20"/>
      <stop offset=".3" stop-color="#ec6e3a"/>
      <stop offset=".7" stop-color="#e9404c"/>
      <stop offset="1" stop-color="#e5405e"/>
    </linearGradient>
  </defs>
  <g>
    <path class="st3" d="M154.5,7.7c10.1,0,22.9,8.7,26.5,20.2,1,1.3,2.9,1.5,4,3.7s.1,1.8,1.1,1.2c1.4-3.8,12.4-2.1,8.4,1.9-.2.1-3.4,1.4-2.7,1.9,2.9.7,6.2,3.8,6,7.1-.3,4.2-4.2-.1-5.2.9.5,2,.2,9.5-3.4,8-.6-.4-1.3-3.9-2.1-3,1.2,17.5-14.2,29.9-5.8,25.7,4.8-.6,8.3,2.1,8.3,7.1-.3,3.2-2.3,4.7.9,6.5,2.7,3.7-.6,8.4-3.6,10.8-2.2,1.3-3.7,1.8-3.5,4.4-1.1,3.4-7.5,2.7-10.3,3.1-3.9.6-10.6,2.8-14.2,4.5-6.6,3.8-22.7,15.1-21.1-.8-12.7,14.1-30.3-.9-22.1-16.7-18-1.5-14.4-21-.2-25.6-5.7-4.8-7.4-11.9-1.8-18.3-.3-4-.2-10.1,1.5-14.1-1.3,0-1.3,1.6-2.1,2.1-1.7.2-1.7,1.5-2.5,2.7-5.7,2.3-3-10.2-.6-12-1.2.2-3.4,1.4-4.8.8-1.3.2-2.8,2.2-4.7.7.2-5.8,6.9-10.9,12.7-9.7-1.2-1.5-2.2-2.6-3.9-3.4-5.1-4.5,7.6-6.8,12.1.4,2.8-5,7.5-7.5,13-5.3,3.6-2.6,8.5-4.2,13-4.7M171.9,17.2c-10.3-10.8-30.7-11.1-40.8,0h15.3c3.6-2.5,9.1-3.7,13.4-1.7,2.2,2.4,9.4,1.6,12.1,1.7ZM127.1,21.7c-5.1,3.7.4-2.2,1.7-3.6l-1-.2c.9-.7,2.1-.9,2.4-2.1,2.7-1.5,3.9-2.9-.3-2.2-3.6-2-8.5,5.6-8.8,8.9-.8-5.1-6.8-10.8-11.7-6.8,0,.3,3.7,1.4,4.5,2.2s-.8,0-.8.7c.9,1.2,3.3,1.3,2.9,3.1.2.4,2.5,2.1,2.1,2.5-5.2-4.2-16-1.5-15.8,5.5.3,0,4.9-3.2,4.6-2.4s-1.1,1.2-.1,1.1,2.8-1.4,4-1.5-.3.9.5,1,3.6-1.3,4.9-.7c.1.7-.2.4-.6.5-2.3.5-7.8,4-6.1,6.3-.7,1.1-1.4,4.7-.1,5.9,1,.2,1.9-5.7,3.1-3,1.2-5,1.3.1,2.7-4.5.5-.1,0,1,.6.7s2.5-3.2,2.9-2.7c-2.1,5.6-5.1,13.7-3.5,20-6.1,7.1-3.9,15,4.8,18.6-15.9.6-22.2,24.6-2.4,23.7-5.8,12.3,1.7,31.3,18.2,18.2.5-.4,2.5-2.7,2.7-2.7.7.8,2.6.6,2,1.7-2.9,2.7-1.7,7.5,2.5,7.9,3.6.5,8.4-3.7,11.6-5.4,8.2-5.1,18.4-5.7,27.2-8.2,1.4-1.6-.3-3.4-.1-3.5,5.3-.2,13.5-11.6,4.5-12.2,6.6-8.8-3.5-16.6-10.3-8.2-.5.2-.3-.3-.4-.6-.1-.5-.5-1.6-.4-2,8.4-8.7,12.4-22.5,10.2-34.5l1.6,2.5c.5-2.2.7,1.6,1.1,2s.4-.6.7-.5c-.4,1.4.5,1.4.8,2.1s.4,3.6,1.3,1.4c.9-1.5-.4-3.2.8-3.8,0-2-2.2-4-3.7-5.1,1-.4,2.7,1.3,3.1,0,.6.1,1.6,1.6,2.5,1.5s0-.7.7-.4c6,5.4.4-7.7-6.7-4.6l1.7-1.4-.5-.4c3.9-1.1.3-1.2,2.8-1.8.2-1.2,3.8-.6,2-1.9-1.3-.8-3-.1-3.1-.2-.1-2-4.7,2.5-5,3.8-.9,1.4-.5-.2-.5-.6-.8-7.9-9.2-7.6-15.3-7.1.4,2.1-.5,4.6,1.7,5.6,1,1.2.3,2.5,2.5,2.1-.4,1-.7.5-1.5,1.1-3.3,5,3.7,1.5,6.2,2.8-3.6,1.5-9.3-1.4-9.2,4.7.2.2,5.2-.5,4.5.5-4.7-.6-5.7.6-6.3,5.2,4.3-3.5,11.4-3,14.3,1.5.8-2.5-.4-6.8,1.7-8.7.6,4.1-.7,8.4-1.2,12.4-2.2-8.5-11.9-7.6-17.2-2.5,1-3,1.7-6.1,2.8-9,1.2-3.1,6-9.4.7-10.1,1.9-22.1-26.4-24.2-28.9-3-2.9.4-2.8,3.8-1.2,5.6,1.8,8.8-3.4-1.7-15.9,7.5-8.9,9.9-2.3-10.5-1.6-14.1,1.3.1-1.1,5.6-1,6.2,1.4.3,4.7-.7,5.2.5-4.3.6-5.4-1.6-5.7,3.2,6.2.6,11.7-1.1,17.7-1,0,0,0-2.2,0-2.2-3.5,0-7,0-10.5,0-.8-1,6.3-.5,6.5-.7.3.4.7,0,.7,0,.6,0,1.9.7,2.4,0-1.6-5,2.3-4.5,2.1-7.7-1.1-.2-8.9.6-9.5-.7,15.1.9,7.3-1.3,16.4-10h-14.8c-.7,0-2.8,3.4-3.4,4ZM179.1,27.6c-3.5-9.1-6-10.6-15.4-10,8.9,10,0,10.7,15.4,10ZM126.9,40.6c-4,.5-9.1-1.8-7.5,4.7l7.5-4.7Z"/>
    <circle class="st0" cx="151" cy="40.8" r="33.1"/>
    <rect class="st3" x="131.8" y="14.9" width="39.6" height=".9"/>
    <rect class="st4" x="126.4" y="61.5" width="50.3" height="1.5"/>
    <rect class="st3" x="122.7" y="26.9" width="57.7" height=".9"/>
    <rect class="st4" x="122.7" y="54.7" width="57.7" height="1.5"/>
    <rect class="st3" x="118.6" y="41.4" width="66" height=".9"/>
    <circle class="st5" cx="154.3" cy="30.9" r="15.1"/>
    <path class="st2" d="M179.9,29.4c5.6.7,4.3,8.8,5.4,6.8.3-1.3,4.9-5.8,5-3.8.1,0,1.8-.6,3.1.2,1.8,1.4-1.8.8-2,1.9-2.5.6,1,.7-2.8,1.8l.5.4-1.7,1.4c7.1-3.1,12.7,10,6.7,4.6-.7-.3-.5.4-.7.4-.8.1-1.9-1.4-2.5-1.5-.4,1.3-2.1-.4-3.1,0,1.5,1.1,3.7,3.1,3.7,5.1-1.2.6,0,2.3-.8,3.8-1,2.2-1.1-.8-1.3-1.4s-1.2-.7-.8-2.1c-.3-.1-.2,1-.7.5s-.6-4.2-1.1-2l-1.6-2.5c2.2,12-1.7,25.8-10.2,34.5,0,.3.3,1.5.4,2s-.1.8.4.6c6.8-8.4,17-.6,10.3,8.2,9,.6.8,12-4.5,12.2-.1.1,1.5,1.9.1,3.5-8.8,2.4-19,3-27.2,8.2-3.2,1.7-8,5.9-11.6,5.4-4.2-.4-5.4-5.2-2.5-7.9.5-1.1-1.3-.9-2-1.7-.2,0-2.2,2.3-2.7,2.7-16.1,13.4-24.1-6.3-18.2-18.2-19.8.9-13.6-23,2.4-23.7-8.6-3.6-10.9-11.4-4.8-18.6-1.6-6.3,1.5-14.4,3.5-20-.4-.5-2.7,2.7-2.9,2.7-.6.3-.1-.9-.6-.7-1.4,4.6-1.6-.5-2.7,4.5-1.2-2.7-2.1,3.2-3.1,3-1.2-1.2-.6-4.7.1-5.9-1.7-2.4,3.8-5.8,6.1-6.3.4-.1.7.2.6-.5-1.2-.6-4.1.8-4.9.7s.3-1.1-.5-1c-1.2.1-2.8,1.5-4,1.5s0-.8.1-1.1c.3-.9-4.3,2.4-4.6,2.4-.2-7,10.6-9.7,15.8-5.5.4-.4-1.9-2.1-2.1-2.5.4-1.8-2-1.9-2.9-3.1,0-.8,1.5,0,.8-.7s-4.5-1.9-4.5-2.2c4.9-4,10.9,1.8,11.7,6.8.3-3.3,5.2-10.9,8.8-8.9,4.2-.7,3.1.7.3,2.2-.3,1.2-1.6,1.4-2.4,2.1l1,.2c-10.5,12,2.1-3.7,8,7.2l-4.3-.9v1.2c.1,0-3.6-.5-3.6-.5-.1.3,1.2.6.7,1s-4.7.1-4.7.9c5.1.2,9.1,3.5,9,9.1-.7,1-2.9-3-3.4-3.2l-.2,1-2.5-2.5c-.3,1.5-1.9-1.3-2.6-.7,1.4,1.8,2,3.5,1.5,6.2-.6,3.7-1-.7-2.2-.5,0,0-.5-2.5-.5-2.5-.2-.3-.3,1-.6.3-.4-.9.1-2.5-1.1-1.7-2.2-7.9-4.9,15.3-3.7,14.9,5.3-4.2,13-9.3,20.2-6.5,1-3-3.9-8.6,1-9.7,3.4,6.4,14.9,5.2,21.4,5.7,2.2-.1,7.1,0,7.5-2.7,5.3.7.5,7-.7,10.1-1.1,2.9-1.8,6.1-2.8,9,5.3-5.1,14.9-6,17.2,2.5.5-4.1,1.9-8.4,1.2-12.4-.7.8-1.8,2-2.2,2.6-1.1.1-.9,1.2-1.8,1.6-.8-2.1.7-3.7,1.4-5.2-1.4,1.2-3.5,1.6-5.1,2.6-1.1,1.1-2.3,3-2,0,.9-.4,1-1.9,1.2-2.4.4-.7,1.6-1,1.8-1.9,2.6-.3,6.1-1.2,1.2-1.7l.5-.7h-2.7c1.4-2.6-4,.9-2-2,6.3-3.7,9,2.7,7.6-1.2-2.7-3.2,1.5-.6-1.4-3.1.5-1.3-3.7-2.8,0-2.4ZM138.8,32.9c-2.8,7.2,33.1,10.4,30.2,3-7.7,4.3-23.5,2.5-30.2-3ZM160.5,41.1c-17.4.6-22.4-8.4-20.2.5,2.7,4,2.2,8.7-.2,12.7,3.2-.9,7.4-2,9.8.7,3.5-3.4,10.7-5.6,12.5.8l5.5-15.2c.2-.8-1-.3-1.3-.2-1.8.3-4.3.2-6,.7ZM121.9,71.7c-16-5.2-21,24.3-1.9,17.6,3.8-5.7,12.2-8.8,14.8-15.3,4.3-12.9-22-12.7-8.6-24,1.5-1.3,9.7-6.6,7.9-1.1-.6,2-5.1,5-4.7,6.9,5.1,8,16.4-12.3,7.2-13.9-8-1.8-24,9.2-22.7,18,4.8,9.9,27.8,10.8,4.5,22.7-4.4.1-2.6-4-.5-6s4.9-3.2,3.9-4.8ZM135.5,78.4c.6.2,2.9,0,3.7,0s1.6,1.4,2.2.5c1.7-5,3.4-12.4,7.2-16.7,10.7-9.8-5.6,12.6.8,14.6,3.2,2.3,7.2-1.3,9.3-3.6,1.8-3.4,1.8.2,3.6,1.6,9.5,7.9,22.1-12.9,16.8-21.5-9.9-9.4-17.3,8.3-20.7,15.3-10.7,10.6,12.7-24.3-6-13.7-.9.4-5.2,5-4.7,3.3,1.8-4.2-4-4.6-5.9-1.9-3,4.8-5.5,16.4-6.3,22ZM177.1,91.1c3.8,0,8.2-3.5,8.7-7.4.9-13.4-13.2.1-12.9,6.3,0,.7.3,2.1.1,2.4-1.4,1.7-4.2,4.6-3.3,0,3.4-7.5,7.4-21.1-5.2-10.1-.1-1.5,1-2.8-1.2-2.7s-3.3.6-3.6,1.8c-1,6.3-4.8,13.3-5.7,19.5-.3,2.1,2.6,1.4,3.8.8,2-1.1,3.2-8.4,4.2-10.8.3-1.7,6.1-10.8,6.7-6.5-1.3,4.1-8.4,18.8,1.6,14.3,3.8-2.8,2.2-5.5,5.4-1.1,3.2,3.5,17.3-5,10.7-7-2.2,2.1-8.6,6.6-9.2.6ZM137.5,83.5c2.3,2.3-6.3,7.4-1.9,8.3s10.5-12.4.6-11.6c-10.4.8-20.8,15.9-18.7,25.9,2.5,11.8,18.6,4.7,21.7-3.3,9.2,14.4,25.5-24.5,10-20.4-11.5,3.8-7.5,20.2-19,24-14.6,2.5-1.3-25.5,7.4-23ZM170.9,100.6c-4,.3-38.7,8.2-27,14.3,10-7.6,22.8-12.4,35.5-12.8,3.3-2.1-7.6-1.6-8.5-1.6Z"/>
    <path class="st3" d="M135.5,78.4c.8-5.6,3.3-17.3,6.3-22,1.9-2.7,7.7-2.2,5.9,1.9-.5,1.7,3.8-2.8,4.7-3.3,18.7-10.6-4.7,24.3,6,13.7,3.3-7.1,10.8-24.7,20.7-15.3,6.4,10-11.2,33.4-18.9,18.4-2.5,1.7-6.6,8.1-10.8,5-6.4-2.1,9.9-24.4-.8-14.6-3.8,4.2-5.5,11.7-7.2,16.7-.6.9-1.9-.5-2.2-.5-.9,0-3.1.2-3.7,0ZM173.1,55.5c-4,.5-11.6,18.3-3,14.4,2.4-2.3,9-13.2,3-14.4Z"/>
    <path class="st3" d="M121.9,71.7c1,1.6-3,3.9-3.9,4.8-2.1,2-3.9,6.1.5,6,23.1-11.6.5-12.8-4.5-22.6-1.3-8.8,14.7-19.8,22.7-18,9.2,1.6-2.1,22-7.2,13.9-.3-1.8,4.1-4.9,4.7-6.9,1.8-5.5-6.4-.2-7.9,1.1-13.4,11.3,12.9,11.1,8.6,24-2.6,6.5-11.1,9.6-14.8,15.3-19.1,6.7-14.1-22.8,1.9-17.6Z"/>
    <path class="st1" d="M137.5,83.5c-8.7-2.5-21.9,25.5-7.4,23,11.5-3.9,7.6-20.2,19-24,15.5-4.1-.8,34.8-10,20.4-3,7.9-19.1,15-21.7,3.3-2.2-10,8.3-25.1,18.7-25.9,9.9-.8,4,12.5-.6,11.6s4.3-6,1.9-8.3ZM149.7,85.4c-3,1-10.5,15.3-4.4,15.5,3.1-1.3,10.1-14.6,4.4-15.5Z"/>
    <path class="st1" d="M177.1,91.1c.6,6,7,1.5,9.2-.6,6.6,2-7.5,10.5-10.7,7-3.2-4.4-1.6-1.7-5.4,1.1-10,4.5-2.9-10.2-1.6-14.3-.6-4.3-6.4,4.8-6.7,6.5-.9,2.4-2.2,9.7-4.2,10.8s-4,1.3-3.8-.8c.9-6.2,4.7-13.2,5.7-19.5.4-1.2,2.5-1.8,3.6-1.8,2.2,0,1.1,1.2,1.2,2.7,12.6-10.9,8.6,2.7,5.2,10.1-.9,4.7,1.9,1.7,3.3,0,.1-.3-.2-1.7-.1-2.4-.3-6.1,13.8-19.6,12.9-6.3-.5,3.9-4.9,7.4-8.7,7.4ZM177.1,88.6c1.1,1,6.9-3.7,6.2-6.8-1.5-3.6-6.3,5.2-6.2,6.8Z"/>
    <path class="st3" d="M166.4,40.3c5.2-2.9-4.8,15.4-4.1,15.4-1.8-6.4-9-4.2-12.5-.8-2.4-2.7-6.6-1.7-9.8-.7,2.4-4.1,1.3-8,.2-12.7-.1-.5-.6-2.9-.5-3.2,0-.2.1-.6.4-.7s1-.1,1.3,0c7.7,2.9,13,3.8,19,3.3"/>
    <path class="st1" d="M170.9,100.6c1,0,11.8-.5,8.5,1.6-12.7.4-25.6,5.2-35.5,12.8-11.6-6.1,23-14.1,27-14.3Z"/>
    <path class="st3" d="M138.8,32.9c6.8,5.5,22.6,7.3,30.2,3,2.9,7.4-33,4.2-30.2-3Z"/>
    <path class="st2" d="M173.1,55.5c5.9,1.2-.6,12.1-3,14.4-8.5,3.9-1-13.9,3-14.4Z"/>
    <path class="st2" d="M149.7,85.4c5.7.9-1.3,14.2-4.4,15.5-6.1-.2,1.5-14.5,4.4-15.5Z"/>
    <path class="st2" d="M177.1,88.6c-.1-1.6,4.6-10.4,6.2-6.8.7,3.1-5.1,7.8-6.2,6.8Z"/>
  </g>
  <g>
    <circle class="st4" cx="147.6" cy="23.6" r="1.1"/>
    <circle class="st4" cx="154.3" cy="17.7" r="1.1"/>
    <circle class="st4" cx="165.1" cy="32.2" r=".7"/>
    <circle class="st4" cx="145.3" cy="30.8" r=".7"/>
    <circle class="st4" cx="157.4" cy="35.3" r=".7"/>
    <circle class="st4" cx="159.6" cy="29.7" r=".3"/>
    <circle class="st4" cx="141.4" cy="26.7" r=".3"/>
    <circle class="st4" cx="153" cy="31.5" r=".7"/>
    <circle class="st4" cx="153.7" cy="20.2" r=".2"/>
    <circle class="st4" cx="166.1" cy="27.2" r=".2"/>
    <circle class="st4" cx="147.8" cy="18.7" r=".2"/>
    <circle class="st4" cx="162.4" cy="34.7" r=".2"/>
    <circle class="st4" cx="150.8" cy="27.5" r=".2"/>
    <circle class="st4" cx="148.4" cy="34.3" r=".2"/>
    <circle class="st4" cx="162.6" cy="23.4" r="1.3"/>
    <circle class="st4" cx="156.1" cy="26.1" r=".6"/>
    <circle class="st4" cx="159.4" cy="19.4" r=".6"/>
  </g>
</svg>