<?xml version="1.0" encoding="UTF-8"?>
<svg id="Layer_1" xmlns="http://www.w3.org/2000/svg" version="1.1" viewBox="0 0 300 130">
  <!-- Generator: Adobe Illustrator 30.0.0, SVG Export Plug-In . SVG Version: 2.1.1 Build 123)  -->
  <defs>
    <style>
      .st0 {
        fill: #c1272d;
      }
    </style>
  </defs>
  <path class="st0" d="M28.1,54.9h-10.1v-7.3h28.9v7.3h-10.2v27.4h-8.6v-27.4Z"/>
  <path class="st0" d="M50.5,47.6h8.6v13.1h12.2v-13.1h8.6v34.7h-8.6v-14.5h-12.2v14.5h-8.6v-34.7Z"/>
  <path class="st0" d="M85.1,47.6h26.3v7.1h-17.7v6.2h15.2v6.7h-15.2v7.4h18v7.3h-26.6v-34.7Z"/>
  <path class="st0" d="M124.1,47.6h16.7c3.6,0,6.3.9,8.1,2.4,2,1.6,3,3.9,3,6.6s-1.8,5.6-4.9,6.8h0c3.8,1.3,6.2,4.5,6.2,8.6s-1.3,6-3.5,7.8c-2,1.6-4.9,2.5-8.5,2.5h-17.1v-34.7ZM139.6,61.3c2.5,0,4.2-1.2,4.2-3.5s-1.6-3.4-4.1-3.4h-7v6.9h7ZM140.2,75.4c2.8,0,4.6-1.6,4.6-4.1s-2-4.2-4.7-4.2h-7.6v8.2h7.7Z"/>
  <path class="st0" d="M166.7,47.6h8.8l12.5,34.7h-9l-2-6.3h-12.1l-2,6.3h-8.6l12.5-34.7ZM175,69.9l-2.6-8.4c-.6-1.8-1.4-4.9-1.4-4.9h0s-.8,3.1-1.4,4.9l-2.7,8.4h8.2Z"/>
  <path class="st0" d="M195.1,54.9h-10.1v-7.3h28.9v7.3h-10.2v27.4h-8.6v-27.4Z"/>
  <path class="st0" d="M214.7,65.1c0-10.3,6.7-18.1,17.1-18.1s7.4,1.2,9.9,3.1c3,2.3,4.8,5.7,5.2,9.6h-8.6c-.4-3.1-2.9-5.5-6.5-5.5-5.6,0-8.3,4.7-8.3,11s3.2,11,8.3,11,6.4-2.4,6.7-5.8h8.6c-.2,3.4-1.8,6.6-4.2,8.9-2.7,2.6-6.2,3.9-11.1,3.9-10.2,0-17.1-7.6-17.1-18Z"/>
  <path class="st0" d="M250.6,47.6h8.6v13.1h12.2v-13.1h8.6v34.7h-8.6v-14.5h-12.2v14.5h-8.6v-34.7Z"/>
</svg>