<?xml version="1.0" encoding="UTF-8"?>
<svg id="Layer_1" xmlns="http://www.w3.org/2000/svg" version="1.1" xmlns:xlink="http://www.w3.org/1999/xlink" viewBox="0 0 300 130">
  <!-- Generator: Adobe Illustrator 30.0.0, SVG Export Plug-In . SVG Version: 2.1.1 Build 123)  -->
  <defs>
    <style>
      .st0 {
        fill: url(#linear-gradient);
      }
    </style>
    <linearGradient id="linear-gradient" x1="27" y1="65" x2="271" y2="65" gradientUnits="userSpaceOnUse">
      <stop offset="0" stop-color="#f05a28"/>
      <stop offset="1" stop-color="#652d90"/>
    </linearGradient>
  </defs>
  <path class="st0" d="M92.3,47.8c-11.8,0-20,6.7-20,20.3v28.5s6.5,0,6.5,0v-28.5c0-9.9,5.4-14.4,13.6-14.4,8.2,0,13.6,4.4,13.6,14.4v.7h6.4v-.6c0-13.8-8.1-20.4-19.9-20.4ZM57.9,79.1c0,8.8-4.9,12.8-12.2,12.8s-12.2-4.1-12.2-12.8v-24.2s28,0,28,0v-5.9s-28,0-28,0v-16.8s-6.5,0-6.5,0v46.9c0,12.5,7.6,18.8,18.7,18.8,11.1,0,18.5-6.3,18.5-18.8v-1.1h-6.3s0,1.1,0,1.1ZM167.7,72.8v2.1s-44.4,0-44.4,0c.9,9.9,8.3,16.9,19,16.9,7.5,0,13.3-3.1,16.4-8.6h7c-3.7,8.8-12.3,14.5-23.4,14.5-15,0-25.6-10.6-25.6-25,0-14.4,10.6-25,25.6-25s25.4,10.6,25.4,25h0ZM160.9,69.1c-1.5-9.6-9.1-15.4-18.7-15.4s-17.3,6.1-18.8,15.4h37.5s0,0,0,0ZM264.7,78v1.1c0,8.8-4.9,12.8-12.2,12.8s-12.2-4.1-12.2-12.8v-24.2s28,0,28,0v-5.9s-28,0-28,0v-16.8s-6.5,0-6.5,0v46.9c0,12.5,7.6,18.8,18.7,18.8,11.1,0,18.5-6.3,18.5-18.8v-1.1h-6.3s0,0,0,0ZM224.4,73.1v23.5s-6,0-6,0v-11.7c-3.4,8.5-11.3,13-20.5,13-13.4,0-24.7-9.5-24.7-24.8s10.6-25.3,25.6-25.3c15,0,25.5,10.3,25.5,25.3h0ZM217.9,72.8c0-11-7.7-19.1-19.1-19.1-11.4,0-19.1,8.1-19.1,19.1,0,11,7.7,19.1,19.1,19.1s19.1-8.1,19.1-19.1Z"/>
</svg>