<?xml version="1.0" encoding="UTF-8"?>
<svg id="Layer_1" xmlns="http://www.w3.org/2000/svg" version="1.1" viewBox="0 0 32 32">
  <!-- Generator: Adobe Illustrator 30.0.0, SVG Export Plug-In . SVG Version: 2.1.1 Build 123)  -->
  <defs>
    <style>
      .st0 {
        fill: #fff;
      }

      .st1 {
        fill: #fec708;
      }

      .st2 {
        fill: none;
        stroke: #fff;
        stroke-miterlimit: 10;
        stroke-width: .4px;
      }
    </style>
  </defs>
  <path class="st0" d="M16.3,14.9c.1.1.4.9.6,1.2.3.6.7,1.2,1,1.8.2.4,1.4,1.8,1.4,2,.2.6-.1,2.5-.3,3.2-.6,2.3-2.3,4.1-4.1,2.9-1.4-.9-2-3.2-2.1-5.2,0-.5,0-1,.3-1.4.7-1.1,1.4-2.1,2-3.2.2-.4.7-1.9,1.1-1.4h0Z"/>
  <path class="st1" d="M18.6,21.5c.1.4-.1,1.2-.2,1.7-.4,1.8-1.7,3.2-3.1,2.2-1.1-.7-1.5-2.4-1.6-4"/>
  <path class="st2" d="M14.5,14c.2,0,.4.1.3.3-1,1.7-4.3,6.6-7.6,6.2-4-.5,2-4.3,6.3-6.1l1.1-.5h0Z"/>
  <path class="st0" d="M15.1,9c.4-.3,1.6,0,1.9,0,.2,0,.5-.8.7-1,.3-.4.9-1,1.4-1.2.2-.1.9-.3,1-.4.1-.1,0-.4.4-.7,1-.5,1.8.8,1,1.4-.4.4-.9,0-1.3,0-.6.1-2.1,1.3-2.2,2,0,.3.8.9,1,1.2.2.3.6,1.3.4,1.6,0,0-1.7.5-1.9.6-.3.1-1,.7-1.2.7-.4,0-.8-.4-1.1-.6-.3-.1-2.1-.7-2.2-.8-.1-.2.3-1.3.5-1.6.3-.5.7-.7,1-1.2-.3-.6-1.6-2-2.2-2.1-.3,0-.6.2-1,0-1.1-.3-.5-2.2.7-1.6.3.2.3.4.5.6s.6.2.8.4c.9.5,1.7,1.3,2.1,2.3h0Z"/>
  <path class="st2" d="M17.6,14c-.2,0-.4.1-.3.3,1,1.7,4.3,6.6,7.6,6.2,4-.5-2-4.3-6.3-6.1l-1.1-.5h0Z"/>
  <path class="st2" d="M14.4,13.8c.2,0,.3.3,0,.4-2.4,1.2-10.7,6.5-13,2.2-1.3-2.5,7.4-3.9,11.8-3l1.1.4Z"/>
  <path class="st2" d="M17.7,13.8c-.2,0-.3.3,0,.4,2.4,1.2,10.7,6.5,13,2.2,1.3-2.5-7.4-3.9-11.8-3l-1.1.4Z"/>
</svg>