<?xml version="1.0" encoding="UTF-8"?>
<svg id="Layer_1" xmlns="http://www.w3.org/2000/svg" version="1.1" viewBox="0 0 160 160">
  <!-- Generator: Adobe Illustrator 30.0.0, SVG Export Plug-In . SVG Version: 2.1.1 Build 123)  -->
  <defs>
    <style>
      .st0 {
        fill: none;
        stroke: #e6e6e6;
        stroke-miterlimit: 10;
        stroke-width: 6.7px;
      }

      .st1 {
        fill: #fec708;
      }

      .st2 {
        fill: #e6e6e6;
      }
    </style>
  </defs>
  <path class="st2" d="M81.1,73.3c.5.6,1.9,4.3,2.6,5.5,1.5,2.8,3.1,5.7,4.8,8.4s6.3,8.2,6.7,9.5c.9,2.7-.6,11.7-1.4,14.7-2.7,10.6-10.5,19.1-19,13.5-6.4-4.3-9.1-14.7-9.8-23.9s.4-4.4,1.6-6.3c3.2-4.9,6.5-9.5,9.4-14.9,1-1.8,3.2-8.7,5.1-6.5Z"/>
  <path class="st1" d="M91.6,103.9c.7,2-.5,5.7-1.1,8-2.1,8.1-8.1,14.6-14.5,10.3-4.9-3.3-7-11.2-7.5-18.3"/>
  <path class="st0" d="M73,69.3c.9-.4,1.8.6,1.3,1.5-4.8,8-19.9,30.7-35.3,28.8-18.7-2.3,9.3-19.7,29-28.2l5-2.1Z"/>
  <path class="st2" d="M75.6,45.9c2-1.2,7.6.4,8.7-.2s2.4-3.7,3.2-4.6c1.5-1.8,4.3-4.4,6.4-5.6s4.3-1.5,4.5-1.7c.5-.5,0-2.1,1.8-3,4.6-2.4,8.2,3.6,4.7,6.6-2,1.7-4.1,0-6.1.3-3,.6-9.5,6.2-10.3,9.1s3.5,4.1,4.5,5.7,2.9,6,2,7.3-7.6,2.4-9,3-4.5,3-5.8,3-3.8-1.9-5.3-2.6-9.8-3.1-10.1-3.5c-.7-1.1,1.5-6,2.2-7.2,1.3-2.3,3.3-3.3,4.6-5.4-1.4-2.8-7.3-9.2-10.4-9.5s-2.6.8-4.5.4c-5.1-1.2-2.5-10.1,3-7.2,1.4.8,1.3,2,2.2,2.9s2.7,1,3.8,1.7c4.1,2.5,7.7,6.1,9.6,10.5Z"/>
  <path class="st0" d="M87,69.3c-.9-.4-1.8.6-1.3,1.5,4.8,8,19.9,30.7,35.3,28.8,18.7-2.3-9.3-19.7-29-28.2l-5-2.1Z"/>
  <path class="st0" d="M72.3,68.2c1,.1,1.3,1.5.4,2-11.1,5.4-49.4,30-60,10.1-6.2-11.6,34.3-17.9,54.4-13.7l5.2,1.7Z"/>
  <path class="st0" d="M87.7,68.2c-1,.1-1.3,1.5-.4,2,11.1,5.4,49.4,30,60,10.1s-34.3-17.9-54.4-13.7l-5.2,1.7Z"/>
</svg>