<?xml version="1.0" encoding="UTF-8"?>
<svg id="Layer_1" xmlns="http://www.w3.org/2000/svg" version="1.1" viewBox="0 0 260 120">
  <!-- Generator: Adobe Illustrator 30.0.0, SVG Export Plug-In . SVG Version: 2.1.1 Build 123)  -->
  <defs>
    <style>
      .st0 {
        fill: none;
      }

      .st1 {
        fill: #c1272d;
      }
    </style>
  </defs>
  <rect class="st0" y="0" width="260" height="120" rx="24" ry="24"/>
  <g>
    <path class="st1" d="M45.1,52.9h-7.1v-5.1h20.3v5.1h-7.2v19.3h-6v-19.3Z"/>
    <path class="st1" d="M60.9,47.8h6v9.2h8.6v-9.2h6v24.4h-6v-10.2h-8.6v10.2h-6v-24.4Z"/>
    <path class="st1" d="M85.1,47.8h18.5v5h-12.4v4.4h10.7v4.7h-10.7v5.2h12.6v5.1h-18.7v-24.4Z"/>
    <path class="st1" d="M112.5,47.8h11.8c2.5,0,4.4.6,5.7,1.7,1.4,1.2,2.1,2.7,2.1,4.7s-1.3,4-3.4,4.8h0c2.7.9,4.4,3.2,4.4,6.1s-.9,4.2-2.5,5.5c-1.4,1.1-3.4,1.7-6,1.7h-12v-24.4ZM123.4,57.4c1.7,0,2.9-.9,2.9-2.5s-1.1-2.4-2.9-2.4h-4.9v4.9h4.9ZM123.9,67.3c2,0,3.2-1.1,3.2-2.9s-1.4-2.9-3.3-2.9h-5.3v5.8h5.4Z"/>
    <path class="st1" d="M142.4,47.8h6.2l8.8,24.4h-6.3l-1.4-4.4h-8.5l-1.4,4.4h-6.1l8.8-24.4ZM148.2,63.4l-1.8-5.9c-.4-1.3-1-3.4-1-3.4h0s-.6,2.2-1,3.4l-1.9,5.9h5.7Z"/>
    <path class="st1" d="M162.4,52.9h-7.1v-5.1h20.3v5.1h-7.2v19.3h-6v-19.3Z"/>
    <path class="st1" d="M176.1,60.1c0-7.3,4.7-12.7,12-12.7s5.2.8,7,2.1c2.1,1.6,3.3,4,3.6,6.7h-6c-.3-2.2-2-3.8-4.6-3.8-4,0-5.8,3.3-5.8,7.7s2.2,7.7,5.9,7.7,4.5-1.7,4.7-4.1h6c-.2,2.4-1.3,4.6-2.9,6.2-1.9,1.8-4.4,2.8-7.8,2.8-7.2,0-12-5.3-12-12.6Z"/>
    <path class="st1" d="M201.4,47.8h6v9.2h8.6v-9.2h6v24.4h-6v-10.2h-8.6v10.2h-6v-24.4Z"/>
  </g>
</svg>