<?xml version="1.0" encoding="UTF-8"?>
<svg id="Layer_1" xmlns="http://www.w3.org/2000/svg" version="1.1" viewBox="0 0 240 120">
  <!-- Generator: Adobe Illustrator 30.0.0, SVG Export Plug-In . SVG Version: 2.1.1 Build 123)  -->
  <defs>
    <style>
      .st0 {
        fill: #fff;
      }

      .st1 {
        fill: none;
      }
    </style>
  </defs>
  <rect class="st1" y="0" width="240" height="120" rx="24" ry="24"/>
  <path class="st0" d="M152.7,55.3c-.4-.4-.9-.6-1.6-.8-.7-.2-1.5-.3-2.4-.3h-9.1v5.5s-1.5,0-1.5,0v2.5h1.5s0,3.7,0,3.7h3.4v-3.7s5.7,0,5.7,0c.9,0,1.7,0,2.4-.3.7-.2,1.2-.5,1.6-.8.4-.4.7-.8.9-1.3.2-.5.3-1,.3-1.6s0-1.1-.3-1.6c-.2-.5-.5-.9-.9-1.3M150.3,58.9c0,.2-.2.3-.4.5s-.4.2-.8.2c-.3,0-.7,0-1.1,0h-5s0-3,0-3h5c.5,0,.8,0,1.1,0,.3,0,.6.2.8.3.2.1.3.3.4.5,0,.2.1.4.1.7s0,.5-.1.7M170.8,55.4c-.7-.5-1.7-.9-2.7-1.2-1.1-.3-2.3-.4-3.6-.4s-2.5.1-3.6.4c-1.1.3-2,.6-2.7,1.2-.8.5-1.3,1.2-1.7,1.9-.4.8-.6,1.6-.6,2.6s.2,1.9.6,2.6c.4.8,1,1.4,1.7,1.9.8.5,1.7.9,2.7,1.2,1.1.3,2.3.4,3.6.4s2.5-.1,3.6-.4c1.1-.3,2-.6,2.7-1.2.7-.5,1.3-1.2,1.7-1.9.4-.8.6-1.6.6-2.6s-.2-1.9-.6-2.6c-.4-.8-1-1.4-1.7-1.9M169.5,61.3c-.2.4-.4.8-.8,1.2-.4.3-.9.6-1.6.8-.7.2-1.5.3-2.5.3s-1.3,0-1.8-.1c-.5,0-1-.2-1.4-.4-.4-.2-.7-.4-1-.6-.3-.2-.5-.5-.6-.8-.2-.3-.3-.5-.3-.8,0-.3,0-.6,0-.9s0-.6,0-.9c0-.3.2-.6.3-.8.2-.3.4-.5.6-.8s.6-.4,1-.6c.4-.2.8-.3,1.4-.4.5,0,1.1-.1,1.8-.1,1,0,1.9.1,2.5.3.7.2,1.2.5,1.6.8.4.3.7.7.8,1.2.2.4.2.9.2,1.3s0,.9-.2,1.3M176.3,54.2h3.4s0,11.6,0,11.6h-3.4s0-11.6,0-11.6h0ZM196.1,54.2h3.4s0,11.6,0,11.6h-3.7s-8.6-8-8.6-8v8s-3.4,0-3.4,0v-11.6s3.7,0,3.7,0l8.6,8v-8ZM201.8,54.2h14.2s0,2.5,0,2.5h-5.4v9.1s-3.4,0-3.4,0v-9.1h-5.4s0-2.5,0-2.5h0ZM36.4,60.3c.3.3.6.6.8.9.2.3.3.7.3,1.2s-.1,1-.3,1.4c-.2.4-.5.7-.9,1-.4.3-.8.5-1.3.7-.5.2-1,.3-1.5.4-.5,0-1.1.1-1.6.2-.5,0-1,0-1.5,0-1.3,0-2.4,0-3.5-.3-1.1-.2-2-.4-2.8-.7v-2.8c.8.4,1.8.8,2.9,1,1.1.2,2.2.4,3.5.4s1.3,0,1.8-.1c.5,0,.8-.2,1.1-.3.3-.1.4-.2.5-.4,0-.1.1-.3.1-.4,0-.2,0-.3-.3-.5-.2-.1-.4-.3-.8-.4-.3-.1-.7-.2-1.1-.3-.4,0-.9-.2-1.4-.3-.5,0-1-.2-1.5-.3-.5-.1-1-.2-1.5-.4-.5-.1-.9-.3-1.4-.5-.4-.2-.8-.4-1.1-.7-.3-.3-.6-.5-.8-.9-.2-.3-.3-.7-.3-1.1s0-1,.3-1.3c.2-.4.5-.7.8-1,.3-.3.7-.5,1.2-.6.4-.2.9-.3,1.4-.4.5,0,1-.2,1.5-.2.5,0,1,0,1.4,0s1,0,1.5,0c.5,0,1,.1,1.5.2.5,0,1,.2,1.5.3.5.1.9.2,1.3.3v2.7c-.2-.1-.6-.2-1-.4-.4-.1-.8-.3-1.3-.4-.5-.1-1-.2-1.6-.3-.6,0-1.2-.1-1.8-.1s-.9,0-1.3,0c-.4,0-.6,0-.9.1-.2,0-.4,0-.6.2-.1,0-.2.1-.3.2,0,0-.1.1-.1.2,0,0,0,.1,0,.2,0,.2,0,.3.3.4.2.1.4.2.8.3.3,0,.7.2,1.1.3.4,0,.9.2,1.4.3.5,0,1,.2,1.5.3.5.1,1,.2,1.5.4.5.1.9.3,1.4.5.4.2.8.4,1.1.7M78.1,55.4c-.7-.5-1.7-.9-2.7-1.2-1.1-.3-2.3-.4-3.6-.4s-2.5.1-3.6.4c-1.1.3-2,.7-2.7,1.2-.8.5-1.3,1.2-1.7,1.9-.4.8-.6,1.6-.6,2.6s.2,1.9.6,2.6c.4.8,1,1.4,1.7,1.9.8.5,1.7.9,2.7,1.2,1.1.3,2.3.4,3.6.4s2.5-.1,3.6-.4c1.1-.3,2-.6,2.7-1.2.7-.5,1.3-1.2,1.7-1.9.4-.8.6-1.6.6-2.6s-.2-1.9-.6-2.6c-.4-.8-1-1.4-1.7-1.9M76.7,61.3c-.2.4-.4.8-.8,1.2-.4.3-.9.6-1.6.8-.7.2-1.5.3-2.5.3s-1.3,0-1.8-.1c-.5,0-1-.2-1.4-.4-.4-.2-.7-.4-1-.6-.3-.2-.5-.5-.6-.8-.2-.3-.3-.5-.3-.8,0-.3,0-.6,0-.9s0-.6,0-.9c0-.3.2-.6.3-.8.2-.3.4-.5.6-.8.3-.2.6-.4,1-.6.4-.2.8-.3,1.4-.4.5,0,1.1-.1,1.8-.1,1,0,1.9.1,2.5.3.7.2,1.2.5,1.6.8.4.3.7.7.8,1.2.2.4.2.9.2,1.3s0,.9-.2,1.3M86.6,65.8h-3.5s0-11.6,0-11.6h3.5s0,4.4,0,4.4l7-4.4h4.6s-8.6,5.6-8.6,5.6l9.1,6.1h-5s-7.2-4.8-7.2-4.8v4.8ZM113.8,65.8h-13s0-11.6,0-11.6h12.9s0,2.5,0,2.5h-9.4v1.9h8.9s0,2.5,0,2.5h-8.9v2.3h9.5s0,2.5,0,2.5h0ZM131.3,54.2l-6.2,6.9v4.8s-3.4,0-3.4,0v-4.8s-6.2-6.9-6.2-6.9h3.9s4,4.7,4,4.7l4-4.7h3.9ZM60.3,54.2v11.6s-3.4,0-3.4,0v-8.2s-4.7,8.2-4.7,8.2h-3.3s-4.7-8.2-4.7-8.2v8.2s-3.4,0-3.4,0v-9.2h-2s0-2.5,0-2.5h6.7s5.1,8.8,5.1,8.8l5.1-8.8h4.6ZM60.3,54.2"/>
</svg>