<?xml version="1.0" encoding="UTF-8"?>
<svg id="Layer_1" xmlns="http://www.w3.org/2000/svg" version="1.1" viewBox="0 0 240 120">
  <!-- Generator: Adobe Illustrator 30.0.0, SVG Export Plug-In . SVG Version: 2.1.1 Build 123)  -->
  <defs>
    <style>
      .st0 {
        fill: #fff;
      }

      .st1 {
        fill: none;
      }
    </style>
  </defs>
  <rect class="st1" y="0" width="240" height="120" rx="24" ry="24"/>
  <g>
    <path class="st0" d="M26.4,48h-7.8v-5.6h22.2v5.6h-7.8v21.1h-6.6v-21.1Z"/>
    <path class="st0" d="M43.6,42.4h6.6v10.1h9.4v-10.1h6.6v26.7h-6.6v-11.1h-9.4v11.1h-6.6v-26.7Z"/>
    <path class="st0" d="M70.3,42.4h20.2v5.5h-13.6v4.8h11.7v5.2h-11.7v5.7h13.9v5.6h-20.5v-26.7Z"/>
    <path class="st0" d="M100.2,42.4h12.9c2.8,0,4.8.7,6.2,1.8,1.5,1.3,2.3,3,2.3,5.1s-1.4,4.3-3.7,5.2h0c2.9,1,4.8,3.5,4.8,6.6s-1,4.6-2.7,6c-1.6,1.2-3.8,1.9-6.6,1.9h-13.2v-26.7ZM112.2,53c1.9,0,3.2-.9,3.2-2.7s-1.2-2.7-3.2-2.7h-5.4v5.3h5.4ZM112.7,63.8c2.2,0,3.5-1.2,3.5-3.1s-1.6-3.2-3.6-3.2h-5.8v6.3h5.9Z"/>
    <path class="st0" d="M133,42.4h6.8l9.6,26.7h-6.9l-1.6-4.8h-9.3l-1.5,4.8h-6.6l9.6-26.7ZM139.4,59.6l-2-6.5c-.4-1.4-1-3.8-1-3.8h0s-.6,2.4-1.1,3.8l-2.1,6.5h6.3Z"/>
    <path class="st0" d="M154.9,48h-7.8v-5.6h22.2v5.6h-7.8v21.1h-6.6v-21.1Z"/>
    <path class="st0" d="M170,55.9c0-8,5.2-14,13.1-14s5.7.9,7.6,2.4c2.3,1.8,3.7,4.4,4,7.4h-6.6c-.3-2.4-2.2-4.2-5-4.2-4.3,0-6.4,3.6-6.4,8.5s2.5,8.4,6.4,8.4,4.9-1.9,5.2-4.4h6.6c-.2,2.7-1.4,5.1-3.2,6.8-2.1,2-4.8,3-8.6,3-7.8,0-13.2-5.9-13.2-13.9Z"/>
    <path class="st0" d="M197.7,42.4h6.6v10.1h9.4v-10.1h6.6v26.7h-6.6v-11.1h-9.4v11.1h-6.6v-26.7Z"/>
  </g>
</svg>