<?xml version="1.0" encoding="UTF-8"?>
<svg id="Layer_1" xmlns="http://www.w3.org/2000/svg" version="1.1" xmlns:xlink="http://www.w3.org/1999/xlink" viewBox="0 0 240 120">
  <!-- Generator: Adobe Illustrator 30.0.0, SVG Export Plug-In . SVG Version: 2.1.1 Build 123)  -->
  <defs>
    <style>
      .st0 {
        fill: #00badd;
      }

      .st1 {
        fill: #04bee0;
      }

      .st2 {
        fill: #006e9e;
      }

      .st3 {
        fill: #eb377b;
      }

      .st4 {
        fill: #ed3b7e;
      }

      .st5 {
        fill: #fff;
      }

      .st6 {
        opacity: .4;
      }

      .st7 {
        fill: #094871;
      }

      .st8 {
        fill: none;
      }

      .st9 {
        fill: #094770;
      }

      .st10 {
        fill: #3a6eb5;
      }

      .st11 {
        fill: #fcf9f4;
      }

      .st12 {
        fill: #02bddf;
      }

      .st13 {
        opacity: .3;
      }

      .st14 {
        fill: #fffbf8;
      }

      .st15 {
        fill: #fbf7f3;
      }

      .st16 {
        fill: #ed3c7d;
      }

      .st17 {
        fill: #11bfdd;
      }

      .st18 {
        opacity: .1;
      }

      .st19 {
        fill: #ed397d;
      }

      .st20 {
        clip-path: url(#clippath);
      }

      .st21 {
        fill: #eb387b;
      }
    </style>
    <clipPath id="clippath">
      <path class="st8" d="M140.7,63.9c-1.9,0-3.9,0-5.6.4-.3,0-.6.1-.9.4-.3.3-.4.6-.3.9,0,.1.4.3.5.4.8.3,1.5,0,2.3.1.8.1,1.6.5,1.8,1.3v.9c0,.3.4.6.6.5.4-.1.3-.9.6-1.1.3-.3.8,0,.9.3.1.3.1.8.3,1.1,0,.6-.4,1.8,0,2.3.4.8,1,0,1.1-.4.3-.4.6-.3.6.3,0,.8.3,1.5.4,1.9s.4.6.8.8c.5,0,.9-.8,1-1.3.5-1.9.6-4-.3-5.9-.9-1.8-2.9-3.1-4.9-2.8h1.1Z"/>
    </clipPath>
  </defs>
  <rect class="st8" y="0" width="240" height="120" rx="24" ry="24"/>
  <g>
    <g>
      <g>
        <path class="st9" d="M148.9,88.7c-.6-2.8-2.8-4.6-5.6-5,3-3.6,4.3-8.8,3.1-13.9-.1-.6-.4-1.4-.6-2.1-1.1-3.4-3.8-5.4-7.4-5.4s-7.5,2.1-9.5,4.3c-1.3,1.3-2.3,2.9-3,4.5-1-1.6-2.6-2.6-4.5-2.8h-.5c-2,0-4,.9-5.9,2.5-.6-.4-1.4-.5-2.3-.5h-1c-.4,0-2.5.5-4.5,1.4-.3-1.6-1.1-3.1-2.5-4.1s-3.1-1.5-5.1-1.5-.3,0-.4,0c-2.8,0-5.6,1.1-7.9,3-1.9,1.4-3.1,3.5-3.6,5.9-.8,3.5,0,6.9,2.4,8.9-.6,0-1.3.4-1.8.8-.6.5-1,1.1-1.3,1.6-.9,2.1-1,4.3-.5,6.3.5,1.8,1.5,3,2.9,3.9-3.1,4.4-4,10.6-1.8,15.1,1.6,3,4.4,4.8,7.6,4.8s.4,0,.6,0c1.8,0,3.8-.8,5.3-1.6,1.3-.8,2.1-1.6,2.6-2.6,1.1.8,2.6,1.1,4.1,1.1s2.4-.3,3.5-.6c1.8-.6,3.1-1.8,4.1-3,.1.3.4.4.6.6.6.4,1.3.6,2,.6,1.6,0,4.5-.9,4.5-.9.8-.3,2.3-.8,3-2.1.8.5,1.9.9,3.3.9s2.4-.3,3.5-.6c.9-.4,2-.9,2.6-1.8,1.1.5,2.3.9,3.6.9h0c4.5,0,9.5-3.5,9.6-8.6,0-.6,0-2-.9-3.1,1-2,1.5-4.3,1-6.4l.4-.3Z"/>
        <g>
          <path class="st12" d="M103.2,69.6c.8.5,1.4,1.4,1.4,2.5s-.1,1.6-.5,2.5c0,.3-.3.5-.4.8-.5.5-1.3-.1-1.8-.5-.6-.5-1.4-1-2.1-1.1-1.8-.3-3,1.4-2,3,.9,1.3,2.4,1.8,3.8,2.4,2.6,1.3,4.5,3.9,4.4,6.9-.1,2.8-2,4.9-4.4,6-2,.9-4.1,1.6-6.3,2-2.4.5-4.8-.3-5.5-2.8-.4-1.4-.3-2.9.4-4.1,0-.1.1-.4.3-.5.6-.5,1.3.9,1.6,1.1.6.5,1.3,1,2,1.4,1.5.6,3.3.6,4.3-.8,2.4-3.1-4.3-5.5-6-6.9-1.8-1.5-2-4-1.5-6.1.4-1.6,1.3-3.1,2.6-4.1,1.8-1.4,3.9-2.3,6.1-2.4s2.6.3,3.6.9h0Z"/>
          <path class="st0" d="M123.9,72.9c.4,1,.5,2.3.5,3.3,0,1.6-.4,3.3-.4,4.9s.3,2.3,1.3,3.1c0,0,.1.1.3.1.3,0,.6,0,.8.3.6.9-1.3,2.1-1.9,2.5-1.4.9-4,2.3-5.5,1-.4-.4-.6-.8-.8-1.3-.5-2.9.5-5.8.3-8.8,0-.9-.6-1.8-1.6-1.5-2.4.6-2.8,4.5-2.8,6.5v3.4c0,.8.3,1.5.3,2.3s-.1.9-.5,1.1c-.4.3-.9.4-1.3.5-1.3.1-2.4.5-3.6.8h-.5c-1.1-.3-.4-2.6-.3-3.3.3-1.6.3-3.3.4-4.9.1-1.8.6-3.9-.1-5.5s-.5-.9-1-1.1c-.3,0-.5-.1-.6-.3-1-.9,5.5-2.8,6.1-2.9.6,0,1.4,0,1.8.6.4.5.3,1.3.5,1.8s.9-1,1-1.1c1.3-1.6,3.3-3.5,5.6-3.4,1.3,0,2.1.9,2.5,2h-.4Z"/>
          <path class="st0" d="M143.1,68.1c-1.8-5.5-8.9-3-11.9,0-1.8,1.9-3,4.3-3.5,6.9-.3,1.6-.5,3.1-.3,4.8.1,1.3.8,2.9,1.6,3.8.3.3.6.5,1,.6,3.1,1.6,6.6.9,9.4-1.3,3.8-3,5.3-8.3,4.1-12.9-.1-.6-.3-1.3-.5-1.9h0ZM137.6,68.2h0ZM137.7,68.1h0ZM135.1,80.7c-.4-.1-.6-.5-.9-.8-.3-.5-.4-1.1-.4-1.8,0-2.6.6-5.3,1.3-7.9,0-.3.1-.5.3-.8.4-.5,1.3-.6,1.6-.4s.8,1.3.9,1.9c.4,3.1-.3,6.5-1.8,9.3-.3.5-.8.5-1.1.4h.1Z"/>
        </g>
        <g>
          <path class="st4" d="M111.6,92.4c-5.9.4-9.5,9-7.6,14.1,1.1,2.9,4.1,3.6,6.9,2.6,3.4-1.4,5.4-5.3,5.8-8.8.4-3.6-.5-8.3-5.1-8h.1ZM112,100.6c0,1.1-.4,3.6-1,4.5-.6,1-2.1,1.1-2.6,0-.6-1.6,0-6.9,1.3-8.4.9-1.1,2-.8,2.3.5v3.5h.1Z"/>
          <path class="st4" d="M95.5,94.6c1.4-.8,3.4-1.1,5-1s1.8,0,2.1,1.1.5,2.5.1,3.6c-.6,2.1-.9.9-1.9.3-2.6-1.9-4.8.5-5.4,3s-.5,8.8,4.3,6.1c.4-.3,1.6-1.4,2-1.1s.4,1.6.4,1.9c.1,2.8-3.8,4.3-6,4.4s-4.3-.9-5.5-3.1c-2.5-4.8,0-12.5,4.8-15h.1Z"/>
          <path class="st19" d="M123.6,101.9v2c0,1.8.8,1.9-1.1,2.5s-3.5,1-4,.6-.1-.6-.1-.8c0-2,.4-4.1.5-6.3s.5-4,.3-5.8-3-1.1-1.1-2.3,1.3-.5,1.8-.8,3-1,3.4-.9c.6,0,.9,1.1.9,1.6s0,1.3.3.9.5-1.3.8-1.5c.4-.5,1.1-1.5,1.6-1.9,1.9-1.5,5-1.9,5.9.9.9,3.3-1.1,9.1,0,11.9s1,1,.9,1.3-1.1.8-1.4.9c-1.3.5-3.9.9-4.8-.5s.5-6.6.1-9c-.1-1.6-1.5-1.9-2.5-.8s-1.3,5.5-1.4,7.6h.1Z"/>
          <path class="st19" d="M144.5,97.7c-2.1,1.9-5.8,2.1-5.6-1.5h2.6c.3,0,1.5-.6,1.9-.8,3.8-2.1,4.5-9.1-.8-9.4-6.4-.4-9.6,7.6-8.4,13,1.8,7.4,11.6,4.3,11.9-1.5,0-2.1-.9-.4-1.5.1h-.1ZM140.5,89.7c1-.5,1.6.3,1.6,1.3,0,1.6-1.8,2.6-3.3,2.9,0-.9.8-3.8,1.6-4.1Z"/>
        </g>
        <g>
          <path class="st5" d="M140.7,63.9c-1.9,0-3.9,0-5.6.4-.3,0-.6.1-.9.4s-.4.6-.3.9c0,.1.4.3.5.4.8.3,1.5,0,2.3.1s1.6.5,1.8,1.3v.9c0,.3.4.6.6.5.4-.1.3-.9.6-1.1.3-.3.8,0,.9.3s.1.8.3,1.1c0,.6-.4,1.8,0,2.3.4.8,1,0,1.1-.4.3-.4.6-.3.6.3,0,.8.3,1.5.4,1.9s.4.6.8.8c.5,0,.9-.8,1-1.3.5-1.9.6-4-.3-5.9-.9-1.8-2.9-3.1-4.9-2.8"/>
          <g class="st20">
            <g>
              <g class="st13">
                <path class="st10" d="M134.4,64c-.8,0-.9,1-.6,1.6.8,1.4,2.4.6,3.5,1.1,1,.5.1,2,1.3,2.5.4.1.9,0,1.1-.1.1-.1.5-1,.6-1-.1,0-.4,0-.5-.1,1.1,1-.8,2.9.5,3.9.5.4,1,.3,1.5,0s.5-.4.6-.6c0,0-.1,0-.3-.1v.8c.1,1,.8,2.4,2.1,2.1,1.5-.4,2.1-2.5,2.1-3.8s-.6-.5-.8,0c-.3.6-.5,1.3-.9,1.9-.1.3-.4.8-.6.9-.4.1-.6-.3-.8-.5-.3-.6-.3-1.6-.6-2.1-.3-.3-.6-.4-1,0-.3.1-.5,1-.9.9-.3,0,0-1,0-1.1v-1.4c-.1-.6-.8-1.5-1.5-1-.4.3-.3.8-.5.9s-.3-.5-.3-.8c0-.9-.6-1.5-1.5-1.6-.9-.3-3.8.1-2.9-1.5v-.3h0v-.5Z"/>
              </g>
              <g class="st18">
                <path class="st10" d="M138.5,60.7c-3.1-2.1-7.8,1.4-6.6,5,1.1,3.8,5.6,2.8,8.5,3.5-.1,0-1,0-.9-.5,0,0,.4.8,0,0,.9,2.5.9,5.9,4,6.5,3,.6,4.8-2,5.4-4.5.5-2-1-6.4-3-3.3-.6,1-.9,4.1-1.6,4-.8,0-.6-2.3-1-3.1-.9-3.1-3-3-5.8-3.4-2.5-.3-2.9-1.1-1.8-1.8.6-.5,4.5-1.5,2.5-2.8h0l.3.3Z"/>
              </g>
            </g>
          </g>
          <g class="st6">
            <path class="st10" d="M141.7,64.9h0Z"/>
          </g>
          <g class="st18">
            <path class="st10" d="M142.7,65.4h0c0-.1,0,0,0,0h0Z"/>
          </g>
          <g class="st6">
            <path class="st10" d="M142.4,65.7h0Z"/>
          </g>
          <g class="st18">
            <path class="st10" d="M144.4,71h0c0-.1,0,0,0,0h0Z"/>
          </g>
          <g class="st6">
            <path class="st10" d="M144.9,69.7c.1,0,.1-.3,0-.3s-.1.3,0,.3h0Z"/>
          </g>
          <g class="st18">
            <path class="st10" d="M143.9,69h0Z"/>
          </g>
          <g class="st6">
            <path class="st10" d="M136.5,64.6h0Z"/>
          </g>
          <g class="st18">
            <path class="st10" d="M137.6,65h0Z"/>
          </g>
          <g class="st6">
            <path class="st10" d="M138.6,64.2h0Z"/>
          </g>
        </g>
      </g>
      <g>
        <path class="st7" d="M116.4,63.5c-2.6,0-5-1.8-6-4.5-2-5.5-3.4-11.5-4.5-16.4,0-.3-.1-.6-.3-1.4-.3-1.3-.5-3-.9-4.6-.3-1.4-.5-2-.6-2.4h-.6c-1-.3-1.8-.5-2.4-1-2.1-1.6-2.3-4.5-1.8-6.4,0-.5.4-1.1.8-1.8,0-.1.3-.3.4-.4h.1v-1.5c0-.9.1-1.6.4-2.4,1.3-4.9,4.3-9.1,8.4-12.3,4-3,9-4.6,13.9-4.6s1.6,0,2.4.1h.6c1.8,0,3.8.8,5.3,1.4h.3c4.6,1.9,8.4,5.3,10.9,9.6,1.3,2.1,2,4.5,2.4,6.9.1,1.1.3,2.3.3,3.4s0,1.3-.3,1.9c0,.6-.3,1.1,0,1.5,0,0,0,.3.1.4v.3c0,.1.1.4.3.6,1,2.8,0,6-2.5,7.6-1,.6-2,.8-2.8.9-.4,0-.6,0-.9.1-.3,0-.4.3-.9,1-1.4,2.3-3.1,4.4-4.8,6.4-.9,1.1-1.8,2.3-2.6,3.4-1.9,2.5-3.6,5-5.5,7.5h0c-.6,1-1.3,1.8-1.8,2.6-1.5,2.1-3.1,3.5-5,4.1-.8.3-1.4.4-2.1.4h0l-.3-.5Z"/>
        <path class="st7" d="M116.4,62.6c-2.3,0-4.4-1.5-5.1-3.9-1.9-5.5-3.4-11.5-4.5-16.3,0-.3-.1-.6-.3-1.4-.3-1.3-.5-3-.9-4.6-.5-2.1-.9-2.9-1-3-.4,0-.8,0-1.1-.1-.9-.1-1.5-.5-2-.9-1.8-1.4-1.9-3.8-1.4-5.5,0-.4.3-.9.6-1.4,0-.1.3-.3.3-.4s.3-.3.3-.4c.1-.3,0-.8,0-1.1v-.8c0-.8.1-1.5.3-2.1,1.3-4.6,4-8.8,8-11.8,3.9-2.9,8.6-4.5,13.4-4.5s1.6,0,2.4.1h.6c1.6,0,3.5.8,4.9,1.4h.3c4.4,1.9,8.1,5.1,10.4,9.1,1.1,2,1.9,4.3,2.3,6.5.1,1,.3,2.1.3,3.3s0,1.1-.3,1.8c0,.6-.3,1.3,0,1.9,0,.3,0,.4.1.5v.3c0,.1.1.4.3.5.9,2.4,0,5.1-2.1,6.6-.8.5-1.6.6-2.4.8-.4,0-.8,0-1,.1-.6.1-.9.5-1.4,1.4-1.4,2.3-3,4.3-4.6,6.4-.9,1.1-1.8,2.3-2.6,3.4-1.9,2.5-3.6,5-5.5,7.5-.6.9-1.3,1.8-1.9,2.6-1.4,2-2.9,3.3-4.5,3.8-.6.3-1.3.4-1.9.4h.3Z"/>
        <path class="st7" d="M143.4,30.2c0-.3-.3-.5-.3-.8s-.1-.5-.3-.8c-.3-1.3.3-2.5.3-3.8s0-2.1-.3-3.1c-.4-2.3-1.1-4.3-2.3-6.3-2.3-3.9-5.8-7-10-8.8-1.5-.6-3.8-1.6-5.4-1.3-10.3-1.3-20.4,5.4-23,15.4-.1.6-.3,1.3-.3,1.9s.3,1.6,0,2.4c-.1.3-.4.5-.6.8-.3.4-.4.8-.5,1.1-.4,1.6-.3,3.5,1.1,4.5.5.4,1.1.6,1.6.8.4,0,.8.1,1.1.1,1.3,0,2.4,8.8,2.6,9.8,1.3,5.4,2.6,11,4.5,16.1.9,2.5,3.3,4,5.9,3,1.8-.6,3.1-2,4.1-3.5,2.5-3.4,4.9-6.8,7.4-10.1,2.4-3.3,5.1-6.3,7.1-9.6.5-.9,1-1.5,1.9-1.8s2.1,0,3-.8c1.8-1.3,2.5-3.6,1.8-5.6l.4.3ZM137.5,28.8h0ZM132.1,7.6h0ZM128.1,6.2h0ZM126.9,10.3h0c0,.3-.1.4-.1.5,0-.1,0-.3.1-.5ZM119.9,5.8h.3-.3.1-.1ZM116.9,6.5c-.5.1-1.1.3-1.6.5.5-.1,1.1-.4,1.6-.5ZM111.5,53.8c1.1-.6,2.4-1.4,3.5-2-1.1.8-2.3,1.5-3.5,2h0Z"/>
        <g>
          <path class="st15" d="M138.6,35.5h0c-3.1,6-9.5,8.4-15,11.5-4,2.3-8.1,4.6-12.1,6.9,0,0-.3.1-.4,0-.3,0-.5-.4-.5-.6-.3-1-.6-2.1-.9-3.1s-.9-1.9-.5-2.5.5-.5.9-.8c3.5-1.9,6.9-3.8,10.4-5.6s3.5-1.9,5.3-2.8,2.9-2,4.4-2.3h1.5c1.4,0,2.8-.3,4-.9.6-.3,1.3-.6,2-.5.3,0,1.1,0,1.1.5h-.1Z"/>
          <path class="st15" d="M133.1,42.8c-1,.5-1.5,1.9-2,2.8-.9,1.3-1.8,2.5-2.6,3.8-2.1,2.9-4.3,5.8-6.4,8.6-1.3,1.8-3.1,3.6-5.4,3.8-1.6,0-3.4-.6-4.1-2-.1-.4-.3-.6-.4-1-.3-.9-.6-1.9-.9-2.9s0-.9.3-1.1,1-.4,1.5-.6c6.6-3.8,13.1-8,20-11.3h0Z"/>
          <path class="st11" d="M117,35.5c.5,0,1,.4,1.4.5,1.6.8,3.5,1.1,5.3.9s4.5-1.6,4.6-1c-4.6,2.5-9.3,5-13.9,7.6-1.5.9-3.4,2.4-5.1,2.8s0,0,0,0c-.6.1-.9-.3-1-.9-.3-1-1.5-3.9-1-4.8s.4-.5.6-.6c.5-.4,1.1-.9,1.6-1.1s1.1-.5,1.6-.6c1.6-.6,3.5-2.6,5.3-2.8h.6Z"/>
          <path class="st14" d="M107.1,31.6s.1.1.3.3c1.8,2.3,4.6,2.9,7.4,2.8s.3,0,.5,0c-.4.9-2.3,1.6-3.3,2.1-.8.4-4.9,3.4-5.3,1.9-.4-1.4-.8-2.6-1-4s-1-2.5-.8-3.5c.8-.1,1.6-.3,2.3.4h-.1Z"/>
          <path class="st3" d="M134.2,41.1c.4.5-2,2.5-2.4,2.6-3.1,2-6.6,3.6-9.9,5.4-2,1-3.9,2.1-5.8,3.3-1.6.9-3.3,1.9-4.9,2.9l-.4-1.3c2-.5,3.6-1.9,5.3-3s3.8-2.3,5.6-3.4c4-2.4,8-4.6,12.1-6.6h.4c.1,0,0,0,0,0h-.1Z"/>
          <path class="st21" d="M129.9,36.2h0c0,.3-.3.3-.5.4-.5,0-1,.4-1.4.6-2.6,1.9-5.8,3.3-8.6,4.8s-6.5,3.6-9.6,5.4c-.9.5-.8-.5-.9-1.1,6.5-3.5,12.9-7,19.4-10.5.5.3,1,.4,1.6.5Z"/>
          <path class="st3" d="M115.6,34.6h0c.4-.1,1.3.3,1.1.6s-1.5,1-1.8,1.1c-1.1.6-2.4,1.3-3.5,1.9s-2.1.8-2.8,1.4c-.3.1-.5.4-.8.4-.8.6-.9,0-1.1-.6,2.9-1.5,5.8-3.1,8.8-4.6h0Z"/>
          <g>
            <path class="st1" d="M143.1,29.5c0-.3-.1-.5-.3-.8-.3-1.3.3-2.5.3-3.8s0-2.1-.3-3.1c-.4-2.3-1.1-4.3-2.3-6.3-2.3-3.9-5.8-7-10-8.8-1.5-.6-3.8-1.6-5.4-1.3-10.3-1.3-20.4,5.4-23,15.4-.1.6-.3,1.3-.3,1.9s.3,1.6,0,2.4c-.1.3-.4.5-.6.8-.3.4-.4.8-.5,1.1-.4,1.6-.3,3.5,1.1,4.5.5.4,1.1.6,1.6.8.9.1,1.6.3,2.5,0h.5c.6,0,.9.6,1.3,1.1,1.5,2.1,4.6,3,7,2,.3-.1.6-.3.9-.3.4,0,.8.4,1,.8,1.8,2,4.9,2.8,7.4,1.8.6-.3,1.3-.6,2-.9,1.5-.5,2.1.5,3.5.8,2.1.5,4.8,0,6-2,1.6,1.3,4.1,1.4,5.9.1s2.5-3.6,1.8-5.6c0-.3-.3-.5-.3-.8h.1ZM132.1,7.6h0ZM128.1,6.2h0ZM126.9,10.3h0c0,.3-.1.4-.1.5,0-.1,0-.3.1-.5ZM119.9,5.8h.3-.3.1-.1ZM116.9,6.5c-.5.1-1.1.3-1.6.5.5-.1,1.1-.4,1.6-.5ZM137.5,29h0Z"/>
            <path class="st7" d="M122,38.7c-2.1,0-4.1-.9-5.4-2.4h0c-.3-.3-.4-.5-.6-.6h0c-.1,0-.4,0-.5.1h0c-.8.4-1.6.5-2.5.5-2.1,0-4.1-1-5.3-2.6h0c-.3-.5-.5-.9-.8-.9h-1.4c-.5,0-1.1,0-1.6-.1-.8-.1-1.4-.4-1.9-.8-1.6-1.3-1.8-3.5-1.3-5.1,0-.4.3-.9.6-1.3,0,0,.1-.3.3-.4,0-.1.3-.3.3-.4.3-.4.1-.9,0-1.4v-.6c0-.8,0-1.4.3-2,2.4-9.3,11.3-15.9,21-15.9s1.6,0,2.4.1h.6c1.5,0,3.4.8,4.8,1.3h.3c4.3,1.9,7.9,5,10.3,9,1.1,2,1.9,4.1,2.3,6.4.1,1,.3,2.1.3,3.3s0,1.1-.1,1.6c0,.8-.3,1.4,0,2,0,.3,0,.5.3.6v.3c.1.1.3.4.3.5.8,2.3,0,4.9-2,6.1-.9.6-2,1-3.1,1h0c-1,0-2.1-.3-2.9-.9-1,1.3-2.6,2-4.5,2s-1.1,0-1.6-.3c-.5-.1-.9-.4-1.3-.5-.5-.3-.9-.4-1.3-.4h-.6c-.4,0-.8.3-1.1.5l-.8.4c-.9.4-1.8.5-2.6.5l-.6.3Z"/>
            <path class="st1" d="M143.1,29.5c0-.3-.1-.5-.3-.8-.3-1.3.3-2.5.3-3.8s0-2.1-.3-3.1c-.4-2.3-1.1-4.3-2.3-6.3-2.3-3.9-5.8-7-10-8.8-1.5-.6-3.8-1.6-5.4-1.3-10.3-1.3-20.4,5.4-23,15.4-.1.6-.3,1.3-.3,1.9s.3,1.6,0,2.4c-.1.3-.4.5-.6.8-.3.4-.4.8-.5,1.1-.4,1.6-.3,3.5,1.1,4.5.5.4,1.1.6,1.6.8.9.1,1.6.3,2.5,0h.5c.6,0,.9.6,1.3,1.1,1.5,2.1,4.6,3,7,2,.3-.1.6-.3.9-.3.4,0,.8.4,1,.8,1.8,2,4.9,2.8,7.4,1.8.6-.3,1.3-.6,2-.9,1.5-.5,2.1.5,3.5.8,2.1.5,4.8,0,6-2,1.6,1.3,4.1,1.4,5.9.1s2.5-3.6,1.8-5.6c0-.3-.3-.5-.3-.8h.1ZM132.1,7.6h0ZM128.1,6.2h0ZM126.9,10.3h0c0,.3-.1.4-.1.5,0-.1,0-.3.1-.5ZM119.9,5.8h.3-.3.1-.1ZM116.9,6.5c-.5.1-1.1.3-1.6.5.5-.1,1.1-.4,1.6-.5ZM137.5,29h0Z"/>
            <circle class="st2" cx="115.2" cy="12.6" r="1.6"/>
            <circle class="st2" cx="128.5" cy="12.6" r="1"/>
            <circle class="st2" cx="128.5" cy="20.8" r="1.6"/>
            <circle class="st2" cx="135.9" cy="17.1" r="1.3"/>
            <circle class="st2" cx="135.9" cy="26.3" r="1.3"/>
            <circle class="st2" cx="129.5" cy="31.2" r="1.5"/>
            <circle class="st2" cx="109.6" cy="27.7" r="1.5"/>
            <circle class="st2" cx="109.6" cy="18" r=".9"/>
          </g>
        </g>
      </g>
    </g>
    <path class="st16" d="M165.6,30.7c1.8,0,3.3.4,4.6,1,1,.5,1.6,1,2,2,.5,1.4.9,2.6,1,4.1,0,1-1.5,3.1-2.3,3.6s-1.4.3-1.9.5c-1.4.4-2.8.5-4.1.5-.8-.3-1-.6-1.5-1l-1.5-2c-.3-.6-.9-.6-1-1.8-.4-2.9,1.5-6.4,4.6-6.9h0Z"/>
    <path class="st16" d="M171,91.2c.5,0,1,0,1.4.3.3.1.5.3.6.6s.3.8.3,1.3-.5.9-.6,1-.4,0-.5.1c-.4,0-.8.1-1.3.1s-.3-.1-.5-.3l-.5-.6c0-.1-.3-.3-.3-.5,0-.9.5-1.9,1.4-2h0Z"/>
    <path class="st16" d="M74.3,44c1,0,1.9.3,2.6.6s1,.6,1.1,1.1c.3.8.5,1.5.6,2.4,0,.5-.9,1.8-1.3,2.1s-.8.1-1,.3c-.8.3-1.5.3-2.4.3-.4-.1-.6-.4-.9-.6l-.9-1.1c-.1-.4-.5-.4-.6-1-.3-1.6.9-3.6,2.6-4Z"/>
    <path class="st1" d="M64.8,34.2c.6,0,1.3.1,1.6.4.4.1.6.4.8.8.1.5.3,1,.4,1.5,0,.4-.5,1.1-.9,1.3s-.5,0-.6.1c-.5,0-1,.1-1.5.1s-.4-.3-.5-.4l-.5-.8c0-.3-.3-.3-.4-.6-.1-1.1.5-2.4,1.6-2.5h0Z"/>
    <path class="st1" d="M174.2,28.3c.6,0,1.3.1,1.6.4.4.1.6.4.8.8.1.5.3,1,.4,1.5,0,.4-.5,1.1-.9,1.3s-.5,0-.6.1c-.5,0-1,.1-1.5.1s-.4-.3-.5-.4l-.5-.8c0-.3-.3-.3-.4-.6-.1-1.1.5-2.4,1.6-2.5h0Z"/>
    <path class="st1" d="M158.7,84.6c1,0,1.9.3,2.5.6.5.3.9.6,1.1,1.1.3.8.5,1.5.6,2.3,0,.5-.9,1.8-1.3,2s-.8.1-1,.3c-.8.3-1.5.3-2.3.3-.4-.1-.5-.4-.9-.6l-.9-1.1c-.1-.3-.5-.4-.5-1-.3-1.6.9-3.5,2.5-3.8Z"/>
    <path class="st17" d="M79.6,96.5h-5.1c.8-.8,1.3-1.8,1.9-2.5.4-.4.9-.8,1.1-1.1s.3-1.1-.3-1.4-.6,0-1,0c-.6.4-1.1.9-1.5,1.5-.5.8-1.1,1.5-1.9,2v-1.5c0-1,.1-1.9,0-2.9v-.8c0-1-.5-1.8-1.1-1.8s-1,.6-1.1,1.5c-.1.6-.1,1.3,0,2,0,.9.3,1.9,0,2.9,0,.3,0,.5-.4.5s-.4,0-.5-.3c-1-1-1.6-2.5-3-3.1-.9-.4-1.4,0-1.1.9.1.8.8,1.4,1.3,2,.8.8,1.6,1.5,2,2.5-.9.1-1.9.3-2.8.1-.9,0-1.8-.3-2.5.3-.1,0-.4.3-.4.5,0,.4.4.6.8.6.9.3,1.8.3,2.8.3h1.1c.4,0,.8.1,1.1.3-.4,1-1.3,1.6-2,2.4s-1.5,1.6-1.3,2.6c0,.1,0,.4.3.5s.5,0,.6,0c1.6-.9,2.4-3,4.1-3.6,0,1.4.1,2.8,0,4.1,0,.5,0,1.1.1,1.6.3.5,1,.8,1.4.4.1-.3.3-.5.3-.8,0-1.8.1-3.4.3-5.1,1.1,1,2.1,2,3.1,3.1.3.3.8.8,1.1.5l.3-.3c.3-.5.5-1,.3-1.6s-.8-.9-1.1-1.3c-.9-.8-1.8-1.8-2.3-2.9,1.6-.3,3.4-.3,5,0h.5c.3-.1.4-.5.4-.9s0-.9-.4-1v-.4Z"/>
  </g>
</svg>