<?xml version="1.0" encoding="UTF-8"?>
<svg id="Layer_1" xmlns="http://www.w3.org/2000/svg" version="1.1" xmlns:xlink="http://www.w3.org/1999/xlink" viewBox="0 0 260 120">
  <!-- Generator: Adobe Illustrator 30.0.0, SVG Export Plug-In . SVG Version: 2.1.1 Build 123)  -->
  <defs>
    <style>
      .st0 {
        fill: url(#linear-gradient);
        stroke: #fff;
        stroke-miterlimit: 10;
        stroke-width: 2.4px;
      }

      .st1 {
        fill: #80bf43;
      }

      .st2 {
        fill: #172339;
      }

      .st3 {
        fill: #fff;
      }

      .st4 {
        fill: none;
      }

      .st5 {
        fill: #f1ece1;
      }

      .st6 {
        fill: #ee3749;
      }
    </style>
    <linearGradient id="linear-gradient" x1="131.7" y1="11.3" x2="131.7" y2="68.3" gradientUnits="userSpaceOnUse">
      <stop offset="0" stop-color="#f5bc20"/>
      <stop offset=".3" stop-color="#ec6e3a"/>
      <stop offset=".7" stop-color="#e9404c"/>
      <stop offset="1" stop-color="#e5405e"/>
    </linearGradient>
  </defs>
  <rect class="st4" x="0" y="-.8" width="260" height="120" rx="24" ry="24"/>
  <g>
    <g>
      <path class="st3" d="M134.7,11.3c8.6,0,19.7,7.5,22.8,17.3.8,1.1,2.5,1.3,3.5,3.2s.1,1.6.9,1c1.2-3.3,10.6-1.8,7.2,1.7-.1,0-2.9,1.2-2.3,1.7,2.5.6,5.3,3.3,5.1,6.1-.2,3.6-3.6-.1-4.5.8.4,1.7.2,8.2-2.9,6.9-.5-.3-1.1-3.4-1.8-2.6,1.1,15-12.2,25.7-5,22.1,4.1-.5,7.2,1.8,7.2,6.1-.2,2.7-2,4,.8,5.6,2.3,3.2-.5,7.2-3.1,9.3-1.9,1.1-3.2,1.5-3,3.8-.9,2.9-6.5,2.3-8.9,2.7s-9.1,2.4-12.2,3.8c-5.6,3.3-19.5,13-18.1-.7-10.9,12.1-26.1-.8-19-14.3-15.5-1.3-12.3-18.1-.2-22.1-4.9-4.2-6.4-10.3-1.5-15.8-.2-3.4-.2-8.6,1.3-12.2-1.1,0-1.1,1.4-1.8,1.8-1.4.2-1.4,1.3-2.1,2.3-4.9,2-2.6-8.8-.5-10.3-1,.1-2.9,1.2-4.1.7-1.2.2-2.4,1.9-4,.6.2-5,5.9-9.4,10.9-8.4-1-1.3-1.9-2.3-3.4-2.9-4.4-3.9,6.5-5.8,10.4.4,2.4-4.3,6.5-6.5,11.2-4.5,3.1-2.2,7.3-3.6,11.2-4M149.7,19.5c-8.9-9.3-26.4-9.6-35.1,0h13.2c3.1-2.2,7.8-3.2,11.5-1.4,1.9,2.1,8.1,1.4,10.4,1.4ZM111.1,23.3c-4.4,3.1.3-1.9,1.5-3.1l-.9-.2c.7-.6,1.8-.8,2.1-1.8,2.4-1.3,3.4-2.5-.3-1.9-3.1-1.7-7.3,4.8-7.6,7.7-.7-4.4-5.9-9.3-10.1-5.9,0,.3,3.2,1.2,3.9,1.9s-.7,0-.6.6c.8,1,2.8,1.1,2.5,2.7.2.4,2.1,1.8,1.8,2.2-4.5-3.6-13.7-1.3-13.6,4.7.2,0,4.2-2.8,4-2s-.9,1-.1,1,2.4-1.2,3.4-1.3-.2.8.4.8,3.1-1.1,4.2-.6c.1.6-.2.3-.5.5-2,.4-6.7,3.4-5.3,5.4-.6,1-1.2,4-.1,5,.8.2,1.7-4.9,2.7-2.6,1-4.3,1.2,0,2.4-3.9.4,0,0,.9.5.6s2.1-2.8,2.5-2.4c-1.8,4.8-4.4,11.8-3,17.2-5.3,6.1-3.3,12.9,4.1,16-13.7.5-19.1,21.1-2,20.3-5,10.6,1.4,26.9,15.6,15.6.4-.3,2.2-2.3,2.3-2.3.6.7,2.2.5,1.7,1.5-2.5,2.3-1.4,6.5,2.2,6.8,3.1.4,7.3-3.2,10-4.7,7-4.4,15.8-4.9,23.4-7,1.2-1.4-.2-2.9-.1-3,4.5-.1,11.6-9.9,3.9-10.5,5.7-7.6-3-14.2-8.9-7.1-.4.2-.3-.3-.3-.5-.1-.4-.4-1.4-.4-1.7,7.3-7.5,10.6-19.3,8.7-29.7l1.4,2.1c.4-1.9.6,1.4,1,1.7s.3-.5.6-.4c-.4,1.2.4,1.2.7,1.8s.3,3.1,1.2,1.2c.8-1.3-.3-2.8.7-3.3,0-1.7-1.9-3.4-3.2-4.4.9-.3,2.3,1.1,2.7,0,.5.1,1.4,1.4,2.1,1.3s0-.6.6-.4c5.2,4.7.3-6.6-5.8-3.9l1.5-1.2-.4-.3c3.3-.9.2-1,2.4-1.5.2-1,3.3-.5,1.8-1.7-1.1-.7-2.6-.1-2.7-.2-.1-1.7-4,2.1-4.3,3.3-.8,1.2-.4-.2-.4-.5-.7-6.8-7.9-6.6-13.2-6.1.4,1.8-.5,4,1.5,4.8.8,1,.3,2.1,2.1,1.8-.3.8-.6.4-1.3,1-2.8,4.3,3.2,1.3,5.3,2.4-3.1,1.3-8-1.2-7.9,4.1.2.2,4.5-.5,3.9.4-4-.5-4.9.5-5.5,4.5,3.7-3,9.8-2.6,12.3,1.3.7-2.2-.4-5.8,1.5-7.5.6,3.5-.6,7.2-1.1,10.7-1.9-7.3-10.2-6.5-14.8-2.1.9-2.5,1.5-5.2,2.4-7.8,1-2.7,5.1-8.1.6-8.7,1.6-19-22.7-20.9-24.8-2.6-2.5.4-2.4,3.3-1.1,4.8,1.5,7.6-2.9-1.4-13.6,6.5-7.6,8.5-1.9-9-1.3-12.2,1.1.1-.9,4.8-.9,5.4,1.2.3,4-.6,4.5.4-3.7.5-4.7-1.4-4.9,2.8,5.3.5,10-.9,15.2-.9,0,0,0-1.9,0-1.9-3,0-6,0-9,0-.7-.9,5.5-.4,5.6-.6.3.3.6,0,.6,0,.5,0,1.6.6,2,0-1.4-4.3,2-3.9,1.8-6.6-.9-.1-7.7.5-8.1-.6,13,.8,6.3-1.2,14.1-8.6h-12.7c-.6,0-2.4,3-2.9,3.4ZM155.9,28.5c-3-7.8-5.1-9.2-13.3-8.6,7.7,8.6,0,9.2,13.3,8.6ZM110.9,39.6c-3.4.4-7.8-1.6-6.4,4.1l6.4-4.1Z"/>
      <circle class="st0" cx="131.7" cy="39.8" r="28.5"/>
      <rect class="st3" x="115.2" y="17.5" width="34.1" height=".8"/>
      <rect class="st5" x="110.5" y="57.6" width="43.3" height="1.3"/>
      <rect class="st3" x="107.4" y="27.8" width="49.6" height=".8"/>
      <rect class="st5" x="107.4" y="51.7" width="49.6" height="1.3"/>
      <rect class="st3" x="103.8" y="40.3" width="56.8" height=".8"/>
      <circle class="st6" cx="134.5" cy="31.2" r="13"/>
      <path class="st2" d="M156.5,30c4.8.6,3.7,7.6,4.7,5.8.3-1.1,4.2-5,4.3-3.3.1,0,1.5-.5,2.7.2,1.6,1.2-1.6.6-1.8,1.7-2.2.5.9.6-2.4,1.5l.4.3-1.5,1.2c6.1-2.6,10.9,8.6,5.8,3.9-.6-.2-.4.3-.6.4-.7,0-1.6-1.2-2.1-1.3-.3,1.1-1.8-.3-2.7,0,1.3,1,3.2,2.7,3.2,4.4-1.1.5,0,2-.7,3.3-.8,1.9-.9-.7-1.2-1.2s-1-.6-.7-1.8c-.3-.1-.2.9-.6.4s-.6-3.6-1-1.7l-1.4-2.1c1.9,10.3-1.5,22.2-8.7,29.7,0,.3.3,1.3.4,1.7s0,.7.3.5c5.9-7.2,14.6-.5,8.9,7.1,7.8.6.7,10.3-3.9,10.5,0,.1,1.3,1.6.1,3-7.6,2.1-16.3,2.6-23.4,7-2.7,1.5-6.9,5.1-10,4.7-3.6-.3-4.7-4.5-2.2-6.8.5-.9-1.1-.8-1.7-1.5-.2,0-1.9,2-2.3,2.3-13.8,11.5-20.7-5.4-15.6-15.6-17,.8-11.7-19.8,2-20.3-7.4-3.1-9.4-9.8-4.1-16-1.4-5.4,1.3-12.4,3-17.2-.3-.4-2.3,2.3-2.5,2.4-.5.3-.1-.7-.5-.6-1.2,4-1.3-.4-2.4,3.9-1-2.3-1.8,2.8-2.7,2.6-1.1-1-.5-4.1.1-5-1.4-2,3.3-5,5.3-5.4.3-.1.6.2.5-.5-1-.5-3.6.7-4.2.6s.2-.9-.4-.8c-1,.1-2.4,1.2-3.4,1.3s0-.7.1-1c.2-.8-3.7,2-4,2-.1-6,9.1-8.3,13.6-4.7.3-.4-1.7-1.8-1.8-2.2.4-1.5-1.7-1.6-2.5-2.7,0-.7,1.3,0,.6-.6s-3.8-1.6-3.9-1.9c4.2-3.4,9.3,1.5,10.1,5.9.2-2.9,4.5-9.4,7.6-7.7,3.6-.6,2.6.6.3,1.9-.3,1-1.3,1.2-2.1,1.8l.9.2c-9,10.3,1.8-3.2,6.8,6.2l-3.7-.8v1.1c.1,0-3.1-.4-3.1-.4,0,.3,1,.5.6.9s-4.1,0-4.1.8c4.4.1,7.8,3,7.7,7.8-.6.8-2.5-2.6-2.9-2.8l-.2.9-2.1-2.1c-.2,1.3-1.7-1.1-2.2-.6,1.2,1.6,1.7,3,1.3,5.4-.5,3.2-.8-.6-1.9-.4,0,0-.4-2.1-.4-2.1-.2-.2-.3.9-.5.2-.3-.8.1-2.2-1-1.5-1.9-6.8-4.2,13.2-3.2,12.8,4.6-3.6,11.2-8,17.3-5.6.8-2.6-3.4-7.4.9-8.3,2.9,5.5,12.9,4.4,18.4,4.9,1.9,0,6.1,0,6.4-2.4,4.5.6.5,6-.6,8.7-.9,2.5-1.5,5.2-2.4,7.8,4.6-4.4,12.8-5.2,14.8,2.1.5-3.5,1.6-7.2,1.1-10.7-.6.7-1.6,1.7-1.9,2.2-.9,0-.8,1-1.5,1.4-.7-1.8.6-3.2,1.2-4.5-1.2,1-3,1.4-4.4,2.2-1,.9-1.9,2.6-1.7,0,.8-.3.8-1.6,1.1-2,.4-.6,1.4-.9,1.5-1.6,2.2-.2,5.2-1,1.1-1.5l.4-.6h-2.4c1.2-2.3-3.5.8-1.7-1.7,5.4-3.1,7.7,2.3,6.5-1-2.3-2.7,1.3-.5-1.2-2.7.4-1.1-3.2-2.4,0-2ZM121.2,33c-2.4,6.2,28.5,8.9,26,2.6-6.6,3.7-20.2,2.1-26-2.6ZM139.8,40c-15,.5-19.3-7.2-17.4.4,2.3,3.5,1.9,7.5-.1,10.9,2.7-.8,6.3-1.7,8.4.6,3-3,9.2-4.8,10.7.7l4.7-13.1c.2-.7-.9-.2-1.2-.2-1.6.3-3.7.2-5.1.6ZM106.6,66.4c-13.7-4.5-18.1,20.9-1.6,15.1,3.3-4.9,10.5-7.5,12.8-13.1,3.7-11.1-18.9-10.9-7.4-20.7,1.3-1.1,8.3-5.7,6.8-.9-.5,1.7-4.4,4.3-4.1,5.9,4.4,6.9,14.1-10.6,6.2-12-6.9-1.6-20.6,7.9-19.5,15.5,4.1,8.6,23.9,9.3,3.9,19.5-3.8.1-2.2-3.4-.5-5.1s4.2-2.8,3.4-4.1ZM118.3,72.1c.5.2,2.5,0,3.2,0s1.4,1.2,1.9.4c1.4-4.3,2.9-10.7,6.2-14.3,9.2-8.4-4.8,10.8.7,12.6,2.7,2,6.2-1.1,8-3.1,1.5-2.9,1.5.2,3.1,1.4,8.2,6.8,19-11.1,14.4-18.5-8.5-8.1-14.9,7.1-17.8,13.2-9.2,9.1,11-20.9-5.2-11.8-.8.4-4.5,4.3-4,2.8,1.5-3.6-3.5-4-5.1-1.7-2.6,4.1-4.8,14.1-5.5,18.9ZM154.1,83c3.3,0,7.1-3,7.5-6.3.8-11.5-11.4.1-11.1,5.4,0,.6.2,1.8.1,2-1.2,1.4-3.6,4-2.8,0,2.9-6.4,6.4-18.1-4.4-8.7-.1-1.3.8-2.4-1-2.3s-2.8.5-3.1,1.6c-.8,5.4-4.1,11.5-4.9,16.7-.3,1.8,2.2,1.2,3.2.7,1.7-.9,2.8-7.2,3.6-9.3.3-1.5,5.2-9.3,5.7-5.6-1.1,3.5-7.2,16.2,1.4,12.3,3.3-2.4,1.9-4.7,4.7-.9,2.8,3,14.9-4.3,9.2-6-1.9,1.8-7.4,5.7-7.9.5ZM120.1,76.5c2,2-5.4,6.4-1.7,7.1s9.1-10.7.5-10c-8.9.7-17.9,13.7-16.1,22.3,2.2,10.1,16,4,18.6-2.8,7.9,12.4,21.9-21,8.6-17.5-9.9,3.3-6.5,17.4-16.4,20.7-12.5,2.1-1.1-22,6.3-19.8ZM148.8,91.2c-3.4.2-33.2,7.1-23.2,12.3,8.6-6.5,19.6-10.6,30.6-11,2.9-1.8-6.5-1.4-7.3-1.3Z"/>
      <path class="st3" d="M118.3,72.1c.7-4.8,2.8-14.8,5.5-18.9,1.6-2.3,6.6-1.9,5.1,1.7-.4,1.5,3.3-2.4,4-2.8,16.1-9.1-4,20.9,5.2,11.8,2.9-6.1,9.3-21.3,17.8-13.2,5.5,8.6-9.7,28.7-16.2,15.8-2.1,1.5-5.7,6.9-9.3,4.3-5.5-1.8,8.5-21-.7-12.6-3.3,3.6-4.8,10.1-6.2,14.3-.5.7-1.7-.4-1.9-.4-.7,0-2.7.2-3.2,0ZM150.7,52.5c-3.5.4-10,15.8-2.6,12.4,2.1-2,7.7-11.4,2.6-12.4Z"/>
      <path class="st3" d="M106.6,66.4c.8,1.4-2.6,3.4-3.4,4.1-1.8,1.7-3.3,5.2.5,5.1,19.9-10,.4-11-3.9-19.5-1.1-7.6,12.6-17,19.5-15.5,7.9,1.4-1.8,18.9-6.2,12-.3-1.6,3.5-4.2,4.1-5.9,1.5-4.7-5.5-.2-6.8.9-11.5,9.7,11.1,9.6,7.4,20.7-2.2,5.6-9.5,8.3-12.8,13.1-16.5,5.8-12.1-19.6,1.6-15.1Z"/>
      <path class="st1" d="M120.1,76.5c-7.4-2.2-18.9,21.9-6.3,19.8,9.9-3.3,6.5-17.4,16.4-20.7,13.3-3.5-.7,29.9-8.6,17.5-2.6,6.8-16.4,12.9-18.6,2.8-1.9-8.6,7.1-21.5,16.1-22.3,8.5-.7,3.4,10.8-.5,10s3.7-5.2,1.7-7.1ZM130.6,78.2c-2.5.9-9.1,13.2-3.8,13.4,2.7-1.1,8.7-12.6,3.8-13.4Z"/>
      <path class="st1" d="M154.1,83c.5,5.1,6.1,1.3,7.9-.5,5.7,1.7-6.4,9-9.2,6-2.7-3.8-1.4-1.5-4.7.9-8.6,3.8-2.5-8.8-1.4-12.3-.5-3.7-5.5,4.1-5.7,5.6-.8,2-1.9,8.3-3.6,9.3s-3.5,1.1-3.2-.7c.8-5.3,4-11.3,4.9-16.7.3-1.1,2.2-1.6,3.1-1.6,1.9,0,.9,1.1,1,2.3,10.8-9.4,7.4,2.3,4.4,8.7-.8,4,1.6,1.5,2.8,0,.1-.3-.2-1.4-.1-2-.3-5.3,11.9-16.9,11.1-5.4-.4,3.4-4.2,6.4-7.5,6.3ZM154.1,80.9c.9.9,5.9-3.2,5.3-5.8-1.3-3.1-5.4,4.4-5.3,5.8Z"/>
      <path class="st3" d="M144.9,39.4c4.5-2.5-4.1,13.2-3.5,13.3-1.5-5.5-7.8-3.6-10.7-.7-2.1-2.3-5.7-1.4-8.4-.6,2-3.5,1.1-6.9.1-10.9-.1-.4-.5-2.5-.4-2.8,0-.2.1-.5.4-.6s.9-.1,1.1,0c6.6,2.5,11.2,3.3,16.3,2.9"/>
      <path class="st1" d="M148.8,91.2c.8,0,10.2-.4,7.3,1.3-10.9.4-22,4.5-30.6,11-10-5.3,19.8-12.1,23.2-12.3Z"/>
      <path class="st3" d="M121.2,33c5.8,4.7,19.4,6.2,26,2.6,2.5,6.4-28.4,3.6-26-2.6Z"/>
      <path class="st2" d="M150.7,52.5c5.1,1-.5,10.4-2.6,12.4-7.4,3.4-.9-12,2.6-12.4Z"/>
      <path class="st2" d="M130.6,78.2c4.9.8-1.1,12.2-3.8,13.4-5.3-.2,1.3-12.5,3.8-13.4Z"/>
      <path class="st2" d="M154.1,80.9c-.1-1.4,4-8.9,5.3-5.8.6,2.6-4.4,6.7-5.3,5.8Z"/>
    </g>
    <g>
      <circle class="st5" cx="128.7" cy="25" r="1"/>
      <circle class="st5" cx="134.5" cy="19.9" r="1"/>
      <circle class="st5" cx="143.7" cy="32.3" r=".6"/>
      <circle class="st5" cx="126.8" cy="31.1" r=".6"/>
      <circle class="st5" cx="137.1" cy="35" r=".6"/>
      <circle class="st5" cx="139.1" cy="30.2" r=".3"/>
      <circle class="st5" cx="123.4" cy="27.6" r=".3"/>
      <circle class="st5" cx="133.4" cy="31.7" r=".6"/>
      <circle class="st5" cx="134" cy="22.1" r=".2"/>
      <circle class="st5" cx="144.7" cy="28.1" r=".2"/>
      <circle class="st5" cx="128.9" cy="20.8" r=".2"/>
      <circle class="st5" cx="141.5" cy="34.6" r=".2"/>
      <circle class="st5" cx="131.5" cy="28.3" r=".2"/>
      <circle class="st5" cx="129.4" cy="34.2" r=".2"/>
      <circle class="st5" cx="141.6" cy="24.8" r="1.2"/>
      <circle class="st5" cx="136" cy="27.1" r=".5"/>
      <circle class="st5" cx="138.9" cy="21.4" r=".5"/>
    </g>
  </g>
</svg>