<?xml version="1.0" encoding="UTF-8"?>
<svg id="Layer_1" xmlns="http://www.w3.org/2000/svg" version="1.1" viewBox="0 0 260 120">
  <!-- Generator: Adobe Illustrator 30.0.0, SVG Export Plug-In . SVG Version: 2.1.1 Build 123)  -->
  <defs>
    <style>
      .st0 {
        fill: #fff;
      }

      .st1 {
        fill: none;
      }
    </style>
  </defs>
  <rect class="st1" y="0" width="260" height="120" rx="24" ry="24"/>
  <g id="Layer_1-2">
    <g>
      <g>
        <path class="st0" d="M89.1,68.3c-.7-.6-1.6-1.1-2.7-1.4-1.1-.3-2.4-.5-4-.5h-15.3v9.1h-2.5v4.1h2.5v6.2h5.8v-6.2h9.6c1.6,0,2.9-.2,4-.5,1.1-.3,2-.8,2.7-1.4.7-.6,1.2-1.3,1.5-2.1.3-.8.5-1.7.5-2.7s-.2-1.9-.5-2.7-.8-1.5-1.5-2.1M85.1,74.3c-.1.3-.4.6-.7.8-.3.2-.7.3-1.3.4-.5,0-1.2.1-1.9.1h-8.3v-5h8.3c.8,0,1.4,0,1.9.2.5.1.9.3,1.3.5.3.2.5.5.7.8.1.3.2.7.2,1.2s0,.8-.2,1.2"/>
        <path class="st0" d="M119.6,68.5c-1.3-.9-2.8-1.5-4.6-2-1.8-.4-3.8-.7-6-.7s-4.2.2-6,.7c-1.8.4-3.3,1.1-4.6,2-1.3.9-2.2,1.9-2.9,3.2-.7,1.3-1,2.8-1,4.4s.3,3.2,1,4.4c.7,1.3,1.7,2.4,2.9,3.2,1.3.9,2.8,1.5,4.6,2,1.8.4,3.8.7,6,.7s4.2-.2,6-.7c1.8-.4,3.3-1.1,4.6-2,1.3-.9,2.2-1.9,2.9-3.2.7-1.3,1-2.8,1-4.4s-.3-3.2-1-4.4c-.7-1.3-1.6-2.4-2.9-3.2M117.3,78.3c-.3.7-.7,1.4-1.4,2-.6.6-1.5,1.1-2.7,1.4-1.1.4-2.5.5-4.3.5s-2.2,0-3.1-.3c-.9-.2-1.6-.4-2.3-.7-.6-.3-1.2-.6-1.6-1-.4-.4-.8-.8-1-1.3-.3-.4-.4-.9-.6-1.4-.1-.5-.2-1-.2-1.5s0-1,.2-1.4c.1-.5.3-1,.6-1.4.3-.4.6-.9,1-1.3.4-.4,1-.7,1.6-1,.6-.3,1.4-.5,2.3-.7.9-.2,1.9-.3,3.1-.3,1.7,0,3.2.2,4.3.5s2,.8,2.7,1.4,1.1,1.2,1.4,2c.3.7.4,1.4.4,2.2s-.1,1.5-.4,2.2"/>
        <rect class="st0" x="128.8" y="66.4" width="5.8" height="19.5"/>
        <polygon class="st0" points="161.9 79.9 147.5 66.4 141.2 66.4 141.2 85.9 147 85.9 147 72.5 161.4 85.9 167.6 85.9 167.6 66.4 161.9 66.4 161.9 79.9"/>
        <polygon class="st0" points="171.5 70.6 180.5 70.6 180.5 85.9 186.3 85.9 186.3 70.6 195.4 70.6 195.4 66.4 171.5 66.4 171.5 70.6"/>
      </g>
      <g>
        <path class="st0" d="M60.9,44.4c-.5-.4-1.2-.8-1.9-1.1-.7-.3-1.5-.6-2.3-.9-.8-.2-1.6-.5-2.5-.6s-1.7-.4-2.5-.5c-.8-.2-1.6-.3-2.3-.5s-1.3-.3-1.9-.5c-.5-.2-1-.4-1.3-.6-.3-.2-.5-.5-.5-.7s0-.2,0-.3c0-.1.1-.2.2-.3.1-.1.3-.2.5-.3.2-.1.5-.2,1-.3.4,0,.9-.1,1.5-.2.6,0,1.3,0,2.1,0s2,0,3,.2,1.9.3,2.7.5,1.6.4,2.3.6c.7.2,1.2.4,1.6.6v-4.5c-.7-.2-1.4-.4-2.2-.6-.8-.2-1.6-.3-2.5-.5-.8-.1-1.7-.2-2.6-.3-.9,0-1.8-.1-2.6-.1s-1.6,0-2.4,0c-.8,0-1.7.2-2.5.3-.8.2-1.6.4-2.3.6-.7.3-1.4.6-2,1.1s-1,1-1.3,1.6c-.3.6-.5,1.4-.5,2.2s.2,1.4.5,1.9c.3.6.7,1,1.3,1.5s1.2.8,1.9,1.1c.7.3,1.5.6,2.3.8.8.2,1.6.4,2.5.6.8.2,1.7.3,2.5.5.8.2,1.6.3,2.3.4.7.2,1.3.3,1.9.5.5.2,1,.4,1.3.6s.5.5.5.8,0,.4-.2.6-.5.4-.9.6c-.4.2-1,.3-1.8.5-.8.1-1.8.2-3,.2-2.1,0-4-.2-5.8-.6-1.8-.4-3.4-1-4.9-1.7v4.7c1.4.5,3,.9,4.8,1.2,1.8.3,3.8.5,5.9.5s1.7,0,2.6,0c.9,0,1.8-.2,2.7-.3.9-.2,1.7-.4,2.5-.6.8-.3,1.5-.6,2.1-1.1.6-.5,1.1-1,1.5-1.7.4-.7.5-1.5.5-2.4s-.2-1.4-.5-2c-.3-.6-.7-1.1-1.3-1.5"/>
        <path class="st0" d="M130.7,36.2c-1.3-.9-2.8-1.5-4.6-2-1.8-.4-3.8-.7-6-.7s-4.2.2-6,.7c-1.8.4-3.3,1.1-4.6,2-1.3.9-2.2,1.9-2.9,3.2-.7,1.3-1,2.8-1,4.4s.3,3.2,1,4.4c.7,1.3,1.7,2.4,2.9,3.2,1.3.9,2.8,1.5,4.6,2,1.8.4,3.8.7,6,.7s4.2-.2,6-.7c1.8-.4,3.3-1.1,4.6-2,1.3-.9,2.2-1.9,2.9-3.2.7-1.3,1-2.8,1-4.4s-.3-3.2-1-4.4c-.7-1.3-1.6-2.4-2.9-3.2M128.4,46c-.3.7-.7,1.4-1.4,2-.6.6-1.5,1.1-2.7,1.4s-2.5.5-4.3.5-2.2,0-3.1-.3c-.9-.2-1.6-.4-2.3-.7-.6-.3-1.2-.6-1.6-1-.4-.4-.8-.8-1-1.3-.3-.4-.4-.9-.6-1.4-.1-.5-.2-1-.2-1.5s0-1,.2-1.4c.1-.5.3-1,.6-1.4.3-.4.6-.9,1-1.3.4-.4,1-.7,1.6-1,.6-.3,1.4-.5,2.3-.7.9-.2,1.9-.3,3.1-.3,1.7,0,3.2.2,4.3.5,1.1.4,2,.8,2.7,1.4s1.1,1.2,1.4,2c.3.7.4,1.4.4,2.2s-.1,1.5-.4,2.2"/>
        <polygon class="st0" points="145 45.5 157.1 53.6 165.5 53.6 150.2 43.5 164.6 34.1 156.8 34.1 145 41.5 145 34.1 139.2 34.1 139.2 53.6 145 53.6 145 45.5"/>
        <polygon class="st0" points="190.7 49.5 174.8 49.5 174.8 45.6 189.7 45.6 189.7 41.5 174.8 41.5 174.8 38.3 190.5 38.3 190.5 34.1 168.9 34.1 168.9 53.6 190.7 53.6 190.7 49.5"/>
        <polygon class="st0" points="213.5 34.1 206.8 42 200 34.1 193.6 34.1 203.9 45.6 203.9 53.6 209.7 53.6 209.7 45.6 220 34.1 213.5 34.1"/>
        <polygon class="st0" points="93.1 34.1 84.5 48.9 75.9 34.1 64.6 34.1 64.6 38.2 68 38.2 68 53.6 73.8 53.6 73.8 39.9 81.7 53.6 87.3 53.6 95.2 39.9 95.2 53.6 100.9 53.6 100.9 34.1 93.1 34.1"/>
      </g>
    </g>
  </g>
</svg>