<?xml version="1.0" encoding="UTF-8"?>
<svg id="Layer_1" xmlns="http://www.w3.org/2000/svg" version="1.1" viewBox="0 0 240 120">
  <!-- Generator: Adobe Illustrator 30.0.0, SVG Export Plug-In . SVG Version: 2.1.1 Build 123)  -->
  <defs>
    <style>
      .st0 {
        fill: #0d72b9;
      }

      .st1 {
        fill: #ec1e27;
      }

      .st2 {
        fill: #fff;
      }

      .st3 {
        fill: none;
      }

      .st4 {
        fill: #f6eb0f;
      }

      .st5 {
        fill: #39b44a;
      }
    </style>
  </defs>
  <rect class="st3" y="0" width="240" height="120" rx="24" ry="24"/>
  <path class="st0" d="M55.3,48l-4.1,25.6c-.4,2.2-2.3,3.9-4.5,3.9h0c-2.8,0-5-2.5-4.5-5.3l4.1-25.6c.4-2.2,2.3-3.9,4.5-3.9h0c2.8,0,5,2.5,4.5,5.3Z"/>
  <path class="st1" d="M69.1,48l-4.1,25.6c-.4,2.2-2.3,3.9-4.5,3.9h0c-2.8,0-5-2.5-4.5-5.3l4.1-25.6c.4-2.2,2.3-3.9,4.5-3.9h0c2.8,0,5,2.5,4.5,5.3Z"/>
  <path class="st5" d="M83,48l-4.1,25.6c-.4,2.2-2.3,3.9-4.5,3.9h0c-2.8,0-5-2.5-4.5-5.3l4.1-25.6c.4-2.2,2.3-3.9,4.5-3.9h0c2.8,0,5,2.5,4.5,5.3Z"/>
  <path class="st4" d="M96.9,48l-4.1,25.6c-.4,2.2-2.3,3.9-4.5,3.9h0c-2.8,0-5-2.5-4.5-5.3l4.1-25.6c.4-2.2,2.3-3.9,4.5-3.9h0c2.8,0,5,2.5,4.5,5.3Z"/>
  <g id="Layer_11" data-name="Layer_1">
    <g>
      <path class="st2" d="M112.7,47.3v-2.1h8.5v25.6h8.5v4.3h-25.6v-4.3h8.5v-17.1h-4.3v-4.3h4.3v-2.1Z"/>
      <path class="st2" d="M134,58v-12.8h8.5v25.6h12.8v-25.6h8.5v25.6h-4.3v4.3h-21.3v-4.3h-4.3v-12.8Z"/>
      <path class="st2" d="M168.1,60.1v-14.9h25.6v4.3h4.3v12.8h-4.3v4.3h-17.1v8.5h-8.5v-14.9ZM189.5,55.8v-6.4h-12.8v12.8h12.8v-6.4Z"/>
    </g>
  </g>
</svg>