<?xml version="1.0" encoding="UTF-8"?>
<svg id="Layer_1" xmlns="http://www.w3.org/2000/svg" version="1.1" xmlns:xlink="http://www.w3.org/1999/xlink" viewBox="0 0 240 120">
  <!-- Generator: Adobe Illustrator 30.0.0, SVG Export Plug-In . SVG Version: 2.1.1 Build 123)  -->
  <defs>
    <style>
      .st0 {
        fill: #00badd;
      }

      .st1 {
        fill: #04bee0;
      }

      .st2 {
        fill: #006e9e;
      }

      .st3 {
        fill: #eb377b;
      }

      .st4 {
        fill: #ed3b7e;
      }

      .st5 {
        opacity: .3;
      }

      .st6 {
        fill: #fff;
      }

      .st7 {
        fill: #094871;
      }

      .st8 {
        fill: none;
      }

      .st9 {
        fill: #094770;
      }

      .st10 {
        fill: #3a6eb5;
      }

      .st11 {
        fill: #fcf9f4;
      }

      .st12 {
        opacity: .1;
      }

      .st13 {
        fill: #02bddf;
      }

      .st14 {
        opacity: .4;
      }

      .st15 {
        fill: #fffbf8;
      }

      .st16 {
        fill: #fbf7f3;
      }

      .st17 {
        fill: #ed3c7d;
      }

      .st18 {
        fill: #11bfdd;
      }

      .st19 {
        fill: #ed397d;
      }

      .st20 {
        clip-path: url(#clippath);
      }

      .st21 {
        fill: #eb387b;
      }
    </style>
    <clipPath id="clippath">
      <path class="st8" d="M136.6,63.1c-1.5,0-3.1,0-4.5.3-.2,0-.5.1-.7.3-.2.2-.3.5-.2.7,0,.1.3.2.4.3.6.2,1.2,0,1.8.1s1.3.4,1.4,1c0,.2,0,.5,0,.7,0,.2.3.5.5.4.3-.1.2-.7.5-.9.2-.2.6,0,.7.2s.1.6.2.9c0,.5-.3,1.4,0,1.8.3.6.8,0,.9-.3.2-.3.5-.2.5.2,0,.6.2,1.2.3,1.5.1.3.3.5.6.6.4,0,.7-.6.8-1,.4-1.5.5-3.2-.2-4.7-.7-1.4-2.3-2.5-3.9-2.2"/>
    </clipPath>
  </defs>
  <rect class="st8" y="0" width="240" height="120" rx="24" ry="24"/>
  <g>
    <g>
      <g>
        <path class="st9" d="M143.1,83c-.5-2.2-2.2-3.7-4.5-4,2.4-2.9,3.4-7,2.5-11.1-.1-.5-.3-1.1-.5-1.7-.9-2.7-3-4.3-5.9-4.3s-6,1.7-7.6,3.4c-1,1-1.8,2.3-2.4,3.6-.8-1.3-2.1-2.1-3.6-2.2-.1,0-.2,0-.4,0-1.6,0-3.2.7-4.7,2-.5-.3-1.1-.4-1.8-.4s-.5,0-.8,0c-.3,0-2,.4-3.6,1.1-.2-1.3-.9-2.5-2-3.3-1.1-.8-2.5-1.2-4.1-1.2s-.2,0-.3,0c-2.2,0-4.5.9-6.3,2.4-1.5,1.1-2.5,2.8-2.9,4.7-.6,2.8,0,5.5,1.9,7.1-.5,0-1,.3-1.4.6-.5.4-.8.9-1,1.3-.7,1.7-.8,3.4-.4,5,.4,1.4,1.2,2.4,2.3,3.1-2.5,3.5-3.2,8.5-1.4,12.1,1.3,2.4,3.5,3.8,6.1,3.8s.3,0,.5,0c1.4,0,3-.6,4.2-1.3,1-.6,1.7-1.3,2.1-2.1.9.6,2.1.9,3.3.9s1.9-.2,2.8-.5c1.4-.5,2.5-1.4,3.3-2.4.1.2.3.3.5.5.5.3,1,.5,1.6.5,1.3,0,3.6-.7,3.6-.7.6-.2,1.8-.6,2.4-1.7.6.4,1.5.7,2.6.7s1.9-.2,2.8-.5c.7-.3,1.6-.7,2.1-1.4.9.4,1.8.7,2.9.7h0c3.6,0,7.6-2.8,7.7-6.9,0-.5,0-1.6-.7-2.5.8-1.6,1.2-3.4.8-5.1Z"/>
        <g>
          <path class="st13" d="M106.6,67.7c.6.4,1.1,1.1,1.1,2,0,.7-.1,1.3-.4,2,0,.2-.2.4-.3.6-.4.4-1-.1-1.4-.4-.5-.4-1.1-.8-1.7-.9-1.4-.2-2.4,1.1-1.6,2.4.7,1,1.9,1.4,3,1.9,2.1,1,3.6,3.1,3.5,5.5-.1,2.2-1.6,3.9-3.5,4.8-1.6.7-3.3,1.3-5,1.6-1.9.4-3.8-.2-4.4-2.2-.3-1.1-.2-2.3.3-3.3,0-.1.1-.3.2-.4.5-.4,1,.7,1.3.9.5.4,1,.8,1.6,1.1,1.2.5,2.6.5,3.4-.6,1.9-2.5-3.4-4.4-4.8-5.5-1.4-1.2-1.6-3.2-1.2-4.9.3-1.3,1-2.5,2.1-3.3,1.4-1.1,3.1-1.8,4.9-1.9s2.1.2,2.9.7Z"/>
          <path class="st0" d="M123.1,70.3c.3.8.4,1.8.4,2.6,0,1.3-.3,2.6-.3,3.9,0,1.1.2,1.8,1,2.5,0,0,.1.1.2.1.2,0,.5,0,.6.2.5.7-1,1.7-1.5,2-1.1.7-3.2,1.8-4.4.8-.3-.3-.5-.6-.6-1-.4-2.3.4-4.6.2-7,0-.7-.5-1.4-1.3-1.2-1.9.5-2.2,3.6-2.2,5.2,0,.9,0,1.8,0,2.7,0,.6.2,1.2.2,1.8s-.1.7-.4.9c-.3.2-.7.3-1,.4-1,.1-1.9.4-2.9.6-.1,0-.3,0-.4,0-.9-.2-.3-2.1-.2-2.6.2-1.3.2-2.6.3-3.9.1-1.4.5-3.1-.1-4.4s-.4-.7-.8-.9c-.2,0-.4-.1-.5-.2-.8-.7,4.4-2.2,4.9-2.3.5,0,1.1,0,1.4.5.3.4.2,1,.4,1.4s.7-.8.8-.9c1-1.3,2.6-2.8,4.5-2.7,1,0,1.7.7,2,1.6Z"/>
          <path class="st0" d="M138.5,66.5c-1.4-4.4-7.1-2.4-9.5,0-1.4,1.5-2.4,3.4-2.8,5.5-.2,1.3-.4,2.5-.2,3.8.1,1,.6,2.3,1.3,3,.2.2.5.4.8.5,2.5,1.3,5.3.7,7.5-1,3-2.4,4.2-6.6,3.3-10.3-.1-.5-.2-1-.4-1.5ZM134.1,66.6s0,0,0,0c0,0,0,0,0,0,0,0,0,0,0,0h0ZM134.2,66.5h0s0,0,0,0h0ZM132.1,76.6c-.3-.1-.5-.4-.7-.6-.2-.4-.3-.9-.3-1.4,0-2.1.5-4.2,1-6.3,0-.2.1-.4.2-.6.3-.4,1-.5,1.3-.3s.6,1,.7,1.5c.3,2.5-.2,5.2-1.4,7.4-.2.4-.6.4-.9.3Z"/>
        </g>
        <g>
          <path class="st4" d="M113.3,85.9c-4.7.3-7.6,7.2-6.1,11.3.9,2.3,3.3,2.9,5.5,2.1,2.7-1.1,4.3-4.2,4.6-7,.3-2.9-.4-6.6-4.1-6.4ZM113.6,92.5c0,.9-.3,2.9-.8,3.6-.5.8-1.7.9-2.1,0-.5-1.3,0-5.5,1-6.7.7-.9,1.6-.6,1.8.4,0,.3,0,.5,0,.8,0,.6,0,1.3,0,2Z"/>
          <path class="st4" d="M100.4,87.7c1.1-.6,2.7-.9,4-.8s1.4,0,1.7.9.4,2,.1,2.9c-.5,1.7-.7.7-1.5.2-2.1-1.5-3.8.4-4.3,2.4s-.4,7,3.4,4.9c.3-.2,1.3-1.1,1.6-.9s.3,1.3.3,1.5c.1,2.2-3,3.4-4.8,3.5s-3.4-.7-4.4-2.5c-2-3.8,0-10,3.8-12Z"/>
          <path class="st19" d="M122.9,93.5c0,.5,0,1.1,0,1.6,0,1.4.6,1.5-.9,2s-2.8.8-3.2.5-.1-.5-.1-.6c0-1.6.3-3.3.4-5s.4-3.2.2-4.6-2.4-.9-.9-1.8,1-.4,1.4-.6,2.4-.8,2.7-.7c.5,0,.7.9.7,1.3s0,1,.2.7.4-1,.6-1.2c.3-.4.9-1.2,1.3-1.5,1.5-1.2,4-1.5,4.7.7.7,2.6-.9,7.3,0,9.5s.8.8.7,1-.9.6-1.1.7c-1,.4-3.1.7-3.8-.4s.4-5.3.1-7.2c-.1-1.3-1.2-1.5-2-.6s-1,4.4-1.1,6.1Z"/>
          <path class="st19" d="M139.6,90.2c-1.7,1.5-4.6,1.7-4.5-1.2h2.1c.2,0,1.2-.5,1.5-.6,3-1.7,3.6-7.3-.6-7.5-5.1-.3-7.7,6.1-6.7,10.4,1.4,5.9,9.3,3.4,9.5-1.2,0-1.7-.7-.3-1.2.1ZM136.4,83.8c.8-.4,1.3.2,1.3,1,0,1.3-1.4,2.1-2.6,2.3,0-.7.6-3,1.3-3.3Z"/>
        </g>
        <g>
          <path class="st6" d="M136.6,63.1c-1.5,0-3.1,0-4.5.3-.2,0-.5.1-.7.3-.2.2-.3.5-.2.7,0,.1.3.2.4.3.6.2,1.2,0,1.8.1s1.3.4,1.4,1c0,.2,0,.5,0,.7,0,.2.3.5.5.4.3-.1.2-.7.5-.9.2-.2.6,0,.7.2s.1.6.2.9c0,.5-.3,1.4,0,1.8.3.6.8,0,.9-.3.2-.3.5-.2.5.2,0,.6.2,1.2.3,1.5.1.3.3.5.6.6.4,0,.7-.6.8-1,.4-1.5.5-3.2-.2-4.7-.7-1.4-2.3-2.5-3.9-2.2"/>
          <g class="st20">
            <g class="st5">
              <path class="st10" d="M131.5,63.2c-.6,0-.7.8-.5,1.3.6,1.1,1.9.5,2.8.9.8.4.1,1.6,1,2,.3.1.7,0,.9-.1.1-.1.4-.8.5-.8-.1,0-.3,0-.4-.1.9.8-.6,2.3.4,3.1.4.3.8.2,1.2,0s.4-.3.5-.5c0,0-.1,0-.2-.1,0,0,0,.1,0,.2,0,.1,0,.3,0,.4.1.8.6,1.9,1.7,1.7,1.2-.3,1.7-2,1.7-3,0-.4-.5-.4-.6,0-.2.5-.4,1-.7,1.5-.1.2-.3.6-.5.7-.3.1-.5-.2-.6-.4-.2-.5-.2-1.3-.5-1.7-.2-.2-.5-.3-.8,0-.2.1-.4.8-.7.7-.2,0,0-.8,0-.9,0-.4,0-.8,0-1.1-.1-.5-.6-1.2-1.2-.8-.3.2-.2.6-.4.7-.2.1-.2-.4-.2-.6,0-.7-.5-1.2-1.2-1.3-.7-.2-3,.1-2.3-1.2,0,0,0-.2,0-.2h0Z"/>
            </g>
            <g class="st12">
              <path class="st10" d="M134.8,60.6c-2.5-1.7-6.2,1.1-5.3,4,.9,3,4.5,2.2,6.8,2.8-.1,0-.8,0-.7-.4,0,0,.3.6,0,0,.7,2,.7,4.7,3.2,5.2,2.4.5,3.8-1.6,4.3-3.6.4-1.6-.8-5.1-2.4-2.6-.5.8-.7,3.3-1.3,3.2-.6,0-.5-1.8-.8-2.5-.7-2.5-2.4-2.4-4.6-2.7-2-.2-2.3-.9-1.4-1.4.5-.4,3.6-1.2,2-2.2h0Z"/>
            </g>
          </g>
          <g class="st14">
            <path class="st10" d="M137.4,63.9s0,0,0,0h0s0,0,0,0c0,0,0,0,0,0s0,0,0,0c0,0,0,0,0,0s0,0,0,0c0,0,0,0,0,0,0,0,0,0,0,0,0,0,0,0,0,0s0,0,0,0c0,0,0,0,0,0,0,0,0,0,0,0h0Z"/>
          </g>
          <g class="st12">
            <path class="st10" d="M138.2,64.3c0,0,0-.1,0-.1s0,.1,0,.1h0Z"/>
          </g>
          <g class="st14">
            <path class="st10" d="M137.9,64.6s0,0,0,0,0,0,0,0h0Z"/>
          </g>
          <g class="st12">
            <path class="st10" d="M139.5,68.8c0,0,0-.1,0-.1s0,.1,0,.1h0Z"/>
          </g>
          <g class="st14">
            <path class="st10" d="M139.9,67.8c.1,0,.1-.2,0-.2s-.1.2,0,.2h0Z"/>
          </g>
          <g class="st12">
            <path class="st10" d="M139.1,67.2c0,0,0,0,0,0s0,0,0,0h0Z"/>
          </g>
          <g class="st14">
            <path class="st10" d="M133.2,63.7c0,0,0,0,0,0s0,0,0,0h0Z"/>
          </g>
          <g class="st12">
            <path class="st10" d="M134.1,64s0,0,0,0h0s0,0,0,0c0,0,0,0,0,0s0,0,0,0,0,0,0,0,0,0,0,0c0,0,0,0,0,0s0,0,0,0,0,0,0,0,0,0,0,0h0Z"/>
          </g>
          <g class="st14">
            <path class="st10" d="M134.9,63.4c0,0,0,0,0,0s0,0,0,0h0Z"/>
          </g>
        </g>
      </g>
      <g>
        <path class="st7" d="M117.1,62.8c-2.1,0-4-1.4-4.8-3.6-1.6-4.4-2.7-9.2-3.6-13.1,0-.2-.1-.5-.2-1.1-.2-1-.4-2.4-.7-3.7-.2-1.1-.4-1.6-.5-1.9-.2,0-.4,0-.5,0-.8-.2-1.4-.4-1.9-.8-1.7-1.3-1.8-3.6-1.4-5.1,0-.4.3-.9.6-1.4,0-.1.2-.2.3-.3,0,0,0,0,.1-.1,0-.1,0-.4,0-.5,0-.2,0-.4,0-.6,0-.7.1-1.3.3-1.9,1-3.9,3.4-7.3,6.7-9.8,3.2-2.4,7.2-3.7,11.1-3.7s1.3,0,1.9.1c.1,0,.3,0,.5,0,1.4,0,3,.6,4.2,1.1h.2c3.7,1.5,6.7,4.2,8.7,7.7,1,1.7,1.6,3.6,1.9,5.5.1.9.2,1.8.2,2.7,0,.5,0,1-.2,1.5,0,.5-.2.9,0,1.2,0,0,0,.2.1.3,0,0,0,.1,0,.2,0,.1.1.3.2.5.8,2.2,0,4.8-2,6.1-.8.5-1.6.6-2.2.7-.3,0-.5,0-.7.1-.2,0-.3.2-.7.8-1.1,1.8-2.5,3.5-3.8,5.1-.7.9-1.4,1.8-2.1,2.7-1.5,2-2.9,4-4.4,6h0c-.5.8-1,1.4-1.4,2.1-1.2,1.7-2.5,2.8-4,3.3-.6.2-1.1.3-1.7.3h0Z"/>
        <path class="st7" d="M117.1,62.1c-1.8,0-3.5-1.2-4.1-3.1-1.5-4.4-2.7-9.2-3.6-13,0-.2-.1-.5-.2-1.1-.2-1-.4-2.4-.7-3.7-.4-1.7-.7-2.3-.8-2.4-.3,0-.6,0-.9-.1-.7-.1-1.2-.4-1.6-.7-1.4-1.1-1.5-3-1.1-4.4,0-.3.2-.7.5-1.1,0-.1.2-.2.2-.3,0-.1.2-.2.2-.3.1-.2,0-.6,0-.9,0-.2,0-.4,0-.6,0-.6.1-1.2.2-1.7,1-3.7,3.2-7,6.4-9.4,3.1-2.3,6.9-3.6,10.7-3.6s1.3,0,1.9.1c.1,0,.3,0,.5,0,1.3,0,2.8.6,3.9,1.1h.2c3.5,1.5,6.5,4.1,8.3,7.3.9,1.6,1.5,3.4,1.8,5.2.1.8.2,1.7.2,2.6,0,.5,0,.9-.2,1.4,0,.5-.2,1,0,1.5,0,.2,0,.3.1.4,0,0,0,.1,0,.2,0,.1.1.3.2.4.7,1.9,0,4.1-1.7,5.3-.6.4-1.3.5-1.9.6-.3,0-.6,0-.8.1-.5.1-.7.4-1.1,1.1-1.1,1.8-2.4,3.4-3.7,5.1-.7.9-1.4,1.8-2.1,2.7-1.5,2-2.9,4-4.4,6-.5.7-1,1.4-1.5,2.1-1.1,1.6-2.3,2.6-3.6,3-.5.2-1,.3-1.5.3h0Z"/>
        <path class="st7" d="M138.7,36.2c0-.2-.2-.4-.2-.6,0-.2-.1-.4-.2-.6-.2-1,.2-2,.2-3,0-.8,0-1.7-.2-2.5-.3-1.8-.9-3.4-1.8-5-1.8-3.1-4.6-5.6-8-7-1.2-.5-3-1.3-4.3-1-8.2-1-16.3,4.3-18.4,12.3-.1.5-.2,1-.2,1.5,0,.6.2,1.3,0,1.9-.1.2-.3.4-.5.6-.2.3-.3.6-.4.9-.3,1.3-.2,2.8.9,3.6.4.3.9.5,1.3.6.3,0,.6.1.9.1,1,0,1.9,7,2.1,7.8,1,4.3,2.1,8.8,3.6,12.9.7,2,2.6,3.2,4.7,2.4,1.4-.5,2.5-1.6,3.3-2.8,2-2.7,3.9-5.4,5.9-8.1,1.9-2.6,4.1-5,5.7-7.7.4-.7.8-1.2,1.5-1.4s1.7,0,2.4-.6c1.4-1,2-2.9,1.4-4.5ZM134,35.1h0c0,0,0,0,0,0ZM129.7,18.1s0,0,0,0c0,0,0,0,0,0,0,0,0,0,0,0ZM126.5,17h0s0,0,0,0h0ZM125.5,20.3h0c0,.2-.1.3-.1.4,0-.1,0-.2.1-.4ZM119.9,16.7h.2c0,0,0,0,0,0,0,0-.2,0-.2,0,0,0,0,0,.1,0ZM117.5,17.2c-.4.1-.9.2-1.3.4.4-.1.9-.3,1.3-.4ZM113.2,55.1c.9-.5,1.9-1.1,2.8-1.6-.9.6-1.8,1.2-2.8,1.6,0,0,0,0,0,0Z"/>
        <g>
          <path class="st16" d="M134.9,40.4s0,0,0,.1c-2.5,4.7-7.6,6.6-12,9.1-3.2,1.8-6.5,3.7-9.7,5.5,0,0-.2.1-.3,0-.2,0-.4-.3-.4-.5-.2-.8-.5-1.7-.7-2.5s-.7-1.5-.4-2,.4-.4.7-.6c2.8-1.5,5.5-3,8.3-4.5s2.8-1.5,4.2-2.2,2.3-1.6,3.5-1.8c.4,0,.8,0,1.2,0,1.1,0,2.2-.2,3.2-.7.5-.2,1-.5,1.6-.4.2,0,.9,0,.9.4Z"/>
          <path class="st16" d="M130.5,46.3c-.8.4-1.2,1.5-1.6,2.2-.7,1-1.4,2-2.1,3-1.7,2.3-3.4,4.6-5.1,6.9-1,1.4-2.5,2.9-4.3,3-1.3,0-2.7-.5-3.3-1.6-.1-.3-.2-.5-.3-.8-.2-.7-.5-1.5-.7-2.3s0-.7.2-.9.8-.3,1.2-.5c5.3-3,10.5-6.4,16-9Z"/>
          <path class="st11" d="M117.6,40.4c.4,0,.8.3,1.1.4,1.3.6,2.8.9,4.2.7s3.6-1.3,3.7-.8c-3.7,2-7.4,4-11.1,6.1-1.2.7-2.7,1.9-4.1,2.2s0,0,0,0c-.5.1-.7-.2-.8-.7-.2-.8-1.2-3.1-.8-3.8s.3-.4.5-.5c.4-.3.9-.7,1.3-.9.4-.2.9-.4,1.3-.5,1.3-.5,2.8-2.1,4.2-2.2,0,0,.2,0,.3,0Z"/>
          <path class="st15" d="M109.7,37.3c0,0,.1.1.2.2,1.4,1.8,3.7,2.3,5.9,2.2s.2,0,.4,0c-.3.7-1.8,1.3-2.6,1.7-.6.3-3.9,2.7-4.2,1.5-.3-1.1-.6-2.1-.8-3.2s-.8-2-.6-2.8c.6-.1,1.3-.2,1.8.3Z"/>
          <path class="st3" d="M131.4,44.9c.3.4-1.6,2-1.9,2.1-2.5,1.6-5.3,2.9-7.9,4.3-1.6.8-3.1,1.7-4.6,2.6-1.3.7-2.6,1.5-3.9,2.3,0,0-.3-1-.3-1,1.6-.4,2.9-1.5,4.2-2.4s3-1.8,4.5-2.7c3.2-1.9,6.4-3.7,9.7-5.3.1,0,.2,0,.3,0s0,0,0,0Z"/>
          <path class="st21" d="M127.9,41s0,0,0,0c0,.2-.2.2-.4.3-.4,0-.8.3-1.1.5-2.1,1.5-4.6,2.6-6.9,3.8s-5.2,2.9-7.7,4.3c-.7.4-.6-.4-.7-.9,5.2-2.8,10.3-5.6,15.5-8.4.4.2.8.3,1.3.4Z"/>
          <path class="st3" d="M116.5,39.7s0,0,0,0c.3-.1,1,.2.9.5s-1.2.8-1.4.9c-.9.5-1.9,1-2.8,1.5s-1.7.6-2.2,1.1c-.2.1-.4.3-.6.3-.6.5-.7,0-.9-.5,2.3-1.2,4.6-2.5,7-3.7Z"/>
          <g>
            <path class="st1" d="M138.5,35.6c0-.2-.1-.4-.2-.6-.2-1,.2-2,.2-3s0-1.7-.2-2.5c-.3-1.8-.9-3.4-1.8-5-1.8-3.1-4.6-5.6-8-7-1.2-.5-3-1.3-4.3-1-8.2-1-16.3,4.3-18.4,12.3-.1.5-.2,1-.2,1.5,0,.6.2,1.3,0,1.9-.1.2-.3.4-.5.6-.2.3-.3.6-.4.9-.3,1.3-.2,2.8.9,3.6.4.3.9.5,1.3.6.7.1,1.3.2,2,0,.1,0,.3,0,.4,0,.5,0,.7.5,1,.9,1.2,1.7,3.7,2.4,5.6,1.6.2-.1.5-.2.7-.2.3,0,.6.3.8.6,1.4,1.6,3.9,2.2,5.9,1.4.5-.2,1-.5,1.6-.7,1.2-.4,1.7.4,2.8.6,1.7.4,3.8,0,4.8-1.6,1.3,1,3.3,1.1,4.7.1s2-2.9,1.4-4.5c0-.2-.2-.4-.2-.6ZM129.7,18.1s0,0,0,0c0,0,0,0,0,0,0,0,0,0,0,0ZM126.5,17h0s0,0,0,0h0ZM125.5,20.3h0c0,.2-.1.3-.1.4,0-.1,0-.2.1-.4ZM119.9,16.7h.2c0,0,0,0,0,0,0,0-.2,0-.2,0,0,0,0,0,.1,0ZM117.5,17.2c-.4.1-.9.2-1.3.4.4-.1.9-.3,1.3-.4ZM134,35.2s0,0,0,0h0Z"/>
            <path class="st7" d="M121.6,43c-1.7,0-3.3-.7-4.3-1.9h0c-.2-.2-.3-.4-.5-.5h0c-.1,0-.3,0-.4.1h0c-.6.3-1.3.4-2,.4-1.7,0-3.3-.8-4.2-2.1h0c-.2-.4-.4-.7-.6-.7,0,0,0,0,0,0-.1,0-.2,0-.2,0-.3,0-.6,0-.9,0-.4,0-.9,0-1.3-.1-.6-.1-1.1-.3-1.5-.6-1.3-1-1.4-2.8-1-4.1,0-.3.2-.7.5-1,0,0,.1-.2.2-.3,0-.1.2-.2.2-.3.2-.3.1-.7,0-1.1,0-.2,0-.4,0-.5,0-.6,0-1.1.2-1.6,1.9-7.4,9-12.7,16.8-12.7s1.3,0,1.9.1c.1,0,.3,0,.5,0,1.2,0,2.7.6,3.8,1h.2c3.4,1.5,6.3,4,8.2,7.2.9,1.6,1.5,3.3,1.8,5.1.1.8.2,1.7.2,2.6,0,.4,0,.9-.1,1.3,0,.6-.2,1.1,0,1.6,0,.2,0,.4.2.5v.2c.1.1.2.3.2.4.6,1.8,0,3.9-1.6,4.9-.7.5-1.6.8-2.5.8h0c-.8,0-1.7-.2-2.3-.7-.8,1-2.1,1.6-3.6,1.6s-.9,0-1.3-.2c-.4-.1-.7-.3-1-.4-.4-.2-.7-.3-1-.3s-.3,0-.5,0c-.3,0-.6.2-.9.4-.2.1-.4.2-.6.3-.7.3-1.4.4-2.1.4Z"/>
            <path class="st1" d="M138.5,35.6c0-.2-.1-.4-.2-.6-.2-1,.2-2,.2-3s0-1.7-.2-2.5c-.3-1.8-.9-3.4-1.8-5-1.8-3.1-4.6-5.6-8-7-1.2-.5-3-1.3-4.3-1-8.2-1-16.3,4.3-18.4,12.3-.1.5-.2,1-.2,1.5,0,.6.2,1.3,0,1.9-.1.2-.3.4-.5.6-.2.3-.3.6-.4.9-.3,1.3-.2,2.8.9,3.6.4.3.9.5,1.3.6.7.1,1.3.2,2,0,.1,0,.3,0,.4,0,.5,0,.7.5,1,.9,1.2,1.7,3.7,2.4,5.6,1.6.2-.1.5-.2.7-.2.3,0,.6.3.8.6,1.4,1.6,3.9,2.2,5.9,1.4.5-.2,1-.5,1.6-.7,1.2-.4,1.7.4,2.8.6,1.7.4,3.8,0,4.8-1.6,1.3,1,3.3,1.1,4.7.1s2-2.9,1.4-4.5c0-.2-.2-.4-.2-.6ZM129.7,18.1s0,0,0,0c0,0,0,0,0,0,0,0,0,0,0,0ZM126.5,17h0s0,0,0,0h0ZM125.5,20.3h0c0,.2-.1.3-.1.4,0-.1,0-.2.1-.4ZM119.9,16.7h.2c0,0,0,0,0,0,0,0-.2,0-.2,0,0,0,0,0,.1,0ZM117.5,17.2c-.4.1-.9.2-1.3.4.4-.1.9-.3,1.3-.4ZM134,35.2s0,0,0,0h0Z"/>
            <circle class="st2" cx="116.2" cy="22.1" r="1.3"/>
            <circle class="st2" cx="126.8" cy="22.1" r=".8"/>
            <circle class="st2" cx="126.8" cy="28.7" r="1.3"/>
            <circle class="st2" cx="132.7" cy="25.7" r="1"/>
            <circle class="st2" cx="132.7" cy="33.1" r="1"/>
            <circle class="st2" cx="127.6" cy="37" r="1.2"/>
            <circle class="st2" cx="111.7" cy="34.2" r="1.2"/>
            <circle class="st2" cx="111.7" cy="26.4" r=".7"/>
          </g>
        </g>
      </g>
    </g>
    <path class="st17" d="M156.5,36.6c1.4,0,2.6.3,3.7.8.8.4,1.3.8,1.6,1.6.4,1.1.7,2.1.8,3.3,0,.8-1.2,2.5-1.8,2.9s-1.1.2-1.5.4c-1.1.3-2.2.4-3.3.4-.6-.2-.8-.5-1.2-.8l-1.2-1.6c-.2-.5-.7-.5-.8-1.4-.3-2.3,1.2-5.1,3.7-5.5Z"/>
    <path class="st17" d="M160.8,85c.4,0,.8,0,1.1.2.2.1.4.2.5.5.1.3.2.6.2,1,0,.2-.4.7-.5.8s-.3,0-.4.1c-.3,0-.6.1-1,.1-.2,0-.2-.1-.4-.2l-.4-.5c0-.1-.2-.2-.2-.4,0-.7.4-1.5,1.1-1.6Z"/>
    <path class="st17" d="M83.5,47.2c.8,0,1.5.2,2.1.5.4.2.8.5.9.9.2.6.4,1.2.5,1.9,0,.4-.7,1.4-1,1.7s-.6.1-.8.2c-.6.2-1.2.2-1.9.2-.3-.1-.5-.3-.7-.5l-.7-.9c-.1-.3-.4-.3-.5-.8-.2-1.3.7-2.9,2.1-3.2Z"/>
    <path class="st1" d="M75.9,39.4c.5,0,1,.1,1.3.3.3.1.5.3.6.6.1.4.2.8.3,1.2,0,.3-.4.9-.7,1s-.4,0-.5.1c-.4,0-.8.1-1.2.1-.2,0-.3-.2-.4-.3l-.4-.6c0-.2-.2-.2-.3-.5-.1-.9.4-1.9,1.3-2Z"/>
    <path class="st1" d="M163.4,34.7c.5,0,1,.1,1.3.3.3.1.5.3.6.6.1.4.2.8.3,1.2,0,.3-.4.9-.7,1s-.4,0-.5.1c-.4,0-.8.1-1.2.1-.2,0-.3-.2-.4-.3l-.4-.6c0-.2-.2-.2-.3-.5-.1-.9.4-1.9,1.3-2Z"/>
    <path class="st1" d="M151,79.7c.8,0,1.5.2,2,.5.4.2.7.5.9.9.2.6.4,1.2.5,1.8,0,.4-.7,1.4-1,1.6s-.6.1-.8.2c-.6.2-1.2.2-1.8.2-.3-.1-.4-.3-.7-.5l-.7-.9c-.1-.2-.4-.3-.4-.8-.2-1.3.7-2.8,2-3Z"/>
    <path class="st18" d="M87.7,89.2c-.1,0-.3,0-.4,0-1.2,0-2.5,0-3.7,0,.6-.6,1-1.4,1.5-2,.3-.3.7-.6.9-.9s.2-.9-.2-1.1c-.2-.1-.5,0-.8,0-.5.3-.9.7-1.2,1.2-.4.6-.9,1.2-1.5,1.6,0,0,0-.6,0-.6,0-.2,0-.4,0-.6,0-.8.1-1.5,0-2.3,0-.1,0-.2,0-.3,0-.1,0-.2,0-.3,0-.8-.4-1.4-.9-1.4s-.8.5-.9,1.2c-.1.5-.1,1,0,1.6,0,.7.2,1.5,0,2.3,0,.2,0,.4-.3.4-.2,0-.3,0-.4-.2-.8-.8-1.3-2-2.4-2.5-.7-.3-1.1,0-.9.7.1.6.6,1.1,1,1.6.6.6,1.3,1.2,1.6,2-.7.1-1.5.2-2.2.1-.7,0-1.4-.2-2,.2-.1,0-.3.2-.3.4,0,.3.3.5.6.5.7.2,1.4.2,2.2.2.3,0,.6,0,.9,0,.3,0,.6.1.9.2-.3.8-1,1.3-1.6,1.9-.6.6-1.2,1.3-1,2.1,0,.1,0,.3.2.4.2.1.4,0,.5,0,1.3-.7,1.9-2.4,3.3-2.9,0,1.1.1,2.2,0,3.3,0,.4,0,.9.1,1.3.2.4.8.6,1.1.3.1-.2.2-.4.2-.6,0-1.4.1-2.7.2-4.1.9.8,1.7,1.6,2.5,2.5.2.2.6.6.9.4,0,0,.1-.1.2-.2.2-.4.4-.8.2-1.3s-.6-.7-.9-1c-.7-.6-1.4-1.4-1.8-2.3,1.3-.2,2.7-.2,4,0,.1,0,.3,0,.4,0,.2-.1.3-.4.3-.7,0-.3,0-.7-.3-.8Z"/>
  </g>
</svg>