<?xml version="1.0" encoding="UTF-8"?>
<svg id="Layer_1" xmlns="http://www.w3.org/2000/svg" version="1.1" viewBox="0 0 240 120">
  <!-- Generator: Adobe Illustrator 30.0.0, SVG Export Plug-In . SVG Version: 2.1.1 Build 123)  -->
  <defs>
    <style>
      .st0 {
        fill: #fff;
      }

      .st1 {
        fill: none;
      }
    </style>
  </defs>
  <rect class="st1" y="0" width="240" height="120" rx="24" ry="24"/>
  <g>
    <path class="st0" d="M183.9,60.3c-.1-.6-.5-.9-1.2-.9h0c-.7,0-1.6.4-2.5,1.3-.9.9-1.8,1.9-2.7,3.1-.9,1.2-1.6,2.2-2.1,3.1.7-1.9,1.4-3.5,2-4.8.2-.4.2-.8,0-1.2s-.4-.7-.8-.9l-.8-.5c0,0-.1,0-.2,0,0,0-.1,0-.1.1-.6,1.2-1.1,2.4-1.5,3.6,0,0,0,0,0,0,0,0,0,0,0,.1-.2.3-.5.6-1.1,1.1-.6.4-1.3.8-2.3,1,.6-1.8.8-3.3.6-4.7-.2-1.4-.9-2.2-2.1-2.3-1.1,0-2,.4-2.6,1.2-.6.8-1,1.8-1.1,2.9,0,0-.1,0-.2,0-.7,0-1.4.3-1.9.8,0,0-.1,0-.2.1,0,0,0,0,0,.1-.3.3-.5.7-.7,1.1,0,.1-.1.3-.2.4,0,0-.1.2-.2.2-.6.9-1.2,1.8-1.9,2.7-.7.9-1.2,1.3-1.7,1.3s-.3-.3-.2-.8c.1-.6.3-1.3.7-2.1s.7-1.6,1-2.4c.4-.8.7-1.5.9-2,.2-.3.3-.5.3-.6.5-1.1,1.1-2.2,1.5-3.1v-.2c1.9,0,3.3,0,4.5,0,.6,0,1,0,1.3,0s.2,0,.3-.1.2-.2.3-.3c0-.1.2-.2.2-.3,0,0,0-.1,0-.2h0c-1.8-.2-3.7-.4-5.7-.5.3-.6.7-1.3,1-2.1.1-.3.1-.6,0-.9,0-.3-.2-.7-.4-1-.2-.3-.4-.5-.6-.7s-.3-.2-.4,0c-.7.9-1.6,2.4-2.7,4.5-2.1,0-3.5-.1-4.2-.1s-1.1.2-1.6.6c-.5.4-.9.8-1.2,1.2,0,0-.1.1-.2.2,0,0,0,.1,0,.2s.1,0,.2,0c1.8-.3,3.8-.5,6.2-.6-.7,1.5-1.4,3.1-2,4.6-.1.2-.2.4-.3.7,0,0-.1,0-.2.1-.2.3-.6,1-1.1,1.9-.6.9-1.2,1.8-1.9,2.7-.7.9-1.2,1.3-1.7,1.3s-.4-.4-.1-1.3c.3-.9.7-1.8,1.2-2.9.5-1.1,1-2,1.4-2.7.2-.4.4-.7.4-.9.1-.3.1-.6,0-1,0-.4-.2-.7-.4-1-.2-.3-.4-.5-.7-.5s-.4.2-.7.6c-.3.4-.7,1-1.1,1.6-.2-.4-.4-.8-.8-1.2-.4-.3-.9-.5-1.5-.5-1.3,0-2.5.6-3.7,1.8-.6.6-1.1,1.2-1.6,1.9,0,0,0,0,0,0,0,0-.1.2-.2.3-.2.2-.3.5-.4.7-.2.3-.3.5-.5.8-.6.9-1.2,1.8-1.9,2.7-.7.9-1.2,1.3-1.7,1.3s-.3-.3-.2-.8c.1-.6.3-1.3.7-2.1.3-.8.7-1.6,1-2.4.4-.8.7-1.5.9-2,.1-.3.2-.5.3-.6.5-1.1,1-2.2,1.5-3.1.6-1.1,1.2-2.3,1.8-3.6.1-.3.1-.6,0-.9,0-.3-.2-.7-.4-1-.2-.3-.4-.5-.6-.7s-.3-.2-.4,0c-.7.8-1.6,2.3-2.6,4.3-1,2-2,4.2-2.9,6.4-.1.2-.2.5-.3.7,0,0,0,0-.1.1-.2.3-.6,1-1.1,1.9-.6.9-1.2,1.8-1.9,2.7-.7.9-1.2,1.3-1.7,1.3s-.4-.4-.1-1.3c.3-.9.7-1.8,1.2-2.9.5-1.1,1-2,1.4-2.7.2-.4.4-.7.5-.9.1-.3.1-.6,0-1,0-.4-.2-.7-.4-1-.2-.3-.4-.5-.7-.5s-.8.6-1.5,1.8c-.8,1.2-1.5,2.5-2.2,4.1-.6,1-1.3,1.9-2,2.9-.8,1-1.4,1.5-1.8,1.5s-.4-.3-.2-1c.2-.7.5-1.5.9-2.3.4-.9.8-1.7,1.2-2.4.3-.6.5-1.1.6-1.3.2-.8.2-1.4-.2-1.8-.3-.4-.7-.7-1.1-.8,0,0-.2,0-.3,0-.1.1-.2.3-.3.5-.1.2-.2.4-.4.6-.1.2-.3.4-.4.7-.4.6-.7,1.2-1,1.9,0,0,0,0-.1.1,0,0,0,0,0,.1-.2.5-.7,1.3-1.4,2.5-.8,1.1-2.1,2.3-3.9,3.6.5-1.1,1-2.3,1.5-3.5.5-1.3,1.2-2.8,2-4.6.1-.3.1-.6,0-1,0-.4-.2-.7-.4-1-.2-.3-.4-.4-.7-.4s-.4.2-.7.6c-.3.4-.7,1-1.1,1.6-.2-.4-.4-.8-.8-1.2-.4-.3-.9-.5-1.5-.5-1.3,0-2.5.6-3.7,1.8-.6.6-1.1,1.3-1.6,2,0,0,0,0-.1,0,0,0,0,.2-.1.3-.2.4-.5.8-.7,1.1,0,.2-.2.3-.3.5-.6.9-1.3,1.9-2.3,2.7-.9.9-2,1.3-3.1,1.3-.4,0-.5-.3-.5-.8,0-.5.2-1.1.4-1.9,1-.2,1.9-.7,2.7-1.4.8-.7,1.5-1.5,1.9-2.4.5-.9.6-1.6.5-2.3-.1-.7-.7-1-1.7-1-1.2,0-2.3.6-3.4,1.8-1.1,1.2-1.9,2.6-2.5,4.1-.3.7-.4,1.3-.6,1.9-2.5-1.7-9.3-6.3-11.1-8.9.1,0,.2,0,.3-.1h0s0,0,0,0c1.8-.6,4.4-.5,7.1-.4,4.9.1,9.9.2,9.6-4-.6-6.8-25.2-13.1-31.3-14.1-.8-.1-1.6-.2-2.5-.3,0,0,0,0,0,0,0,0,0,0,0,0,0,0,0,0,0,0-.4-.8-.8-1.6-1.2-2.5,0,0,0-.1,0-.1h0c-4.9-9.4-11.5-18-19-24.5,7.1,7.2,13.1,16.7,17.2,26.8-9.4-.4-19.5,2.1-16.8,14.2,1.5,6.9,12.6,26.2,20.4,26.6,7.7.3,7.5-11,6.9-16.1-.6-5.1-1.9-10.4-3.7-15.6,0,0,0,0,0,0,0,0,0-.1,0-.2-.3-.9-.7-1.8-1-2.8,7.1,1.3,16.2,4,21.9,7,0,0,0,0,0,0,0,0,.2,0,.3.1-1.1,0-2.2,0-3.3,0-3.3,0-6.7.3-8.8,2.1,0,0-.2.2-.3.2,0,0,0,0-.1.1,0,0,0,0,0,0-5.5,5.8,8.9,14.4,12.9,16.8,2.8,1.7,5.9,3.4,9.3,5.2,0,0,0,0,0,0,.6.9,1.5,1.4,2.9,1.6,0,0,0,0,0,0,10.4,5.7,21.8,12,28.9,18.1,3.8,3.2,7.9,7.4,2.6,11,6.4-3.7.8-9.4-2.9-13-6.6-6.2-15.8-12.4-24.7-18.2.8-1.2,1.6-2.9,2.5-5.2,0-.2.2-.4.3-.7,1.8-1,3.3-2.4,4.5-4.2-.4,1.2-.6,2.2-.6,3.2,0,1.2.7,1.8,1.9,1.8s1.2-.4,2-1.3c.8-.9,1.5-1.8,2.2-2.9-.4,1.2-.4,2.2-.3,3,.2.8.8,1.2,1.8,1.2s1.4-.6,2.3-1.7c.9-1.1,1.7-2.3,2.5-3.5,0-.1.1-.2.2-.3-.4,1-.7,2-.9,2.9,0,0,0,.1,0,.2h0c0,1.4.4,2.1,1.6,2.3,0,0,.1,0,.1,0h.2c.7,0,1.4-.5,2.3-1.6.6-.8,1.2-1.6,1.8-2.4-.2.8-.3,1.6-.2,2.3,0,1.2.8,1.8,2.1,1.8.7,0,1.6-.5,2.5-1.5,1-1,1.8-1.9,2.5-2.9-.4,1.2-.5,2.3-.3,3.1.2.8.8,1.3,1.8,1.3s1.4-.5,2.3-1.6c.9-1.1,1.7-2.3,2.5-3.5,0-.2.2-.3.3-.5-.4,1.1-.7,2.1-1,3.1,0,0,0,.1,0,.2h0s0,0,0,0c0,1.3.4,2.1,1.6,2.2,0,0,0,0,.1,0h.2c.7,0,1.4-.5,2.3-1.6.8-.9,1.5-1.9,2.1-2.9,0,.7,0,1.4,0,2.1.3,1.4,1.3,2.3,3,2.5,1.2,0,2.3-.5,3.3-1.5,1-1,1.8-2.2,2.3-3.7,1.4-.4,2.5-1,3.3-1.8-.2.4-.3.9-.5,1.3-.7,1.8-1,2.9-1,3.3s0,.7.3,1c.2.3.4.6.6.8.2.2.4.4.6.5.2,0,.3.1.3,0,0-.3.2-.6.3-.9.4-.8,1-1.8,1.8-3,.8-1.2,1.6-2.3,2.4-3.2s1.4-1.4,1.7-1.4.3,0,.3.2c0,.1,0,.3-.1.4-.2.3-.2.6-.2.9s.2.7.7.8c.5.1.9.2,1.3.2s.5-.3.8-.9c.3-.6.6-1.3.9-2,.2-.8.3-1.4.2-2ZM109.7,63.2c.6-.9,1.2-1.3,1.8-1.3.3,0,.4.3.1.9-.2.6-.7,1.2-1.3,1.9-.6.7-1.4,1.1-2.2,1.4.4-1.1,1-2,1.6-2.9ZM65.7,60.2c-.2-.3-.4-.6-.5-1h0c-3.5-6.4-4.6-11.2-.7-13.5,0,0,0,0,0,0,1.7-1,4.4-1.4,8.3-1.3.9,0,2,.1,3.1.3h0s0,0,0,0h0s1.3,4.3,1.3,4.3c.8,3.1,1.5,6.2,1.9,9.3,0,0,0,0,0,0,.2,1.7.4,3.4.5,5.1,0,0,0,.2,0,.3,0,.2,0,.3,0,.5h0s0,0,0,0c0,1.3-.2,10-1.7,10.2-.5,0-1-.2-1.7-.7,0,0,0,0,0,0,0,0-.1,0-.2-.1,0,0,0,0,0,0-.1-.1-.3-.2-.4-.3,0,0,0,0,0,0,0,0-.1-.1-.2-.2,0,0,0,0,0,0,0,0,0,0-.1-.1,0,0,0,0,0,0,0,0,0,0-.1-.1,0,0,0,0,0,0,0,0-.1-.1-.2-.2,0,0,0,0,0,0,0,0,0,0-.1-.1,0,0,0,0-.1-.1,0,0,0,0,0,0,0,0,0,0-.1-.1,0,0,0,0,0,0-.2-.2-.4-.5-.7-.8,0,0,0,0,0,0-.2-.3-.5-.6-.7-.9,0,0,0,0,0,0-3-3.6-6.1-8.6-6.9-10.1ZM114.4,73.8c.4-.2.8-.3,1.3-.5.4-.2.8-.3,1.3-.5-.4.8-.8,1.4-1.2,1.9-.4-.3-.8-.6-1.3-.8ZM118.9,67.9c-.5,1.3-1.1,2.6-1.6,3.9-1.5.7-2.7,1.2-3.5,1.6-1.5-1-3-2-4.4-3,.3-.2.7-.5,1-.8.9-.9,1.7-1.8,2.4-2.7-.3.9-.4,1.8-.3,2.6,0,1.2.8,1.8,2.1,1.8s1.5-.4,2.4-1.3c.9-.9,1.7-1.8,2.4-2.8-.1.2-.2.5-.3.8ZM120.5,64.3c-.8,1.1-1.4,2.1-2,2.8-.6.7-1.1,1.4-1.7,1.9-.6.6-1,.8-1.4.8s-.5-.4-.3-1.2.6-1.7,1.2-2.8c.6-1,1.3-2,2.1-2.8.8-.8,1.6-1.2,2.4-1.2s.7,0,.9.2h0c-.4.7-.8,1.5-1.2,2.3ZM151.8,62c-.4.7-.8,1.5-1.2,2.3-.8,1.1-1.4,2.1-2,2.8-.6.7-1.1,1.4-1.7,1.9-.6.6-1,.8-1.4.8s-.5-.4-.3-1.2c.2-.8.6-1.7,1.2-2.8.6-1,1.3-2,2.1-2.8.8-.8,1.6-1.2,2.4-1.2s.7,0,.9.2h0ZM167.9,68.5c-.6.6-1.4.9-2.3.9h0c-.6,0-1-.5-1.2-1.2-.1-.7-.1-1.4.1-2.2.2-.8.6-1.3,1.1-1.7.3.9,1,1.5,2,1.8.6.1,1.2.2,1.8.1-.4.9-.9,1.7-1.5,2.3ZM169.6,65.5c-.5,0-.9,0-1.5,0-.8-.2-1.3-.7-1.5-1.7-.1-.9,0-1.8.4-2.6.4-.9,1.1-1.3,1.9-1.3.6.1,1,.7,1.1,1.9,0,1.2,0,2.4-.5,3.8Z"/>
    <polygon class="st0" points="145.9 107.7 145.9 107.7 145.8 107.7 145.9 107.7"/>
    <polygon class="st0" points="64.4 45.8 64.4 45.8 64.4 45.8 64.4 45.8"/>
  </g>
</svg>