<?xml version="1.0" encoding="UTF-8"?>
<svg id="Layer_1" xmlns="http://www.w3.org/2000/svg" version="1.1" viewBox="0 0 240 120">
  <!-- Generator: Adobe Illustrator 30.0.0, SVG Export Plug-In . SVG Version: 2.1.1 Build 123)  -->
  <defs>
    <style>
      .st0 {
        fill: #fff;
      }

      .st1 {
        fill: none;
      }
    </style>
  </defs>
  <rect class="st1" y="0" width="240" height="120" rx="24" ry="24"/>
  <path id="TREAT_LOGO" class="st0" d="M80.3,47.8c-8.4,0-14.2,4.7-14.2,14.4v20.2h4.6v-20.2c0-7,3.8-10.2,9.6-10.2s9.6,3.1,9.6,10.2v.5h4.5v-.4c0-9.8-5.7-14.5-14.1-14.5M55.9,70c0,6.2-3.5,9.1-8.7,9.1s-8.7-2.9-8.7-9.1v-17.1h19.9v-4.2h-19.9v-11.9h-4.6v33.2c0,8.9,5.4,13.3,13.2,13.3s13.1-4.4,13.1-13.3v-.8h-4.4v.8ZM133.7,65.5v1.5h-31.5c.6,7,5.9,12,13.5,12s9.4-2.2,11.6-6.1h5c-2.6,6.2-8.7,10.3-16.6,10.3s-18.2-7.5-18.2-17.8,7.5-17.8,18.2-17.8,18,7.5,18,17.8M129,62.9c-1.1-6.8-6.4-10.9-13.2-10.9s-12.3,4.3-13.3,10.9h26.6ZM202.6,69.2v.8c0,6.2-3.5,9.1-8.7,9.1s-8.7-2.9-8.7-9.1v-17.1h19.9v-4.2h-19.9v-11.9h-4.6v33.2c0,8.9,5.4,13.3,13.2,13.3s13.1-4.4,13.1-13.3v-.8h-4.4ZM174,65.7v16.7h-4.2v-8.3c-2.4,6-8,9.2-14.5,9.2-9.5,0-17.5-6.8-17.5-17.5s7.5-18,18.2-18,18.1,7.3,18.1,18M169.4,65.5c0-7.8-5.5-13.5-13.5-13.5s-13.5,5.7-13.5,13.5,5.5,13.5,13.5,13.5,13.5-5.7,13.5-13.5"/>
</svg>