<?xml version="1.0" encoding="UTF-8"?>
<svg id="Layer_1" xmlns="http://www.w3.org/2000/svg" version="1.1" viewBox="0 0 260 120">
  <!-- Generator: Adobe Illustrator 30.0.0, SVG Export Plug-In . SVG Version: 2.1.1 Build 123)  -->
  <defs>
    <style>
      .st0 {
        fill: #ec1e27;
      }

      .st1 {
        fill: #fff;
      }

      .st2 {
        fill: none;
      }
    </style>
  </defs>
  <rect class="st2" y="0" width="260" height="120" rx="24" ry="24"/>
  <g>
    <rect class="st0" x="13" y="38.2" width="234" height="43.5" rx="21.8" ry="21.8"/>
    <rect class="st1" x="18.8" y="43.1" width="222.3" height="33.8" rx="16.5" ry="16.5"/>
    <g id="Layer_11" data-name="Layer_1">
      <g>
        <path class="st0" d="M99,49.7v-1.7s3.4,0,3.4,0h3.4s0,10.3,0,10.3v10.3h3.4s3.4,0,3.4,0v1.7s0,1.7,0,1.7h-10.3s-10.3,0-10.3,0v-1.7s0-1.7,0-1.7h3.4s3.4,0,3.4,0v-6.9s0-6.9,0-6.9h-1.7s-1.7,0-1.7,0v-1.7s0-1.7,0-1.7h1.7s1.7,0,1.7,0v-1.7Z"/>
        <path class="st0" d="M116.2,58.3v-10.3s3.4,0,3.4,0h3.4s0,10.3,0,10.3v10.3h5.2s5.2,0,5.2,0v-10.3s0-10.3,0-10.3h3.4s3.4,0,3.4,0v10.3s0,10.3,0,10.3h-1.7s-1.7,0-1.7,0v1.7s0,1.7,0,1.7h-8.6s-8.6,0-8.6,0v-1.7s0-1.7,0-1.7h-1.7s-1.7,0-1.7,0v-10.3Z"/>
        <path class="st0" d="M143.8,60v-12.1s10.3,0,10.3,0h10.3s0,1.7,0,1.7v1.7h1.7s1.7,0,1.7,0v5.2s0,5.2,0,5.2h-1.7s-1.7,0-1.7,0v1.7s0,1.7,0,1.7h-6.9s-6.9,0-6.9,0v3.4s0,3.4,0,3.4h-3.4s-3.4,0-3.4,0v-12.1ZM161,56.6v-5.2h-5.2s-5.2,0-5.2,0v5.2s0,5.2,0,5.2h5.2s5.2,0,5.2,0v-5.2Z"/>
      </g>
    </g>
  </g>
</svg>