<?xml version="1.0" encoding="UTF-8"?>
<svg id="Layer_1" xmlns="http://www.w3.org/2000/svg" version="1.1" viewBox="0 0 240 120">
  <!-- Generator: Adobe Illustrator 30.0.0, SVG Export Plug-In . SVG Version: 2.1.1 Build 123)  -->
  <defs>
    <style>
      .st0 {
        fill: #fff;
      }

      .st1 {
        fill: none;
      }
    </style>
  </defs>
  <rect class="st1" y="0" width="240" height="120" rx="24" ry="24"/>
  <path class="st0" d="M188.4,55.7c-.5-.2-1.1,0-1.4.6h0c-.8,2-2,3.8-3.6,5.2.7-1.6.9-3.3.7-5,0-.4-.2-1.1-.3-1.5-1.2-4.5-1.3-9.3-1-13.9,0-2.2-3-2.8-3.8-.8-.8,1.9-1.6,3.8-2.5,5.6-1.3,2.7-2.9,5.2-4.7,7.5-.6.7-1,1.3-1.5,1.9,0-1.7.4-3.5,1.1-5,0,0,0-.1,0-.2.3-1.1-.2-2.2-1.3-2.5-1.1-.3-2.2.2-2.5,1.3-1,3-1.2,6.4-.4,9.5-.6.6-1.9,1.9-1.9,1.9-2.2,2.1-4.6,3.8-7.4,4.5-2.6.7-4.8,0-6.1-1.4,3.2-1.9,6.1-4.3,8.7-7,1.4-1.4,2.7-2.8,3.7-4.6,4.1-7.5-4.2-12.5-9.9-6.8-3.6,3.5-5.6,8.3-6.1,13.3-.1,1.5,0,2.8.4,3.9-1,.6-2,1.1-3,1.6-2.9,1.4-5.6,2-5.9-.8-.2-1.9.8-4.1,1.8-5.8,1.3-2.2,2.5-4.5,3.3-6.9,1-2.5,1.4-6.5-2.2-7-2.4,0-4.1,1.3-5.9,2.5-2.6,2.2-4.9,4.8-7,7.5,1.1-2.6,2.4-5.2,3.6-7.7,1-2.2-2.2-3.8-3.3-1.6-1.8,3.7-3.4,7.3-4.9,11.1-.4,1.1-.8,2.1-1.3,3.2-1.7,3-4.9,7.4-6.6,7.4-1.4,0-1-4.1-.9-4.8.6-4.5,4.1-10.7,5.9-13.9h0s0,0,0-.1c1-2-1.9-3.5-3-1.6-.8,1.4-1.5,2.8-2.1,4.3-.1.3-.3.7-.4,1-1.1,2.1-2.3,4.1-3.4,6.2-1.6,2.7-3.3,5.4-5.6,7.6-1.1,1-2.6,2.6-4.1,2.6-1.4,0-.6-3-.5-3.8,1.3-5.4,4.2-10.4,7-15.2,1.4-2.5-2.3-4.6-3.7-2.1-.9,1.9-2.4,4.9-3.7,8.1-1.4,2.2-2.9,4.3-4.9,6.1-1.1.9-2.3,1.7-3.5,2.3.4-1.3.7-2.5,1.1-3.8,1.3-4.4,2.9-8.9,4.5-13.2,2.3-6,5-12,8.1-17.7.9-1.6,1.8-3.2,2.8-4.7.3-.4.4-1,.2-1.5-.4-.7-1.2-1-1.9-.6-4.2,1.7-8.2,3.9-11.9,6.6-5.6,4-10.7,9.2-13.9,15.4-4.3,8.2-1.3,15.1,7.4,16.7-.3,1-.6,2.1-.9,3.1-.2.7-.4,1.3-.6,2-5.5,2.2-11.2,4.1-16.4,7-6.8,3.5-13.4,7.8-18.7,13.3-3,3.2-4.8,8.4-1.1,11.8,3.2,3,8.1,2.9,12.1,1.6,6.5-2.2,12.6-6,17.1-11.2,5.3-5.9,8.4-12.8,10.8-20,1-.5,2-.9,2.9-1.5,1.4-.8,3-1.8,4.3-2.9-.3,1.1-.5,2.6-.2,3.7,1,3.8,5,4.6,8.4,1.4,1.3-1.1,4.2-5,5.6-7.2-.3.9-.4,2.7-.3,3.8.5,2.6,2.3,5.2,5.2,3.9.7-.3,1.8-1.5,2.3-1.9,0,0,0,0,.1-.1,0,.2,0,.3-.1.5-.2.8.2,1.6,1,2,.9.4,1.9,0,2.4-.8.5-1.2,1.1-2.5,1.7-3.7,2.9-5.4,7-12.5,12.3-15.9.9-.5,3.4-2.1,2.8.3-.5,2.1-1.6,4-2.5,5.9-.7,1.3-1.5,2.6-1.9,4-1.1,3.2-.9,8.4,3.2,9.2,3.8.8,8.8-2.9,9.6-3.4,1.8,2.2,4.9,3.3,8.5,2.5,3.2-.7,6.1-2.3,8.9-4.4,0,0,.9-.8,1.2-1.1.3.6.7,1.1,1.1,1.6.8.9,1.7,1.7,2.8,2.3,0,0,0,0,0,0,.2.1.4.3.6.4,0,0,0,0,.1,0,1.1.5,2.2.8,3.4.7,0,0,0,0,0,0,.7,0,1.4,0,2.1-.1,1.6-.3,3.2-1,4.5-1.9,2.6-1.8,4.6-4.5,5.7-7.4.2-.5,0-1.1-.6-1.3ZM80.6,82.2c-4.1,5.3-9.5,9.6-15.4,12.6-1.9,1-4,1.7-6.1,1.7-6.5-.2-7.3-5.7-2.9-9.5,1-.9,2.1-1.7,3.2-2.5,7.9-5.6,16.3-10.5,25.3-14,1-.4,1.9-.8,2.9-1.1-1.8,4.6-4,9-7,12.8ZM91.8,56.5c-2.8-1.3-5.8-3-5.9-6.4,0-3.1,1.7-6.1,3.4-8.7,4.1-6.1,9.7-11,15.9-14.9-4.4,7.1-7.8,14.9-10.8,22.7-.9,2.4-1.7,4.8-2.6,7.3ZM150.6,60.7c-.1-.7-.2-1.5,0-2.4.6-4.1,2.7-8.4,5.8-11.1,1.4-1.1,2.9-1.9,4.3-1.1,1.8,1.3,0,4.1-.8,5.5-2,3-4.8,5.6-7.7,7.9-.5.4-1.1.8-1.6,1.2ZM176.3,53.2c1.1-1.5,2.1-3,3-4.6.1,1.1.3,2.2.5,3.3.3,1.3.6,2.7,1,4,.3,1,.5,2.1.3,3.2-.5,3.1-2.9,5-5.5,4.6-.3,0-.6-.2-.9-.3-1.8-.8-3.1-2.4-3.8-4.2,1.8-1.8,4.1-4.2,5.4-6Z"/>
</svg>