<?xml version="1.0" encoding="UTF-8"?>
<svg id="Layer_1" xmlns="http://www.w3.org/2000/svg" version="1.1" xmlns:xlink="http://www.w3.org/1999/xlink" viewBox="0 0 260 120">
  <!-- Generator: Adobe Illustrator 30.0.0, SVG Export Plug-In . SVG Version: 2.1.1 Build 123)  -->
  <defs>
    <style>
      .st0 {
        fill: none;
      }

      .st1 {
        fill: url(#linear-gradient);
      }
    </style>
    <linearGradient id="linear-gradient" x1="22" y1="60" x2="238" y2="60" gradientUnits="userSpaceOnUse">
      <stop offset="0" stop-color="#f05a28"/>
      <stop offset="1" stop-color="#652d90"/>
    </linearGradient>
  </defs>
  <rect class="st0" y="0" width="260" height="120" rx="24" ry="24"/>
  <path class="st1" d="M79.8,44.7c-10.5,0-17.7,5.9-17.7,18v25.2s5.7,0,5.7,0v-25.2c0-8.8,4.8-12.7,12-12.7,7.2,0,12,3.9,12,12.7v.6h5.6v-.5c0-12.2-7.2-18.1-17.7-18.1ZM49.4,72.4c0,7.8-4.3,11.3-10.8,11.3-6.5,0-10.8-3.7-10.8-11.3v-21.4s24.8,0,24.8,0v-5.2s-24.8,0-24.8,0v-14.9h-5.7s0,41.5,0,41.5c0,11.1,6.7,16.6,16.5,16.6,9.8,0,16.4-5.5,16.4-16.6v-.9h-5.5s0,.9,0,.9ZM146.5,66.9v1.9s-39.3,0-39.3,0c.8,8.8,7.3,15,16.8,15,6.6,0,11.8-2.7,14.5-7.6h6.2c-3.2,7.8-10.9,12.9-20.7,12.9-13.3,0-22.7-9.4-22.7-22.2,0-12.8,9.4-22.2,22.7-22.2s22.5,9.4,22.5,22.2h0ZM140.6,63.7c-1.4-8.5-8-13.6-16.5-13.6s-15.3,5.4-16.6,13.6h33.2s0,0,0,0ZM232.5,71.5v.9c0,7.8-4.3,11.3-10.8,11.3s-10.8-3.7-10.8-11.3v-21.4s24.8,0,24.8,0v-5.2s-24.8,0-24.8,0v-14.9h-5.7s0,41.5,0,41.5c0,11.1,6.7,16.6,16.5,16.6,9.8,0,16.4-5.5,16.4-16.6v-.9h-5.5s0,0,0,0ZM196.7,67.2v20.8s-5.3,0-5.3,0v-10.4c-3,7.5-10,11.5-18.2,11.5-11.8,0-21.8-8.4-21.8-21.9s9.4-22.4,22.7-22.4c13.3,0,22.6,9.1,22.6,22.4h0ZM191,66.9c0-9.7-6.8-16.9-16.9-16.9s-16.9,7.2-16.9,16.9c0,9.7,6.8,16.9,16.9,16.9s16.9-7.2,16.9-16.9Z"/>
</svg>