<svg xmlns="http://www.w3.org/2000/svg" viewBox="0 0 1200 900">
  <defs>
    <linearGradient id="bg" x1="0" y1="0" x2="1" y2="1">
      <stop offset="0" stop-color="#fff8ed"/>
      <stop offset="1" stop-color="#5c2b18"/>
    </linearGradient>
    <linearGradient id="pack" x1="0" y1="0" x2="1" y2="1">
      <stop offset="0" stop-color="#2c130b"/>
      <stop offset="1" stop-color="#ef7d1a"/>
    </linearGradient>
    <filter id="shadow" x="-20%" y="-20%" width="140%" height="140%">
      <feDropShadow dx="0" dy="28" stdDeviation="26" flood-color="#2f140a" flood-opacity=".24"/>
    </filter>
  </defs>
  <rect width="1200" height="900" fill="url(#bg)"/>
  <circle cx="900" cy="140" r="240" fill="#ffb15c" opacity=".22"/>
  <circle cx="190" cy="720" r="260" fill="#ef7d1a" opacity=".13"/>
  <g filter="url(#shadow)" opacity=".96">
    <rect x="132" y="206" width="176" height="420" rx="22" fill="#fffaf1"/>
    <rect x="164" y="246" width="112" height="112" rx="22" fill="#241008"/>
    <path d="M220 275c37 52 54 92 54 126 0 35-23 60-54 60s-54-25-54-60c0-34 17-74 54-126z" fill="#ef7d1a"/>
    <rect x="166" y="500" width="108" height="16" rx="8" fill="#2f140a" opacity=".25"/>
    <rect x="166" y="530" width="82" height="12" rx="6" fill="#2f140a" opacity=".16"/>
  </g>
  <g filter="url(#shadow)" opacity=".96">
    <rect x="374" y="154" width="220" height="520" rx="26" fill="url(#pack)"/>
    <rect x="416" y="214" width="136" height="136" rx="28" fill="#fffaf1" opacity=".88"/>
    <path d="M484 244c42 59 60 103 60 142 0 39-25 67-60 67s-60-28-60-67c0-39 18-83 60-142z" fill="#ef7d1a"/>
    <rect x="418" y="542" width="132" height="18" rx="9" fill="#fffaf1" opacity=".38"/>
    <rect x="418" y="574" width="96" height="12" rx="6" fill="#fffaf1" opacity=".28"/>
  </g>
  <g filter="url(#shadow)" opacity=".96">
    <rect x="660" y="260" width="178" height="380" rx="22" fill="#fffaf1"/>
    <rect x="692" y="304" width="114" height="114" rx="24" fill="#241008"/>
    <path d="M749 330c37 52 54 92 54 126 0 35-23 60-54 60s-54-25-54-60c0-34 17-74 54-126z" fill="#ef7d1a"/>
    <rect x="694" y="530" width="108" height="16" rx="8" fill="#2f140a" opacity=".25"/>
    <rect x="694" y="560" width="82" height="12" rx="6" fill="#2f140a" opacity=".16"/>
  </g>
  <g filter="url(#shadow)" opacity=".96">
    <rect x="900" y="190" width="170" height="430" rx="22" fill="#2f140a"/>
    <rect x="930" y="235" width="110" height="110" rx="24" fill="#fffaf1" opacity=".12"/>
    <path d="M985 260c36 51 52 88 52 121 0 34-22 58-52 58s-52-24-52-58c0-33 16-70 52-121z" fill="#ffb15c"/>
    <rect x="932" y="506" width="106" height="16" rx="8" fill="#fffaf1" opacity=".22"/>
    <rect x="932" y="536" width="78" height="12" rx="6" fill="#fffaf1" opacity=".14"/>
  </g>
  <rect x="92" y="690" width="1000" height="22" rx="11" fill="#2f140a" opacity=".15"/>
</svg>
